<?xml version="1.0" standalone="no"?>
<!DOCTYPE svg PUBLIC "-//W3C//DTD SVG 1.1//EN" "http://www.w3.org/Graphics/SVG/1.1/DTD/svg11.dtd" >
<svg>
<metadata>
Created by FontForge 20090914 at Fri May  5 01:18:38 2017
 By www-data
Copyright (c) 2014 by Laura Worthington. All rights reserved.
</metadata>
<defs>
<font id="Milkshake" horiz-adv-x="466" >
  <font-face 
    font-family="Milkshake"
    font-weight="400"
    font-stretch="normal"
    units-per-em="1000"
    panose-1="2 0 5 5 0 0 0 2 0 3"
    ascent="800"
    descent="-200"
    x-height="390.996"
    cap-height="724"
    bbox="-947.004 -498 1575 1049"
    underline-thickness="50"
    underline-position="-50"
    unicode-range="U+000D-U+F8FF"
  />
<missing-glyph horiz-adv-x="253" 
 />
    <glyph glyph-name="T_b" unicode="Tb" horiz-adv-x="932" 
d="M603 116c0 -20.667 3.83496 -38.001 11.502 -52.001s18.167 -21 31.5 -21c10.667 0 21.334 4.33301 32.001 13c-4.66699 6 -7 12 -7 18c0 5.33301 1.83301 11 5.5 17s8.16699 11.333 13.5 16s10.833 8.5 16.5 11.5s10.5 4.5 14.5 4.5h3
c11.333 23.333 20.333 48.5 27 75.5s10 52.167 10 75.5c0 19.333 -2.33301 34.333 -7 45s-15.334 16 -32.001 16c-8.66699 0 -19.834 -4.5 -33.501 -13.5s-26.834 -22.5 -39.501 -40.5s-23.5 -40.667 -32.5 -68s-13.5 -59.666 -13.5 -96.999zM801.002 608.999
c0 13.333 -6.33301 20.001 -19 20.001c-9.33301 0 -20.333 -8.16699 -33 -24.5s-25.834 -37.833 -39.501 -64.5s-27 -57.334 -40 -92.001s-24.167 -70.334 -33.5 -107.001c16.667 16 34.667 36.167 54 60.5s37.333 49.333 54 75s30.334 50.334 41.001 74.001
s16 43.167 16 58.5zM767.002 30c-16.667 -12.667 -35.1641 -22.502 -55.4971 -29.502s-42.166 -10.5 -65.499 -10.5c-17.333 0 -35 3.83301 -53 11.5s-34.667 18.334 -50 32.001s-27.833 29.667 -37.5 48s-14.5 38.166 -14.5 59.499c0 36 2.83301 73.333 8.5 112
s13.5 77 23.5 115s22.333 74.667 37 110s31 67.333 49 96l-38.5 10.5l-38.5 10.5c-14 3.33301 -28 7 -42 11c-2.66699 -1.33301 -6 -4.33301 -10 -9s-8.66699 -12.834 -14 -24.501s-11.166 -27.667 -17.499 -48s-12.833 -46.5 -19.5 -78.5
c-6 -26.667 -11.833 -56.5 -17.5 -89.5s-12.667 -66.333 -21 -100s-18.5 -66.5 -30.5 -98.5s-26.833 -60.5 -44.5 -85.5s-39 -45 -64 -60s-54.5 -22.5 -88.5 -22.5c-20 0 -38.833 2.16699 -56.5 6.5s-33 9.83301 -46 16.5s-23.167 13.834 -30.5 21.501s-11 14.5 -11 20.5
c0 6.66699 1.66699 11.5 5 14.5s7.66602 4.5 12.999 4.5c6.66699 0 13.167 -0.833008 19.5 -2.5s14.166 -2.5 23.499 -2.5c34 0 63.333 12.5 88 37.5s46.334 56.667 65.001 95s34.667 80.166 48 125.499l37 129c10 38 21.667 67.667 35 89s25.666 37.666 36.999 48.999
c13.333 12.667 27.333 20.667 42 24c-15.333 8 -39.5 15.833 -72.5 23.5s-69.5 11.5 -109.5 11.5c-30 0 -54.5 -6.83301 -73.5 -20.5s-28.5 -32.167 -28.5 -55.5c0 -15.333 2.5 -28.166 7.5 -38.499s10.667 -19 17 -26s12 -12.833 17 -17.5s7.5 -8.66699 7.5 -12
c0 -12.667 -7 -19 -21 -19c-13.333 0 -28.5 3 -45.5 9s-33.167 14.667 -48.5 26s-28.333 24.833 -39 40.5s-16 33.5 -16 53.5c0 26 6.66699 47.333 20 64s29.833 30 49.5 40s41 17 64 21s44.167 6 63.5 6c33.333 0 67.666 -3.16699 102.999 -9.5s71.166 -13.5 107.499 -21.5
s73.166 -15.167 110.499 -21.5s74.666 -9.5 111.999 -9.5c10 0 20.167 1.83301 30.5 5.5s20.333 7.5 30 11.5l28 11.5c9 3.66699 17.167 5.5 24.5 5.5c10.667 0 21.5 -2.83301 32.5 -8.5s20.667 -13 29 -22s15.166 -18.667 20.499 -29s8 -19.833 8 -28.5
c0 -14 -3.5 -29.5 -10.5 -46.5s-15.667 -34.333 -26 -52s-21.833 -35 -34.5 -52l-35 -45.5c-10.667 -13.333 -19.667 -24.166 -27 -32.499s-11.333 -12.833 -12 -13.5c0.666992 0.666992 3.33398 2.33398 8.00098 5.00098s10.167 5.5 16.5 8.5s13.666 5.66699 21.999 8
s16.833 3.5 25.5 3.5c13.333 0 26 -3.16699 38 -9.5s22.5 -14.666 31.5 -24.999s16.167 -21.833 21.5 -34.5s8 -25.334 8 -38.001c0 -34 -6.16699 -69.833 -18.5 -107.5s-30.166 -71.5 -53.499 -101.5c17.333 0 33 3.5 47 10.5s26.333 14.833 37 23.5
c12 10 23.333 21.333 34 34c0.666992 2 2.33398 4.33301 5.00098 7c1.33301 1.33301 3.33301 2.83301 6 4.5s5.66699 2.5 9 2.5c5.33301 0 10.166 -2 14.499 -6s6.5 -8.66699 6.5 -14c0 -2.66699 -0.5 -5.16699 -1.5 -7.5s-2.16699 -4.83301 -3.5 -7.5
s-2.66602 -5.66699 -3.99902 -9c-11.333 -16.667 -25.666 -31 -42.999 -43c-14.667 -11.333 -32.834 -21.333 -54.501 -30s-47.167 -13 -76.5 -13h-6.5c-2.33301 0 -4.83301 0.333008 -7.5 1s-5.66699 1.33398 -9 2.00098z" />
    <glyph glyph-name="T_f" unicode="Tf" horiz-adv-x="774" 
d="M803 609c0 13.333 -6.99902 20.001 -20.999 20.001c-9.33301 0 -20.833 -10.5 -34.5 -31.5s-28.334 -48.5 -44.001 -82.5s-31.167 -72.5 -46.5 -115.5s-29.333 -86.5 -42 -130.5c10.667 8 22.834 20.667 36.501 38s27.5 36.833 41.5 58.5s27.5 44.667 40.5 69
s24.667 47.666 35 69.999s18.666 42.833 24.999 61.5s9.5 33 9.5 43zM558.001 33.001l-4 -41.001c-1.33301 -12 -2.33301 -25.167 -3 -39.5s-1 -28.166 -1 -41.499c0 -39.333 4.5 -66.666 13.5 -81.999s17.833 -23 26.5 -23c6 0 11.167 2.16699 15.5 6.5
s7.83301 9.83301 10.5 16.5s4.66699 14.167 6 22.5s2 16.5 2 24.5c0 21.333 -3.5 41.666 -10.5 60.999s-14.5 36 -22.5 50c-10 16.667 -21 32 -33 46zM806.001 113l-24.9961 -32.4971c-9.33301 -11.667 -20.833 -22.5 -34.5 -32.5s-30 -18.333 -49 -25
s-41.167 -10 -66.5 -10c10.667 -9.33301 20 -20.666 28 -33.999c7.33301 -11.333 14 -25.5 20 -42.5s9 -36.167 9 -57.5c0 -12.667 -2.33301 -25.834 -7 -39.501s-11.334 -26.334 -20.001 -38.001s-19.334 -21.167 -32.001 -28.5s-27 -11 -43 -11
c-14.667 0 -30.667 2.83301 -48 8.5s-33.333 15.167 -48 28.5s-27 30.833 -37 52.5s-15 48.5 -15 80.5c0 54 4.33301 110.167 13 168.5s20.667 115.5 36 171.5s33.333 109.333 54 160s43 95.334 67 134.001c-14.667 3.33301 -29 7.33301 -43 12l-38 13
c-12.667 4.66699 -25 9.66699 -37 15c-2.66699 -1.33301 -6 -4.33301 -10 -9s-8.66699 -12.834 -14 -24.501s-11.166 -27.667 -17.499 -48s-12.833 -46.5 -19.5 -78.5c-6 -26.667 -11.833 -56.5 -17.5 -89.5s-12.667 -66.333 -21 -100s-18.5 -66.5 -30.5 -98.5
s-26.833 -60.5 -44.5 -85.5s-39 -45 -64 -60s-54.5 -22.5 -88.5 -22.5c-20 0 -38.833 2.16699 -56.5 6.5s-33 9.83301 -46 16.5s-23.167 13.834 -30.5 21.501s-11 14.5 -11 20.5c0 6.66699 1.66699 11.5 5 14.5s7.66602 4.5 12.999 4.5
c6.66699 0 13.167 -0.833008 19.5 -2.5s14.166 -2.5 23.499 -2.5c34 0 63.333 12.5 88 37.5s46.334 56.667 65.001 95s34.667 80.166 48 125.499l37 129c10 38 21.667 67.667 35 89s25.666 37.666 36.999 48.999c13.333 12.667 27.333 20.667 42 24
c-15.333 8 -39.5 15.833 -72.5 23.5s-69.5 11.5 -109.5 11.5c-30 0 -54.5 -6.83301 -73.5 -20.5s-28.5 -32.167 -28.5 -55.5c0 -15.333 2.5 -28.166 7.5 -38.499s10.667 -19 17 -26s12 -12.833 17 -17.5s7.5 -8.66699 7.5 -12c0 -12.667 -7 -19 -21 -19
c-13.333 0 -28.5 3 -45.5 9s-33.167 14.667 -48.5 26s-28.333 24.833 -39 40.5s-16 33.5 -16 53.5c0 26 6.66699 47.333 20 64s29.833 30 49.5 40s41 17 64 21s44.167 6 63.5 6c33.333 0 66.166 -3.16699 98.499 -9.5s65.5 -13.5 99.5 -21.5s69.5 -15.167 106.5 -21.5
s76.833 -9.5 119.5 -9.5c7.33301 0 15.666 1.83301 24.999 5.5l29 11.5c10 4 20.167 7.83301 30.5 11.5s20.166 5.5 29.499 5.5c11.333 0 22.5 -2.83301 33.5 -8.5s20.833 -13 29.5 -22s15.667 -18.667 21 -29s8 -19.833 8 -28.5c0 -14 -4 -32 -12 -54
s-18.833 -46.167 -32.5 -72.5s-29.334 -53.833 -47.001 -82.5s-36.334 -56.167 -56.001 -82.5s-39.667 -50.833 -60 -73.5s-39.5 -41.334 -57.5 -56.001c-5.33301 -15.333 -9.66602 -31.666 -12.999 -48.999s-5.66602 -34.666 -6.99902 -51.999
c4.66699 -6 10.334 -11 17.001 -15c5.33301 -3.33301 12 -6.5 20 -9.5s17.333 -4.5 28 -4.5c17.333 0 33 2.66699 47 8s26.667 12.166 38 20.499s21.5 17.666 30.5 27.999s17.167 20.166 24.5 29.499c0.666992 2 2.33398 4.33301 5.00098 7
c1.33301 1.33301 3.33301 2.83301 6 4.5s5.66699 2.5 9 2.5c5.33301 0 10.166 -2 14.499 -6s6.5 -8.66699 6.5 -14c0 -2.66699 -0.5 -5.16699 -1.5 -7.5s-2.16699 -4.83301 -3.5 -7.5s-2.66602 -5.66699 -3.99902 -9z" />
    <glyph glyph-name="T_k" unicode="Tk" horiz-adv-x="918" 
d="M818 609c0 13.333 -5.99707 20 -17.9971 20c-9.33301 0 -20.5 -7.33301 -33.5 -22s-27 -35.334 -42 -62.001s-30.667 -58.5 -47 -95.5s-32.5 -77.5 -48.5 -121.5c11.333 10 23.666 22.333 36.999 37s27 30.834 41 48.501s27.667 35.834 41 54.501
s25.166 36.667 35.499 54s18.666 33.666 24.999 48.999s9.5 28 9.5 38zM778.003 -10c-18 0 -36.834 5.50098 -56.501 16.501s-37.834 24.667 -54.501 41s-30.334 33.833 -41.001 52.5s-16 35.667 -16 51c0 6.66699 7.5 14.167 22.5 22.5s31.333 18.166 49 29.499
s34 24.333 49 39s22.5 32 22.5 52c0 18.667 -7.66699 28 -23 28c-18 0 -36.5 -7.33301 -55.5 -22s-36.5 -35.5 -52.5 -62.5s-29 -59.667 -39 -98s-15 -81.5 -15 -129.5c0 -6 -1.16699 -10.833 -3.5 -14.5s-7.16602 -5.5 -14.499 -5.5c-6.66699 0 -15.5 0.833008 -26.5 2.5
s-21.833 4.5 -32.5 8.5s-19.834 9.33301 -27.501 16s-11.5 15.334 -11.5 26.001c0 29.333 3.66699 65.833 11 109.5s18 89.834 32 138.501s30.833 97 50.5 145s41.5 91.333 65.5 130c-14.667 3.33301 -29.167 7 -43.5 11s-27.166 8.33301 -38.499 13
c-13.333 4.66699 -26.333 10 -39 16c-2.66699 -1.33301 -6 -4.33301 -10 -9s-8.66699 -12.834 -14 -24.501s-11.166 -27.667 -17.499 -48s-12.833 -46.5 -19.5 -78.5c-6 -26.667 -11.833 -56.5 -17.5 -89.5s-12.667 -66.333 -21 -100s-18.5 -66.5 -30.5 -98.5
s-26.833 -60.5 -44.5 -85.5s-39 -45 -64 -60s-54.5 -22.5 -88.5 -22.5c-20 0 -38.833 2.16699 -56.5 6.5s-33 9.83301 -46 16.5s-23.167 13.834 -30.5 21.501s-11 14.5 -11 20.5c0 6.66699 1.66699 11.5 5 14.5s7.66602 4.5 12.999 4.5
c6.66699 0 13.167 -0.833008 19.5 -2.5s14.166 -2.5 23.499 -2.5c34 0 63.333 12.5 88 37.5s46.334 56.667 65.001 95s34.667 80.166 48 125.499l37 129c10 38 21.667 67.667 35 89s25.666 37.666 36.999 48.999c13.333 12.667 27.333 20.667 42 24
c-15.333 8 -39.5 15.833 -72.5 23.5s-69.5 11.5 -109.5 11.5c-30 0 -54.5 -6.83301 -73.5 -20.5s-28.5 -32.167 -28.5 -55.5c0 -15.333 2.5 -28.166 7.5 -38.499s10.667 -19 17 -26s12 -12.833 17 -17.5s7.5 -8.66699 7.5 -12c0 -12.667 -7 -19 -21 -19
c-13.333 0 -28.5 3 -45.5 9s-33.167 14.667 -48.5 26s-28.333 24.833 -39 40.5s-16 33.5 -16 53.5c0 26 6.66699 47.333 20 64s29.833 30 49.5 40s41 17 64 21s44.167 6 63.5 6c33.333 0 66.166 -3.16699 98.499 -9.5s65.5 -13.5 99.5 -21.5s69.5 -15.167 106.5 -21.5
s76.833 -9.5 119.5 -9.5c12.667 0 24.334 1.83301 35.001 5.5s21.167 7.5 31.5 11.5l31 11.5c10.333 3.66699 21.166 5.5 32.499 5.5c10.667 0 21.334 -2.83301 32.001 -8.5s20.334 -13 29.001 -22s15.5 -18.667 20.5 -29s7.5 -19.833 7.5 -28.5
c0 -14 -3.5 -29.5 -10.5 -46.5s-15.667 -34.333 -26 -52s-21.5 -34.834 -33.5 -51.501s-23.333 -31.5 -34 -44.5l-27 -32c-7.33301 -8.33301 -11.333 -12.833 -12 -13.5c0.666992 0.666992 3.66699 2.16699 9 4.5s11.833 4.83301 19.5 7.5s16.5 5.16699 26.5 7.5
s20.333 3.5 31 3.5c17.333 0 32.833 -7.66699 46.5 -23s20.5 -33.333 20.5 -54c0 -19.333 -8.33301 -37.333 -25 -54s-35 -31.667 -55 -45c-23.333 -15.333 -49.666 -29.666 -78.999 -42.999c0 -5.33301 2.33301 -13 7 -23s11.5 -20.333 20.5 -31
s19.833 -19.834 32.5 -27.501s26.667 -11.5 42 -11.5c14.667 0 28 3.33301 40 10s22.333 14 31 22c10 9.33301 19 20 27 32c0.666992 2 2.33398 4.33301 5.00098 7c1.33301 1.33301 3.33301 2.83301 6 4.5s5.66699 2.5 9 2.5c5.33301 0 10.166 -2 14.499 -6
s6.5 -8.66699 6.5 -14c0 -2.66699 -0.5 -5.16699 -1.5 -7.5s-2.16699 -4.83301 -3.5 -7.5s-2.66602 -5.66699 -3.99902 -9c-15.333 -23.333 -32 -44 -50 -62c-15.333 -15.333 -33.5 -29.333 -54.5 -42s-43.5 -19 -67.5 -19z" />
    <glyph glyph-name="T_l" unicode="Tl" horiz-adv-x="754" 
d="M808 615c0 9.33301 -4.00098 14 -12.001 14c-9.33301 0 -21.5 -10.333 -36.5 -31s-30.667 -47.667 -47 -81s-32.5 -70.666 -48.5 -111.999s-29 -83 -39 -125c11.333 9.33301 23.833 22.666 37.5 39.999s27.167 36.833 40.5 58.5s26.333 44.167 39 67.5
s23.834 45.833 33.501 67.5s17.5 41.5 23.5 59.5s9 32 9 42zM613.999 -10c-16.667 0 -32.999 3.33398 -48.999 10.001s-30.167 16 -42.5 28s-22.333 26.5 -30 43.5s-11.5 35.833 -11.5 56.5c0 32.667 3.33301 68.334 10 107.001s16 77.667 28 117s26.333 77.666 43 114.999
s34.667 71.333 54 102c-13.333 3.33301 -27.333 7.16602 -42 11.499l-41 12.5c-14.667 4 -29 8.33301 -43 13c-2.66699 -1.33301 -6 -4.33301 -10 -9s-8.66699 -12.834 -14 -24.501s-11.166 -27.667 -17.499 -48s-12.833 -46.5 -19.5 -78.5
c-6 -26.667 -11.833 -56.5 -17.5 -89.5s-12.667 -66.333 -21 -100s-18.5 -66.5 -30.5 -98.5s-26.833 -60.5 -44.5 -85.5s-39 -45 -64 -60s-54.5 -22.5 -88.5 -22.5c-20 0 -38.833 2.16699 -56.5 6.5s-33 9.83301 -46 16.5s-23.167 13.834 -30.5 21.501s-11 14.5 -11 20.5
c0 6.66699 1.66699 11.5 5 14.5s7.66602 4.5 12.999 4.5c6.66699 0 13.167 -0.833008 19.5 -2.5s14.166 -2.5 23.499 -2.5c34 0 63.333 12.5 88 37.5s46.334 56.667 65.001 95s34.667 80.166 48 125.499l37 129c10 38 21.667 67.667 35 89s25.666 37.666 36.999 48.999
c13.333 12.667 27.333 20.667 42 24c-15.333 8 -39.5 15.833 -72.5 23.5s-69.5 11.5 -109.5 11.5c-30 0 -54.5 -6.83301 -73.5 -20.5s-28.5 -32.167 -28.5 -55.5c0 -15.333 2.5 -28.166 7.5 -38.499s10.667 -19 17 -26s12 -12.833 17 -17.5s7.5 -8.66699 7.5 -12
c0 -12.667 -7 -19 -21 -19c-13.333 0 -28.5 3 -45.5 9s-33.167 14.667 -48.5 26s-28.333 24.833 -39 40.5s-16 33.5 -16 53.5c0 26 6.66699 47.333 20 64s29.833 30 49.5 40s41 17 64 21s44.167 6 63.5 6c33.333 0 67.166 -3.16699 101.499 -9.5s69.833 -13.5 106.5 -21.5
s74.5 -15.167 113.5 -21.5s79.833 -9.5 122.5 -9.5c9.33301 0 17.833 1.83301 25.5 5.5l23 11.5c7.66699 4 16 7.83301 25 11.5s19.833 5.5 32.5 5.5c11.333 0 22 -2.66699 32 -8s18.833 -12 26.5 -20s13.834 -16.833 18.501 -26.5s7 -18.834 7 -27.501
c0 -14 -3.83301 -31.833 -11.5 -53.5s-17.834 -45 -30.501 -70s-27.5 -50.833 -44.5 -77.5s-34.667 -52.5 -53 -77.5s-36.833 -48.333 -55.5 -70s-36.334 -39.5 -53.001 -53.5l-6 -31c-1.33301 -9.33301 -2.5 -19.166 -3.5 -29.499s-1.5 -19.833 -1.5 -28.5
c0 -23.333 4.33301 -40.166 13 -50.499s20.334 -15.5 35.001 -15.5c13.333 0 26.5 4.33301 39.5 13s24.5 18.667 34.5 30c12 12 23 26.333 33 43c0.666992 2 2.33398 4.33301 5.00098 7c1.33301 1.33301 3.33301 2.83301 6 4.5s5.66699 2.5 9 2.5
c5.33301 0 10.166 -2 14.499 -6s6.5 -8.66699 6.5 -14c0 -2.66699 -0.5 -5.16699 -1.5 -7.5s-2.16699 -4.83301 -3.5 -7.5s-2.66602 -5.66699 -3.99902 -9c-14.667 -23.333 -31 -44 -49 -62c-15.333 -15.333 -33.5 -29.333 -54.5 -42s-43.833 -19 -68.5 -19z" />
    <glyph glyph-name="g_j" unicode="gj" horiz-adv-x="675" 
d="M107 -285c-15.333 0 -29.8379 2.5 -43.5049 7.5s-25.667 11.667 -36 20s-18.5 18.333 -24.5 30s-9 24.167 -9 37.5c0 18.667 5.33301 35.334 16 50.001s25.167 27.834 43.5 39.501s40 21.834 65 30.501s52.167 17 81.5 25c6.66699 23.333 12.334 45.666 17.001 66.999
s8.33398 39 11.001 53c-13.333 -16.667 -27.666 -31 -42.999 -43c-13.333 -10.667 -28.333 -20.334 -45 -29.001s-34.667 -13 -54 -13c-13.333 0 -26.166 2.5 -38.499 7.5s-23 12.167 -32 21.5s-16.167 20.333 -21.5 33s-8 26.667 -8 42c0 36 6.83301 71.667 20.5 107
s31.5 67.166 53.5 95.499s46.667 51.166 74 68.499s54.666 26 81.999 26c20 0 37 -2.5 51 -7.5s25.333 -10.5 34 -16.5c10 -7.33301 18 -15 24 -23c7.33301 0 15.166 -0.833008 23.499 -2.5s16 -4.33398 23 -8.00098s12.833 -8.5 17.5 -14.5s7 -13.333 7 -22
c0 -5.33301 -1.5 -14.666 -4.5 -27.999s-7 -30 -12 -50l-17.5 -67.5l-22 -80.5l-10.5 -42.5c-3.66699 -15 -7.83398 -30.167 -12.501 -45.5l97 24l30.5 104l29 105.5l25 97c7.66699 30.333 13.834 56.5 18.501 78.5c1.33301 6 4.66602 10.667 9.99902 14s11.333 5 18 5
c7.33301 0 15.5 -2.33301 24.5 -7s17.5 -10 25.5 -16s14.667 -12.167 20 -18.5s8 -11.5 8 -15.5c0 -5.33301 -2.16699 -17.166 -6.5 -35.499s-10.166 -41.166 -17.499 -68.499s-16.166 -58.333 -26.499 -93l-33.5 -108c28.667 12 54.667 25.667 78 41s42.666 33 57.999 53
c1.33301 2 3.33301 4.33301 6 7l7 4.5c2.66699 1.66699 5.66699 2.5 9 2.5c6 0 11 -2 15 -6s6 -8.66699 6 -14c0 -2.66699 -0.666992 -5.16699 -2 -7.5s-2.66602 -4.83301 -3.99902 -7.5c-2 -2.66699 -3.66699 -5.66699 -5 -9
c-21.333 -28.667 -48.166 -52.334 -80.499 -71.001s-67.5 -34.667 -105.5 -48l-53 -153c-13.333 -36 -26.5 -68 -39.5 -96s-27.5 -51.667 -43.5 -71s-34.333 -34 -55 -44s-45.334 -15 -74.001 -15c-18 0 -35.167 3 -51.5 9s-31 13.833 -44 23.5s-23.667 20.5 -32 32.5
s-12.833 24 -13.5 36c-1.33301 0 -2.66602 -0.166992 -3.99902 -0.5s-2.66602 -0.5 -3.99902 -0.5zM303.995 -64c-7.33301 -23.333 -15.333 -46.165 -24 -68.498s-18.834 -43 -30.501 -62s-25 -35.667 -40 -50s-32.167 -24.833 -51.5 -31.5
c1.33301 -5.33301 3.33301 -11.333 6 -18s6.5 -12.834 11.5 -18.501s11.333 -10.334 19 -14.001s17.167 -5.5 28.5 -5.5c48.667 0 101.334 79 158.001 237l18 54zM273.995 290.001c0 14.667 -3.66797 25.499 -11.001 32.499s-16 10.5 -26 10.5
c-14.667 0 -29.667 -7.66699 -45 -23s-29.166 -34.166 -41.499 -56.499s-22.5 -46.5 -30.5 -72.5s-12 -49.333 -12 -70c0 -30 9.66699 -45 29 -45c12 0 25.833 8 41.5 24s30.667 35.667 45 59s26.333 47.833 36 73.5s14.5 48.167 14.5 67.5zM700.994 576
c0 -13.333 -2.16602 -26.167 -6.49902 -38.5s-10.333 -23.333 -18 -33s-16.334 -17.334 -26.001 -23.001s-19.834 -8.5 -30.501 -8.5c-14.667 0 -27.334 5 -38.001 15s-16 24 -16 42c0 12.667 2.33301 25 7 37s10.834 22.833 18.501 32.5s16.5 17.334 26.5 23.001
s20.667 8.5 32 8.5c14.667 0 26.834 -5 36.501 -15s14.5 -23.333 14.5 -40zM81.9951 -232.001c10.667 0 20.668 3.66895 30.001 11.002s18.333 17.333 27 30s16.667 27 24 43s14 33 20 51c-36 -12.667 -64.833 -27.834 -86.5 -45.501s-32.5 -40.834 -32.5 -69.501
c0 -6.66699 1.66699 -11.667 5 -15s7.66602 -5 12.999 -5z" />
    <glyph glyph-name="j_j" unicode="jj" horiz-adv-x="390" 
d="M59 372c1.33301 5.33301 4.66504 9.83984 9.99805 13.5068s11.333 5.5 18 5.5c7.33301 0 15.5 -2.33301 24.5 -7s17.5 -10 25.5 -16s14.667 -12.167 20 -18.5s8 -11.5 8 -15.5s-2.33301 -16.833 -7 -38.5s-11 -48.834 -19 -81.501s-17.667 -69 -29 -109
s-23.666 -81 -36.999 -123c-1.33301 -3.33301 -2.5 -6.5 -3.5 -9.5s-2.16699 -6.16699 -3.5 -9.5c14 4.66699 27.333 8.83398 40 12.501l36 10.5l4 2l32.5 107.5l31 111c9.66699 36.333 18.334 70.666 26.001 102.999l19.5 82.5c1.33301 6 4.66602 10.667 9.99902 14
s11.333 5 18 5c7.33301 0 15.5 -2.33301 24.5 -7s17.5 -10 25.5 -16s14.667 -12.167 20 -18.5s8 -11.5 8 -15.5c0 -5.33301 -2.16699 -17.5 -6.5 -36.5s-10.333 -42.667 -18 -71s-16.834 -60.166 -27.501 -95.499l-35 -111c27.333 15.333 50 31.5 68 48.5s34 35.167 48 54.5
c1.33301 2 3.33301 4.33301 6 7l7 4.5c2.66699 1.66699 5.66699 2.5 9 2.5c6 0 11 -2 15 -6s6 -8.66699 6 -14c0 -2.66699 -0.666992 -5.33398 -2 -8.00098l-4 -8c-2 -2.66699 -3.66699 -5.33398 -5 -8.00098c-20 -25.333 -42.333 -48.333 -67 -69s-58 -41 -100 -61
l-24 -71.5l-25 -70.5c-13.333 -36 -26.5 -68 -39.5 -96s-27.5 -51.667 -43.5 -71s-34.333 -34 -55 -44s-45.334 -15 -74.001 -15c-21.333 0 -41.666 4.16699 -60.999 12.5s-35.666 19.166 -48.999 32.499c-17.333 -8.66699 -33.666 -13 -48.999 -13
s-30.833 3.33301 -46.5 10s-30 15.5 -43 26.5s-23.667 23.167 -32 36.5s-12.5 26.666 -12.5 39.999c0 16 6.83301 31.5 20.5 46.5s31.834 29.167 54.501 42.5s48.5 26.166 77.5 38.499s58.833 24.166 89.5 35.499c5.33301 13.333 10.166 26.833 14.499 40.5l13.5 42.5
c26 85.333 44.833 158.666 56.5 219.999s22.167 110 31.5 146zM44.999 -96.9932c-18.667 -48 -38.501 -91 -59.501 -129s-43.5 -68 -67.5 -90c5.33301 -4.66699 11.5 -8.5 18.5 -11.5s15.167 -4.5 24.5 -4.5c48.667 0 101.334 79 158.001 237l8 25zM435.998 596.007
c0 -13.333 -2.16504 -26.165 -6.49805 -38.498s-10.333 -23.333 -18 -33s-16.334 -17.334 -26.001 -23.001s-19.834 -8.5 -30.501 -8.5c-14.667 0 -28.167 6 -40.5 18s-18.5 27 -18.5 45c0 10.667 2.5 21.667 7.5 33s11.833 21.666 20.5 30.999s18.167 16.833 28.5 22.5
s21.166 8.5 32.499 8.5c14.667 0 26.834 -5 36.501 -15s14.5 -23.333 14.5 -40zM241 576.008c0 -13.333 -2.16602 -26.167 -6.49902 -38.5s-10.333 -23.333 -18 -33s-16.334 -17.334 -26.001 -23.001s-19.834 -8.5 -30.501 -8.5c-14.667 0 -27.334 5 -38.001 15
s-16 24 -16 42c0 12.667 2.33301 25 7 37s10.834 22.833 18.501 32.5s16.5 17.334 26.5 23.001s20.667 8.5 32 8.5c14.667 0 26.834 -5 36.501 -15s14.5 -23.333 14.5 -40zM-207.999 -281.993c21.333 0 42.334 12.668 63.001 38.001s40.667 58.666 60 99.999
c-20 -8 -39.167 -16.5 -57.5 -25.5s-34.333 -18.167 -48 -27.5s-24.5 -19 -32.5 -29s-12 -20 -12 -30c0 -7.33301 2.66699 -13.5 8 -18.5s11.666 -7.5 18.999 -7.5z" />
    <glyph glyph-name="y_j" unicode="yj" horiz-adv-x="681" 
d="M346 71c-4 -13.333 -7.84082 -27.502 -11.5078 -42.502s-7.83398 -30.167 -12.501 -45.5l98 24l30.5 104l29 105.5l25 97c7.66699 30.333 13.834 56.5 18.501 78.5c1.33301 6 4.66602 10.667 9.99902 14s11.333 5 18 5c7.33301 0 15.5 -2.33301 24.5 -7
s17.5 -10 25.5 -16s14.667 -12.167 20 -18.5s8 -11.5 8 -15.5c0 -5.33301 -2.16699 -17.166 -6.5 -35.499s-10.166 -41.166 -17.499 -68.499s-16.166 -58.333 -26.499 -93l-33.5 -108c28.667 12 54.667 25.667 78 41s42.666 33 57.999 53c1.33301 2 3.33301 4.33301 6 7
l7 4.5c2.66699 1.66699 5.66699 2.5 9 2.5c6 0 11 -2 15 -6s6 -8.66699 6 -14c0 -2.66699 -0.666992 -5.16699 -2 -7.5s-2.66602 -4.83301 -3.99902 -7.5c-2 -2.66699 -3.66699 -5.66699 -5 -9c-21.333 -28.667 -48.166 -52.334 -80.499 -71.001s-67.5 -34.667 -105.5 -48
l-53 -153c-13.333 -36 -26.5 -68 -39.5 -96s-27.5 -51.667 -43.5 -71s-34.333 -34 -55 -44s-45.334 -15 -74.001 -15c-18 0 -35.167 3 -51.5 9s-31 13.833 -44 23.5s-23.667 20.5 -32 32.5s-12.833 24 -13.5 36c-1.33301 0 -2.66602 -0.166992 -3.99902 -0.5
s-2.66602 -0.5 -3.99902 -0.5c-15.333 0 -29.833 2.5 -43.5 7.5s-25.667 11.667 -36 20s-18.5 18.333 -24.5 30s-9 24.167 -9 37.5c0 18.667 5.16699 35.334 15.5 50.001s24.833 27.834 43.5 39.501s40.334 21.834 65.001 30.501s51.667 17 81 25
c6 21.333 11.167 41.666 15.5 60.999s7.83301 35.666 10.5 48.999c-8 -9.33301 -17.167 -18.5 -27.5 -27.5s-21.5 -17 -33.5 -24s-24.5 -12.667 -37.5 -17s-25.833 -6.5 -38.5 -6.5c-11.333 0 -23.166 2.5 -35.499 7.5s-23.5 11.833 -33.5 20.5s-18.333 19 -25 31
s-10 24.667 -10 38c0 18 3 40.333 9 67s13 53.834 21 81.501s16.5 53.834 25.5 78.501s16.5 44 22.5 58c2.66699 5.33301 6.33398 9.83301 11.001 13.5s10 5.5 16 5.5c7.33301 0 15.666 -2.33301 24.999 -7s18 -10 26 -16s14.667 -12.167 20 -18.5s8 -11.5 8 -15.5
c0 -15.333 -3.33301 -32.333 -10 -51l-22.5 -60.5c-8.33301 -21.667 -15.833 -44.334 -22.5 -68.001s-10 -47.5 -10 -71.5c0 -8 2 -15 6 -21s9.66699 -9 17 -9c8 0 16.167 2.33301 24.5 7s16.5 10.5 24.5 17.5s15.333 14.667 22 23s12.334 16.166 17.001 23.499
c11.333 18 21 38.333 29 61s15 45.5 21 68.5l17 66c5.33301 21 11 38.5 17 52.5c2.66699 5.33301 6.33398 9.83301 11.001 13.5s10.334 5.5 17.001 5.5c7.33301 0 15.5 -2.33301 24.5 -7s17.5 -10 25.5 -16s14.667 -12.167 20 -18.5s8 -11.5 8 -15.5
c0 -7.33301 -2 -20.333 -6 -39s-9 -40.5 -15 -65.5s-12.833 -51.5 -20.5 -79.5zM404.992 -41.002c-16 -4 -32.168 -7.83203 -48.501 -11.499s-32.166 -7.5 -47.499 -11.5c-7.33301 -22.667 -15.333 -45.167 -24 -67.5s-18.834 -43 -30.501 -62s-25 -35.667 -40 -50
s-31.833 -25.166 -50.5 -32.499c1.33301 -5.33301 3.33301 -11.333 6 -18s6.5 -12.834 11.5 -18.501s11.333 -10.334 19 -14.001s17.167 -5.5 28.5 -5.5c48.667 0 101.334 79 158.001 237zM706.991 575.999c0 -13.333 -2.16602 -26.167 -6.49902 -38.5
s-10.333 -23.333 -18 -33s-16.334 -17.334 -26.001 -23.001s-19.834 -8.5 -30.501 -8.5c-14.667 0 -27.334 5 -38.001 15s-16 24 -16 42c0 12.667 2.33301 25 7 37s10.834 22.833 18.501 32.5s16.5 17.334 26.5 23.001s20.667 8.5 32 8.5c14.667 0 26.834 -5 36.501 -15
s14.5 -23.333 14.5 -40zM87.9922 -232.002c10.667 0 20.833 3.66602 30.5 10.999s18.667 17.333 27 30s16.333 27 24 43s14.5 33 20.5 51c-36 -12.667 -65 -27.667 -87 -45s-33 -40.666 -33 -69.999c0 -13.333 6 -20 18 -20z" />
    <glyph glyph-name="f_j" unicode="fj" horiz-adv-x="522" 
d="M366 372c1.33301 5.33301 4.66504 9.83789 9.99805 13.5049s11.333 5.5 18 5.5c7.33301 0 15.5 -2.33301 24.5 -7s17.5 -10 25.5 -16s14.667 -12.167 20 -18.5s8 -11.5 8 -15.5c0 -5.33301 -1.5 -14.666 -4.5 -27.999s-7 -29 -12 -47l-16.5 -58.5l-18.5 -62l-18.5 -57.5
c-6 -18 -11.333 -33 -16 -45c32 16 59 32.833 81 50.5s40.333 36.5 55 56.5c1.33301 2 3.33301 4.33301 6 7l7 4.5c2.66699 1.66699 5.66699 2.5 9 2.5c6 0 11 -2 15 -6s6 -8.66699 6 -14c0 -2.66699 -0.666992 -5.33398 -2 -8.00098l-4 -8
c-2 -2.66699 -3.66699 -5.33398 -5 -8.00098c-20 -25.333 -43.833 -47.833 -71.5 -67.5s-63.834 -39.834 -108.501 -60.501c-20.667 -86.667 -43.334 -163.667 -68.001 -231c-10.667 -29.333 -22.167 -57.833 -34.5 -85.5s-25.333 -52.167 -39 -73.5
s-28 -38.666 -43 -51.999s-30.5 -20 -46.5 -20s-30.667 5.5 -44 16.5s-20 23.5 -20 37.5c0 12 3.83301 23.833 11.5 35.5s17.167 23.667 28.5 36s24 25 38 38s27.333 26.833 40 41.5c8.66699 20.667 17.334 44 26.001 70s17.334 53.5 26.001 82.5s17 59 25 90l23 92.5
c-14.667 -13.333 -32.667 -25 -54 -35s-47.666 -15 -78.999 -15c8 -14 15.333 -29.667 22 -47c5.33301 -14.667 10.5 -31.334 15.5 -50.001s7.5 -38.667 7.5 -60c0 -12 -2.33301 -23.5 -7 -34.5s-11 -21 -19 -30s-17.5 -16.167 -28.5 -21.5s-22.833 -8 -35.5 -8
c-14.667 0 -30.667 2.83301 -48 8.5s-33.333 15.167 -48 28.5s-27 30.833 -37 52.5s-15 48.5 -15 80.5c0 54 4.5 110.5 13.5 169.5s21.167 116.833 36.5 173.5s33.5 110.5 54.5 161.5s43.5 95.667 67.5 134s49 68.833 75 91.5s51.667 34 77 34
c11.333 0 22.5 -2.83301 33.5 -8.5s20.833 -13 29.5 -22s15.667 -18.667 21 -29s8 -19.833 8 -28.5c0 -14 -4 -32 -12 -54s-18.833 -46.167 -32.5 -72.5s-29.334 -53.833 -47.001 -82.5s-36.334 -56.167 -56.001 -82.5s-39.667 -50.833 -60 -73.5
s-39.5 -41.334 -57.5 -56.001c-5.33301 -15.333 -9.66602 -31.666 -12.999 -48.999s-5.66602 -34.666 -6.99902 -51.999c4.66699 -6 10.334 -11 17.001 -15c5.33301 -3.33301 12 -6.5 20 -9.5s17.333 -4.5 28 -4.5c17.333 0 33 2.66699 47 8s26.667 12.166 38 20.499
s21.5 17.666 30.5 27.999s17.167 20.166 24.5 29.499c0.666992 1.33301 1.66699 2.66602 3 3.99902l3.5 3.5c1 1 2.5 2.16699 4.5 3.5l16.5 75.5l13.5 64l10.5 49c3 13.667 5.5 23.5 7.5 29.5zM335.999 609.005c0 13.333 -6.99902 20.001 -20.999 20.001
c-9.33301 0 -20.833 -10.5 -34.5 -31.5s-28.334 -48.5 -44.001 -82.5s-31.167 -72.5 -46.5 -115.5s-29.333 -86.5 -42 -130.5c10.667 8 22.834 20.667 36.501 38s27.5 36.833 41.5 58.5s27.5 44.667 40.5 69s24.667 47.666 35 69.999s18.666 42.833 24.999 61.5
s9.5 33 9.5 43zM548 576.006c0 -13.333 -2.16602 -26.167 -6.49902 -38.5s-10.333 -23.333 -18 -33s-16.334 -17.334 -26.001 -23.001s-19.834 -8.5 -30.501 -8.5c-14.667 0 -27.334 5 -38.001 15s-16 24 -16 42c0 12.667 2.33301 25 7 37s10.834 22.833 18.501 32.5
s16.5 17.334 26.5 23.001s20.667 8.5 32 8.5c14.667 0 26.834 -5 36.501 -15s14.5 -23.333 14.5 -40zM91.001 33.0049l-3.99902 -41.002c-1.33301 -12 -2.33301 -25.167 -3 -39.5s-1 -28.166 -1 -41.499c0 -39.333 4.5 -66.666 13.5 -81.999s17.833 -23 26.5 -23
c17.333 0 26 15.333 26 46c0 21.333 -3 42.833 -9 64.5s-12.667 41.167 -20 58.5c-8.66699 20 -18.334 39.333 -29.001 58z" />
    <glyph glyph-name="T_h" unicode="Th" horiz-adv-x="975" 
d="M836 95c0 -11.333 2.83203 -20.5 8.49902 -27.5s13.5 -10.5 23.5 -10.5c13.333 0 26.5 4.33301 39.5 13s24.5 18.667 34.5 30c12 12 23 26.333 33 43c0.666992 2 2.33398 4.33301 5.00098 7c1.33301 1.33301 3.33301 2.83301 6 4.5s5.66699 2.5 9 2.5
c5.33301 0 10.166 -2 14.499 -6s6.5 -8.66699 6.5 -14c0 -2.66699 -0.5 -5.16699 -1.5 -7.5s-2.16699 -4.83301 -3.5 -7.5s-2.66602 -5.66699 -3.99902 -9c-14.667 -23.333 -31 -44 -49 -62c-15.333 -15.333 -33.5 -29.333 -54.5 -42s-43.833 -19 -68.5 -19
c-38 0 -68.667 10.167 -92 30.5s-35 46.833 -35 79.5c0 20.667 2.66699 40 8 58s11.333 34.667 18 50l18 41.5c5.33301 12.333 8 23.166 8 32.499c0 19.333 -7.33301 29 -22 29c-17.333 0 -35 -7.16699 -53 -21.5s-34.167 -34.666 -48.5 -60.999s-26 -58 -35 -95
s-13.5 -78.167 -13.5 -123.5c0 -6 -1.16699 -10.833 -3.5 -14.5s-7.16602 -5.5 -14.499 -5.5c-10 0 -20.667 1 -32 3s-22 5.16699 -32 9.5s-18.167 10 -24.5 17s-9.5 15.167 -9.5 24.5c0 28 3.66699 63.667 11 107s18 89.166 32 137.499s30.833 96.833 50.5 145.5
s41.5 92.667 65.5 132l-46.5 11c-16.333 4 -31.5 8.33301 -45.5 13c-16.667 4.66699 -33 10 -49 16c-2.66699 -1.33301 -6 -4.33301 -10 -9s-8.66699 -12.834 -14 -24.501s-11.166 -27.667 -17.499 -48s-12.833 -46.5 -19.5 -78.5c-6 -26.667 -11.833 -56.5 -17.5 -89.5
s-12.667 -66.333 -21 -100s-18.5 -66.5 -30.5 -98.5s-26.833 -60.5 -44.5 -85.5s-39 -45 -64 -60s-54.5 -22.5 -88.5 -22.5c-20 0 -38.833 2.16699 -56.5 6.5s-33 9.83301 -46 16.5s-23.167 13.834 -30.5 21.501s-11 14.5 -11 20.5c0 6.66699 1.66699 11.5 5 14.5
s7.66602 4.5 12.999 4.5c6.66699 0 13.167 -0.833008 19.5 -2.5s14.166 -2.5 23.499 -2.5c34 0 63.333 12.5 88 37.5s46.334 56.667 65.001 95s34.667 80.166 48 125.499l37 129c10 38 21.667 67.667 35 89s25.666 37.666 36.999 48.999c13.333 12.667 27.333 20.667 42 24
c-15.333 8 -39.5 15.833 -72.5 23.5s-69.5 11.5 -109.5 11.5c-30 0 -54.5 -6.83301 -73.5 -20.5s-28.5 -32.167 -28.5 -55.5c0 -15.333 2.5 -28.166 7.5 -38.499s10.667 -19 17 -26s12 -12.833 17 -17.5s7.5 -8.66699 7.5 -12c0 -12.667 -7 -19 -21 -19
c-13.333 0 -28.5 3 -45.5 9s-33.167 14.667 -48.5 26s-28.333 24.833 -39 40.5s-16 33.5 -16 53.5c0 26 6.66699 47.333 20 64s29.833 30 49.5 40s41 17 64 21s44.167 6 63.5 6c33.333 0 67.166 -3.16699 101.499 -9.5s69.833 -13.5 106.5 -21.5s74.5 -15.167 113.5 -21.5
s79.833 -9.5 122.5 -9.5c12.667 0 24.334 1.83301 35.001 5.5s21.167 7.5 31.5 11.5l30.5 11.5c10 3.66699 20.667 5.5 32 5.5s22.333 -2.83301 33 -8.5s20.334 -13 29.001 -22s15.5 -18.667 20.5 -29s7.5 -19.833 7.5 -28.5c0 -14 -3 -29.333 -9 -46
s-13.833 -33.5 -23.5 -50.5s-20 -33.833 -31 -50.5s-21.5 -31.667 -31.5 -45l-26 -33.5c-7.33301 -9 -11.666 -14.5 -12.999 -16.5c3.33301 2 12.666 6.66699 27.999 14s33.666 11 54.999 11c7.33301 0 14.833 -2 22.5 -6s14.5 -9.33301 20.5 -16s11 -14 15 -22
s6 -16.333 6 -25c0 -15.333 -3.33301 -32.166 -10 -50.499s-14 -37.333 -22 -57s-15.333 -39.667 -22 -60s-10 -40.166 -10 -59.499zM837.999 609c0 13.333 -6.33301 20.002 -19 20.002c-9.33301 0 -20.5 -7.83301 -33.5 -23.5s-27 -37.334 -42 -65.001
s-30.667 -60.5 -47 -98.5s-32.5 -79.333 -48.5 -124c11.333 9.33301 24 21.666 38 36.999s28 32 42 50s27.667 37 41 57s25 39.167 35 57.5s18.167 35.333 24.5 51s9.5 28.5 9.5 38.5z" />
    <glyph glyph-name=".notdef" horiz-adv-x="253" 
 />
    <glyph glyph-name="NULL" horiz-adv-x="0" 
 />
    <glyph glyph-name="NULL" horiz-adv-x="0" 
 />
    <glyph glyph-name="nonmarkingreturn" unicode="&#xd;" horiz-adv-x="230" 
 />
    <glyph glyph-name="space" unicode=" " horiz-adv-x="210" 
 />
    <glyph glyph-name="exclam" unicode="!" horiz-adv-x="288" 
d="M52 44c0 8.66699 2.16699 17.832 6.5 27.499s10 18.5 17 26.5s15.333 14.667 25 20s19.5 8 29.5 8c15.333 0 27.833 -4.5 37.5 -13.5s14.5 -21.5 14.5 -37.5c0 -9.33301 -1.83301 -18.833 -5.5 -28.5s-9 -18.667 -16 -27s-15.333 -15.166 -25 -20.499
s-20.167 -8 -31.5 -8c-16 0 -28.667 4.83301 -38 14.5s-14 22.5 -14 38.5zM238 677.998c0 11.333 9.33301 17 28 17c8 0 17.5 -2.5 28.5 -7.5s21.667 -11.333 32 -19s19 -16.334 26 -26.001s10.5 -19.167 10.5 -28.5c0 -6.66699 -2.83301 -18.167 -8.5 -34.5
s-13.334 -35.666 -23.001 -57.999l-32 -74l-36 -82l-35.5 -82c-11.333 -27 -21 -51.5 -29 -73.5c-6 -17.333 -15.333 -29 -28 -35c-9.33301 -4.66699 -19.166 -8 -29.499 -10s-17.833 -3 -22.5 -3c-12.667 0 -19 5.66699 -19 17c0 4 3.33301 17.5 10 40.5l25.5 84
l33.5 107.5l33.5 111.5c10.333 35.667 18.833 67.5 25.5 95.5s10 48 10 60z" />
    <glyph glyph-name="quotedbl" unicode="&#x22;" horiz-adv-x="272" 
d="M77 478c-11.333 0 -18.3311 2.66797 -20.998 8.00098s-4 12.666 -4 21.999c0 4 1 13.333 3 28s4.33301 30.5 7 47.5l7.5 47.5l4.5 28c2.66699 14 9.16699 24.167 19.5 30.5s24.166 9.5 41.499 9.5c19.333 0 33 -3 41 -9s12 -14.667 12 -26
c0 -7.33301 -3.33301 -18.666 -10 -33.999s-14.334 -31.333 -23.001 -48l-25 -46c-8 -14 -13 -23.333 -15 -28c-4.66699 -8.66699 -9.5 -15.834 -14.5 -21.501s-12.833 -8.5 -23.5 -8.5zM227.002 478.001c-11.333 0 -18.3311 2.66797 -20.998 8.00098s-4 12.666 -4 21.999
c0 4 1 13.333 3 28s4.33301 30.5 7 47.5l7.5 47.5l4.5 28c2.66699 14 9.16699 24.167 19.5 30.5s24.166 9.5 41.499 9.5c19.333 0 33 -3 41 -9s12 -14.667 12 -26c0 -7.33301 -3.33301 -18.666 -10 -33.999s-14.334 -31.333 -23.001 -48l-25 -46c-8 -14 -13 -23.333 -15 -28
c-4.66699 -8.66699 -9.5 -15.834 -14.5 -21.501s-12.833 -8.5 -23.5 -8.5z" />
    <glyph glyph-name="numbersign" unicode="#" horiz-adv-x="452" 
d="M343 581c2 6 7.83594 9.99805 17.5029 11.998s16.5 3 20.5 3c7.33301 0 13.666 -2.66699 18.999 -8s8 -11.666 8 -18.999c0 -2 -1.16699 -6.33301 -3.5 -13l-8 -24c-3 -9.33301 -6.33301 -19 -10 -29s-6.83398 -19 -9.50098 -27h56c5.33301 0 10.5 -1.33301 15.5 -4
s7.5 -7.33398 7.5 -14.001c0 -8.66699 -2.5 -18.167 -7.5 -28.5s-12.167 -15.5 -21.5 -15.5h-71l-34 -97h49c7.33301 0 11.833 -2.83301 13.5 -8.5s2.5 -11.5 2.5 -17.5c0 -7.33301 -2.5 -15 -7.5 -23s-12.167 -12 -21.5 -12h-61l-34 -102
c-4.66699 -11.333 -15.334 -17 -32.001 -17c-7.33301 0 -14.833 2 -22.5 6s-11.5 9.66699 -11.5 17c0 2.66699 1.16699 7.83398 3.5 15.501s5 16 8 25s6.33301 18.5 10 28.5s6.83398 19 9.50098 27h-86l-41 -107c-2.66699 -5.33301 -8.16699 -8.66602 -16.5 -9.99902
s-15.166 -2 -20.499 -2c-8 0 -14.333 2.5 -19 7.5s-7 11.167 -7 18.5c0 2 1 6.16699 3 12.5s4.66699 13.666 8 21.999s6.83301 17.666 10.5 27.999s7.5 20.5 11.5 30.5h-42c-6.66699 0 -11.834 2.33301 -15.501 7s-5.5 9 -5.5 13c0 8.66699 3.33301 17.834 10 27.501
s14.667 14.5 24 14.5h54l40 96h-56c-12 0 -18 7 -18 21c0 8 2.16699 16.833 6.5 26.5s11.166 14.5 20.499 14.5h69l41 103c2.66699 7.33301 8.16699 12 16.5 14s14.833 3 19.5 3c8 0 14.833 -2.66699 20.5 -8s8.5 -11.666 8.5 -18.999l-36 -93h77zM286.003 412.998h-78
l-40 -95h83z" />
    <glyph glyph-name="dollar" unicode="$" horiz-adv-x="460" 
d="M325 563c-18 0 -33.1641 -5.83594 -45.4971 -17.5029s-18.5 -29.167 -18.5 -52.5c0 -20 6.5 -39.333 19.5 -58s27.333 -38 43 -58s30 -41.667 43 -65s19.5 -49.333 19.5 -78c0 -24 -4 -46.333 -12 -67s-19.167 -38.834 -33.5 -54.501s-31.166 -29 -50.499 -40
s-40.333 -18.833 -63 -23.5l-11 -33c-2.66699 -8 -7.16699 -14.167 -13.5 -18.5s-18.166 -6.5 -35.499 -6.5c-18.667 0 -31.834 2.16699 -39.501 6.5s-11.5 10.5 -11.5 18.5l10 32c-16.667 3.33301 -32.334 8.33301 -47.001 15s-27.334 14.834 -38.001 24.501
s-19.167 20.5 -25.5 32.5s-9.5 25 -9.5 39c0 16.667 4.5 32.5 13.5 47.5s20.5 27.833 34.5 38.5s29.167 19.167 45.5 25.5s31.833 9.5 46.5 9.5c4 0 7.5 -0.833008 10.5 -2.5s4.5 -4.16699 4.5 -7.5s-1.83301 -7.33301 -5.5 -12s-7.66699 -10.667 -12 -18
s-8.33301 -16.5 -12 -27.5s-5.5 -24.833 -5.5 -41.5c0 -21.333 5.66699 -38.5 17 -51.5s27.333 -19.5 48 -19.5c19.333 0 35.166 7.5 47.499 22.5s18.5 34.5 18.5 58.5c0 26.667 -6.66699 51 -20 73s-28 43.333 -44 64s-30.667 41.5 -44 62.5s-20 44.167 -20 69.5
c0 18.667 3.83301 37.167 11.5 55.5s18.5 35 32.5 50s30.667 27.833 50 38.5s40.666 18.334 63.999 23.001l13 37c2.66699 8 7.16699 14.167 13.5 18.5s18.166 6.5 35.499 6.5c18.667 0 31.834 -2.16699 39.501 -6.5s11.5 -10.5 11.5 -18.5l-12 -38
c16 -4 29.5 -9.33301 40.5 -16s20 -14 27 -22s12 -16.5 15 -25.5s4.5 -17.833 4.5 -26.5c0 -14.667 -4.33301 -28.5 -13 -41.5s-19.334 -24.5 -32.001 -34.5s-25.667 -18 -39 -24s-24.666 -9 -33.999 -9c-10 0 -15 5 -15 15c0 2.66699 1.16699 6.33398 3.5 11.001
s5 10.334 8 17.001s5.66699 14.667 8 24s3.5 20.333 3.5 33c0 30.667 -13.333 46 -40 46z" />
    <glyph glyph-name="percent" unicode="%" horiz-adv-x="594" 
d="M557 693c0 -6.66699 -1.16504 -12.8301 -3.49805 -18.4971s-6.5 -13.834 -12.5 -24.501l-357 -639c-2.66699 -6 -6.5 -10.333 -11.5 -13s-10.167 -4 -15.5 -4c-4.66699 0 -11.5 0.166992 -20.5 0.5s-17.833 1.5 -26.5 3.5s-16.334 5.16699 -23.001 9.5
s-10 10.166 -10 17.499c0 3.33301 0.666992 6.66602 2 9.99902s2.66602 7 3.99902 11l361 652c2.66699 4 6.16699 8 10.5 12s9.5 6 15.5 6c22 0 42 -2.33301 60 -7s27 -10 27 -16zM91.002 561.004c0 -17.333 5.83301 -31.833 17.5 -43.5s26.167 -17.5 43.5 -17.5
s31.833 5.83301 43.5 17.5s17.5 26.167 17.5 43.5s-5.83301 31.833 -17.5 43.5s-26.167 17.5 -43.5 17.5s-31.833 -5.83301 -43.5 -17.5s-17.5 -26.167 -17.5 -43.5zM12.002 561.004c0 19.333 3.66699 37.666 11 54.999s17.333 32.333 30 45s27.5 22.667 44.5 30
s35.167 11 54.5 11s37.666 -3.66699 54.999 -11s32.333 -17.333 45 -30s22.667 -27.667 30 -45s11 -35.666 11 -54.999s-3.66699 -37.5 -11 -54.5s-17.333 -31.833 -30 -44.5s-27.667 -22.667 -45 -30s-35.666 -11 -54.999 -11s-37.5 3.66699 -54.5 11
s-31.833 17.333 -44.5 30s-22.667 27.5 -30 44.5s-11 35.167 -11 54.5zM422.002 143.004c0 -17.333 6 -32 18 -44s26.667 -18 44 -18s31.666 6 42.999 18s17 26.667 17 44s-5.66699 31.666 -17 42.999s-25.666 17 -42.999 17s-32 -5.66699 -44 -17s-18 -25.666 -18 -42.999z
M343.002 143.004c0 19.333 3.66699 37.5 11 54.5s17.333 31.833 30 44.5s27.667 22.667 45 30s35.666 11 54.999 11s37.5 -3.66699 54.5 -11s31.833 -17.333 44.5 -30s22.667 -27.5 30 -44.5s11 -35.167 11 -54.5s-3.66699 -37.666 -11 -54.999s-17.333 -32.333 -30 -45
s-27.5 -22.667 -44.5 -30s-35.167 -11 -54.5 -11s-37.666 3.66699 -54.999 11s-32.333 17.333 -45 30s-22.667 27.667 -30 45s-11 35.666 -11 54.999z" />
    <glyph glyph-name="ampersand" unicode="&#x26;" horiz-adv-x="713" 
d="M297 25c24 0 46.6689 4.8291 68.002 14.4961s40.666 22.5 57.999 38.5s32.166 33.833 44.499 53.5s21.5 39.5 27.5 59.5c-20 -9.33301 -39.333 -16.833 -58 -22.5s-35.667 -8.5 -51 -8.5c-25.333 0 -43.833 4.83301 -55.5 14.5s-17.5 21.834 -17.5 36.501
c0 16 6.33301 31.667 19 47s28.334 28.833 47.001 40.5s38.667 21 60 28s40.666 10.5 57.999 10.5c16 0 30.667 -2 44 -6s24.666 -10.333 33.999 -19c11.333 14 20.333 28 27 42s10 27 10 39c0 9.33301 -2.5 16.5 -7.5 21.5s-11.5 7.5 -19.5 7.5
c-6 0 -12.333 -1.33301 -19 -4s-13 -5.66699 -19 -9l-16 -9c-4.66699 -2.66699 -8 -4 -10 -4c-4.66699 0 -8.66699 1 -12 3s-5 6.33301 -5 13c0 4.66699 4.66699 11.5 14 20.5s21 17.833 35 26.5s29.333 16.334 46 23.001s32.334 10 47.001 10c18 0 33.167 -5.5 45.5 -16.5
s18.5 -26.167 18.5 -45.5c0 -28 -10.5 -56.833 -31.5 -86.5s-46.833 -57.167 -77.5 -82.5c0.666992 -3.33301 1 -6.5 1 -9.5v-9.5c0 -30 -9.5 -61 -28.5 -93s-44.333 -61.167 -76 -87.5s-68.167 -48 -109.5 -65s-84.666 -25.5 -129.999 -25.5c-28 0 -56 3.33301 -84 10
s-53.167 17.334 -75.5 32.001s-40.666 33.5 -54.999 56.5s-21.5 50.5 -21.5 82.5c0 22 3 42.333 9 61s13.833 35.667 23.5 51s20.834 29.166 33.501 41.499s25.667 23.5 39 33.5c31.333 22.667 66.666 41.334 105.999 56.001c-13.333 8.66699 -25.333 19 -36 31
c-9.33301 10 -17.833 22.167 -25.5 36.5s-11.5 30.833 -11.5 49.5c-40.667 8.66699 -74.167 21 -100.5 37s-39.5 36 -39.5 60c0 12.667 4.33301 25.334 13 38.001s19 24 31 34s24.333 18.167 37 24.5s22.667 9.5 30 9.5c3.33301 0 5.66602 -1 6.99902 -3s2 -4 2 -6
c0 -3.33301 -3 -9.16602 -9 -17.499s-9 -18.5 -9 -30.5c0 -16 4.66699 -30.833 14 -44.5s22.333 -25.834 39 -36.501c10.667 20.667 25.834 40 45.501 58s41.667 33.667 66 47s50.166 23.666 77.499 30.999s54 11 80 11c18 0 34.833 -2.16699 50.5 -6.5
s29.334 -10.333 41.001 -18s20.834 -17 27.501 -28s10 -23.167 10 -36.5c0 -18.667 -7.16699 -36.334 -21.5 -53.001s-33.666 -31.167 -57.999 -43.5s-52.833 -22 -85.5 -29s-67.334 -10.5 -104.001 -10.5h-18c0 -12.667 1.16699 -24 3.5 -34s5.16602 -18.667 8.49902 -26
c3.33301 -8.66699 7.33301 -16.334 12 -23.001c5.33301 0.666992 11.666 1.66699 18.999 3c6 0.666992 13.167 1.33398 21.5 2.00098s17.833 1 28.5 1c39.333 0 59 -11.667 59 -35c0 -10 -5.83301 -20.167 -17.5 -30.5s-27.167 -15.5 -46.5 -15.5
c-12 0 -23 0.833008 -33 2.5s-18.667 3.83398 -26 6.50098c-8 2.66699 -15.333 6 -22 10c-24.667 -14.667 -46.667 -32 -66 -52c-16.667 -17.333 -31.834 -38.666 -45.501 -63.999s-20.5 -55 -20.5 -89c0 -42 12.167 -74.167 36.5 -96.5s57.5 -33.5 99.5 -33.5z
M441.002 680.996c-15.333 0 -30.668 -3.33398 -46.001 -10.001s-29.666 -15.834 -42.999 -27.501s-25.333 -25.667 -36 -42s-18.667 -34.166 -24 -53.499c28.667 0 55.167 2.33301 79.5 7s45.5 11.334 63.5 20.001s32 19 42 31s15 25.333 15 40c0 10.667 -5 19.167 -15 25.5
s-22 9.5 -36 9.5zM416 212.995c12.667 0 26.333 2.83301 41 8.5s29.667 13.5 45 23.5c-1.33301 19.333 -5.83301 32.333 -13.5 39s-17.167 10 -28.5 10c-6 0 -12.833 -2 -20.5 -6s-15 -9 -22 -15s-12.833 -12.667 -17.5 -20s-7 -14.333 -7 -21c0 -12.667 7.66699 -19 23 -19
z" />
    <glyph glyph-name="quotesingle" unicode="'" horiz-adv-x="146" 
d="M76 478c-11.333 0 -18.3311 2.66797 -20.998 8.00098s-4 12.666 -4 21.999c0 4 1 13.333 3 28s4.33301 30.5 7 47.5l7.5 47.5l4.5 28c2.66699 14 9.16699 24.167 19.5 30.5s24.166 9.5 41.499 9.5c19.333 0 33 -3 41 -9s12 -14.667 12 -26
c0 -7.33301 -3.33301 -18.666 -10 -33.999s-14.334 -31.333 -23.001 -48l-25 -46c-8 -14 -13 -23.333 -15 -28c-4.66699 -8.66699 -9.5 -15.834 -14.5 -21.501s-12.833 -8.5 -23.5 -8.5z" />
    <glyph glyph-name="parenleft" unicode="(" horiz-adv-x="192" 
d="M327 749c6 5.33301 11.4971 9.49902 16.4971 12.499s10.167 4.5 15.5 4.5c6 0 11.167 -2.33301 15.5 -7s6.5 -9.66699 6.5 -15s-2 -10.5 -6 -15.5s-9 -10.833 -15 -17.5c-22 -24 -46.667 -54.5 -74 -91.5s-53 -78.333 -77 -124s-44.167 -94.334 -60.5 -146.001
s-24.5 -104.5 -24.5 -158.5c0 -26 1 -48.667 3 -68s5 -36.5 9 -51.5s8.83301 -28.833 14.5 -41.5s11.834 -25 18.501 -37c1.33301 -2.66699 2.66602 -5.66699 3.99902 -9s2 -6.66602 2 -9.99902c0 -4.66699 -2 -9 -6 -13s-8.66699 -6 -14 -6
c-3.33301 0 -7.16602 1.5 -11.499 4.5s-8.16602 5.83301 -11.499 8.5c-4 2.66699 -13 10.834 -27 24.501s-28.833 31.5 -44.5 53.5s-29.667 47.833 -42 77.5s-18.5 62.167 -18.5 97.5c0 56.667 11.5 111.5 34.5 164.5s51.333 102.5 85 148.5s69.334 87.333 107.001 124
s71.167 67 100.5 91z" />
    <glyph glyph-name="parenright" unicode=")" horiz-adv-x="301" 
d="M34 -28c-6 -5.33301 -11.4971 -9.50098 -16.4971 -12.501s-10.167 -4.5 -15.5 -4.5c-6 0 -11.167 2.33301 -15.5 7s-6.5 9.66699 -6.5 15s2 10.5 6 15.5s9 10.833 15 17.5c22 24 46.667 54.5 74 91.5s53 78.333 77 124s44.167 94.334 60.5 146.001s24.5 104.5 24.5 158.5
c0 26 -1 48.667 -3 68s-5 36.5 -9 51.5s-8.83301 28.833 -14.5 41.5s-11.834 25 -18.501 37c-1.33301 2.66699 -2.66602 5.66699 -3.99902 9s-2 6.66602 -2 9.99902c0 4.66699 2 9 6 13s8.66699 6 14 6c3.33301 0 7.16602 -1.5 11.499 -4.5s8.16602 -5.83301 11.499 -8.5
c4 -3.33301 13 -11.666 27 -24.999s28.833 -31 44.5 -53s29.667 -47.833 42 -77.5s18.5 -62.167 18.5 -97.5c0 -56.667 -11.5 -111.5 -34.5 -164.5s-51.333 -102.5 -85 -148.5s-69.334 -87.333 -107.001 -124s-71.167 -67 -100.5 -91z" />
    <glyph glyph-name="asterisk" unicode="*" horiz-adv-x="270" 
d="M170 706c0 -2 -0.166016 -6.66699 -0.499023 -14s-0.833008 -15.333 -1.5 -24s-1.16699 -17 -1.5 -25s-0.5 -14 -0.5 -18c4 2.66699 9.16699 6.66699 15.5 12s13 10.666 20 15.999s13.667 9.83301 20 13.5s11.833 5.5 16.5 5.5c4 0 7.83301 -1.66699 11.5 -5
s7 -7.33301 10 -12s5.5 -9.66699 7.5 -15s3 -10 3 -14c0 -9.33301 -3.66699 -15.333 -11 -18c-13.333 -6 -27.166 -11.833 -41.499 -17.5s-25.166 -9.16699 -32.499 -10.5l40.5 -16.5l31.5 -13.5c4 -2 7.16699 -4.33301 9.5 -7s3.5 -7 3.5 -13c0 -8 -3 -17.333 -9 -28
s-13.667 -16 -23 -16c-2.66699 0 -7.33398 1.66699 -14.001 5s-13.834 7.33301 -21.501 12s-15 9.5 -22 14.5s-12.5 9.16699 -16.5 12.5c0.666992 -11.333 1.66699 -22.333 3 -33l2 -27.5c0.666992 -9 1 -16.167 1 -21.5s-2.66699 -11 -8 -17s-14.333 -9 -27 -9
c-11.333 0 -20 3 -26 9s-9 11.667 -9 17c0 11.333 0.5 25 1.5 41s2.16699 30 3.5 42c-4 -4 -9 -8.66699 -15 -14s-12.5 -10.333 -19.5 -15s-13.833 -8.66699 -20.5 -12s-12.334 -5 -17.001 -5c-4 0 -8 1.5 -12 4.5s-7.5 6.66699 -10.5 11s-5.5 8.83301 -7.5 13.5s-3 9 -3 13
c-0 9.33301 4.33301 16.333 13 21c14 8 27.5 14.333 40.5 19s22.167 8.33398 27.5 11.001c-16 8 -29.333 14.333 -40 19l-27 12c-8.66699 4 -13 10.667 -13 20c0 8 3.33301 17.333 10 28s14.667 16 24 16c4 0 8.83301 -1.83301 14.5 -5.5s11.667 -8 18 -13
s12.5 -10.167 18.5 -15.5s11.667 -10 17 -14c0 9.33301 -0.5 22 -1.5 38s-1.5 30.333 -1.5 43c0 6 3 11.667 9 17s14.667 8 26 8c12 0 20.833 -2.66699 26.5 -8s8.5 -11 8.5 -17z" />
    <glyph glyph-name="plus" unicode="+" horiz-adv-x="458" 
d="M181 541c0 7.33301 5.16895 12.668 15.502 16.001s20.166 5 29.499 5s19.5 -1.66699 30.5 -5s16.5 -8 16.5 -14v-148h146c7.33301 0 12.666 -5.16699 15.999 -15.5s5 -20.166 5 -29.499s-1.66699 -19.5 -5 -30.5s-8 -16.5 -14 -16.5h-148v-145
c0 -3.33301 -1.66699 -6.33301 -5 -9s-7.33301 -4.83398 -12 -6.50098s-9.66699 -3 -15 -4s-10.333 -1.5 -15 -1.5c-9.33301 0 -19.166 1.66699 -29.499 5s-15.5 8 -15.5 14v147h-145c-3.33301 0 -6.33301 1.66699 -9 5s-4.83398 7.33301 -6.50098 12s-3 9.66699 -4 15
s-1.5 10.333 -1.5 15c0 9.33301 1.66699 19.166 5 29.499s8 15.5 14 15.5h147v146z" />
    <glyph glyph-name="comma" unicode="," horiz-adv-x="180" 
d="M50 51c0 15.333 5.33203 28 15.999 38s24.334 15 41.001 15c35.333 0 53 -18 53 -54c0 -18 -4.83301 -35.833 -14.5 -53.5s-21 -33.5 -34 -47.5s-25.667 -25.333 -38 -34s-20.833 -13 -25.5 -13c-10 0 -15 4.33301 -15 13c0 4.66699 1.66699 9.66699 5 15l11 18.5
c4 7 7.66699 15 11 24s5 19.5 5 31.5c0 9.33301 -2.5 17 -7.5 23s-7.5 14 -7.5 24z" />
    <glyph glyph-name="hyphen" unicode="-" horiz-adv-x="435" 
d="M95 304c25.333 0 49.5 1.16797 72.5 3.50098s44.833 5 65.5 8s39.834 5.66699 57.501 8s34.167 3.5 49.5 3.5c8.66699 0 18 -3.5 28 -10.5s19.167 -15 27.5 -24s15.333 -18 21 -27s8.5 -15.5 8.5 -19.5s-1.83301 -7.66699 -5.5 -11s-6.83398 -5 -9.50098 -5
c-4 0 -11.833 3.33301 -23.5 10s-25.834 10 -42.501 10c-24 0 -46.333 -2.83301 -67 -8.5s-40.5 -11.667 -59.5 -18l-53.5 -18c-16.667 -5.66699 -33 -8.5 -49 -8.5c-13.333 0 -25.833 5.16699 -37.5 15.5s-22 22.166 -31 35.499s-16.167 26.333 -21.5 39s-8 21.667 -8 27
c0 4 1.33301 7.33301 4 10s5.66699 4 9 4s7 -1.33301 11 -4s8.5 -5.5 13.5 -8.5s10.833 -5.66699 17.5 -8s14.334 -3.5 23.001 -3.5z" />
    <glyph glyph-name="period" unicode="." horiz-adv-x="246" 
d="M59 44c0 8.66699 2.16699 17.832 6.5 27.499s10 18.5 17 26.5s15.333 14.667 25 20s19.5 8 29.5 8c15.333 0 27.833 -4.5 37.5 -13.5s14.5 -21.5 14.5 -37.5c0 -9.33301 -1.83301 -18.833 -5.5 -28.5s-9 -18.667 -16 -27s-15.333 -15.166 -25 -20.499
s-20.167 -8 -31.5 -8c-16 0 -28.667 4.83301 -38 14.5s-14 22.5 -14 38.5z" />
    <glyph glyph-name="slash" unicode="/" horiz-adv-x="363" 
d="M410 708c0 -4 -0.667969 -7.99805 -2.00098 -11.998s-2.66602 -7.66699 -3.99902 -11l-265 -677c-4 -9.33301 -11.333 -14 -22 -14h-42c-8.66699 0 -16.5 0.833008 -23.5 2.5s-10.5 6.16699 -10.5 13.5c0 3.33301 1.66699 9 5 17l264 688
c1.33301 3.33301 4 6.66602 8 9.99902s8.66699 5 14 5c8.66699 0 17.5 -0.666992 26.5 -2s17.333 -3 25 -5s14 -4.33301 19 -7s7.5 -5.33398 7.5 -8.00098z" />
    <glyph glyph-name="zero" unicode="0" horiz-adv-x="617" 
d="M451 705c22 0 42.5 -3.16309 61.5 -9.49609s35.5 -15.666 49.5 -27.999s25 -28 33 -47s12 -40.833 12 -65.5c0 -30 -5.33301 -64.833 -16 -104.5s-25.334 -80.5 -44.001 -122.5s-41.167 -83.333 -67.5 -124s-55 -76.834 -86 -108.501s-64.167 -57.334 -99.5 -77.001
s-71.333 -29.5 -108 -29.5c-23.333 0 -45.666 3.66699 -66.999 11s-40 18.666 -56 33.999s-28.833 34.5 -38.5 57.5s-14.5 50.167 -14.5 81.5c0 43.333 6.83301 86.666 20.5 129.999s31.834 84.666 54.501 123.999s49 76 79 110s61.333 63.333 94 88s65.667 44.167 99 58.5
s64.666 21.5 93.999 21.5zM427 635.004c-16.667 0 -35.3311 -6.66895 -55.998 -20.002s-41.334 -31.666 -62.001 -54.999s-40.834 -50.5 -60.501 -81.5s-37 -64.167 -52 -99.5s-27.167 -72 -36.5 -110s-14 -75.333 -14 -112c0 -33.333 7 -58.666 21 -75.999
s31.667 -26 53 -26c22 0 43.5 9.33301 64.5 28s41 43 60 73s36.5 63.833 52.5 101.5s29.667 75.334 41 113.001s20.333 73.667 27 108s10 63.5 10 87.5c0 23.333 -4.5 40.666 -13.5 51.999s-20.5 17 -34.5 17z" />
    <glyph glyph-name="one" unicode="1" horiz-adv-x="328" 
d="M66 446c-14 0 -26.5 4.5 -37.5 13.5s-16.5 21.167 -16.5 36.5c0 11.333 2.5 22.5 7.5 33.5s11.167 21.333 18.5 31s14.833 18.5 22.5 26.5s14.5 14.667 20.5 20c4 4 7.16699 6.66699 9.5 8s4.83301 2 7.5 2c6.66699 0 10 -3.33301 10 -10c0 -16 3.5 -29.167 10.5 -39.5
s17.5 -15.5 31.5 -15.5c8.66699 0 16.834 0.666992 24.501 2s14.834 3 21.501 5c7.33301 2 14.333 4.33301 21 7c12 24 25 45.333 39 64c12 16 25.833 30.833 41.5 44.5s32.167 20.5 49.5 20.5c13.333 0 25.166 -4.83301 35.499 -14.5s15.5 -21.167 15.5 -34.5
c0 -14 -7.33301 -31.333 -22 -52s-34.334 -40.667 -59.001 -60c-8 -6.66699 -18.5 -20.334 -31.5 -41.001s-27 -45.834 -42 -75.501s-30 -62.667 -45 -99s-28.5 -72.833 -40.5 -109.5s-21.833 -72.334 -29.5 -107.001s-11.5 -65.334 -11.5 -92.001c0 -6 -1 -10.833 -3 -14.5
s-7 -5.5 -15 -5.5c-6 0 -13.833 2.66699 -23.5 8s-19.167 12.166 -28.5 20.499s-17.333 17.333 -24 27s-10 18.834 -10 27.501c0 18.667 3.83301 41.334 11.5 68.001s17.334 54.834 29.001 84.501s24.334 59.167 38.001 88.5l38.5 80.5l30.5 60
c8.33301 15.667 13.166 24.834 14.499 27.501c-1.33301 -0.666992 -5.33301 -3 -12 -7s-15 -8.16699 -25 -12.5s-21.333 -8.16602 -34 -11.499s-25.334 -5 -38.001 -5z" />
    <glyph glyph-name="two" unicode="2" horiz-adv-x="560" 
d="M432 705c26 0 49.9971 -3.49902 71.9971 -10.499s41 -17.333 57 -31s28.5 -30 37.5 -49s13.5 -40.5 13.5 -64.5c0 -28.667 -9.5 -61.334 -28.5 -98.001s-44 -74.167 -75 -112.5s-66.167 -76.5 -105.5 -114.5s-79.333 -72.667 -120 -104
c19.333 -4.66699 38.5 -8.33398 57.5 -11.001s37.5 -4 55.5 -4c18.667 0 35.334 2.66699 50.001 8s27.167 11.333 37.5 18s18.833 12.667 25.5 18s11.667 8 15 8c8 0 12 -3.33301 12 -10c0 -2.66699 -2 -8.5 -6 -17.5s-9.66699 -19.333 -17 -31s-16 -24 -26 -37
s-21.333 -24.833 -34 -35.5s-26.167 -19.5 -40.5 -26.5s-29.166 -10.5 -44.499 -10.5c-24.667 0 -52.334 7 -83.001 21l-94 45c-32 -20.667 -61.833 -36.834 -89.5 -48.501s-51.167 -17.5 -70.5 -17.5c-33.333 0 -60 9 -80 27s-30 39 -30 63
c0 12.667 2.83301 25.167 8.5 37.5s13.667 23.166 24 32.499s22.5 16.833 36.5 22.5s29.667 8.5 47 8.5c19.333 0 42.5 -3.5 69.5 -10.5s55.833 -15.167 86.5 -24.5c32.667 27.333 65.334 59.166 98.001 95.499s62 73.833 88 112.5s47 77.334 63 116.001
s24 74.334 24 107.001c0 21.333 -7.33301 38.333 -22 51s-32.667 19 -54 19c-18.667 0 -39.167 -6.16699 -61.5 -18.5s-43.333 -28.666 -63 -48.999s-36 -43.166 -49 -68.499s-19.5 -51 -19.5 -77c0 -14 1.66699 -25.167 5 -33.5s7.5 -14.5 12.5 -18.5
s9.83301 -6.66699 14.5 -8s8.66699 -2 12 -2c8 0 12 -3.33301 12 -10c0 -3.33301 -1.83301 -7.33301 -5.5 -12s-8.83398 -9.5 -15.501 -14.5s-15.167 -9.16699 -25.5 -12.5s-21.833 -5 -34.5 -5c-13.333 0 -26.666 2.16699 -39.999 6.5s-25.5 10.666 -36.5 18.999
s-20 18.5 -27 30.5s-10.5 25.667 -10.5 41c0 42 11.833 80.833 35.5 116.5s53.834 66.334 90.501 92.001s77 45.667 121 60s86.333 21.5 127 21.5zM35.9971 114.001c-15.333 0 -26.667 -2.83301 -34 -8.5s-11 -11.834 -11 -18.501c0 -10 3.83301 -17.167 11.5 -21.5
s15.834 -6.5 24.501 -6.5c12.667 0 26.667 2.83301 42 8.5s31.666 13.834 48.999 24.501c-15.333 6.66699 -30 12 -44 16s-26.667 6 -38 6z" />
    <glyph glyph-name="three" unicode="3" horiz-adv-x="550" 
d="M412 606c12 18 24.9971 34.3301 38.9971 48.9971c12 12.667 25.5 24.167 40.5 34.5s30.833 15.5 47.5 15.5c15.333 0 27.333 -4.16699 36 -12.5s13 -19.5 13 -33.5c0 -20.667 -10.833 -39.5 -32.5 -56.5s-52.5 -30.167 -92.5 -39.5c-4 -4 -11.833 -11.333 -23.5 -22
l-35.5 -33l-46 -42c18.667 0 37.834 -2.66699 57.501 -8s37.667 -14.333 54 -27s29.666 -29 39.999 -49s15.5 -45 15.5 -75c0 -44 -10.5 -85.333 -31.5 -124s-48 -72.167 -81 -100.5s-69.833 -50.833 -110.5 -67.5s-81 -25 -121 -25c-29.333 0 -56.5 3 -81.5 9
s-46.667 14.5 -65 25.5s-32.666 24.333 -42.999 40s-15.5 32.834 -15.5 51.501c0 16 6.5 30.833 19.5 44.5s27.833 25.667 44.5 36s32.334 18.333 47.001 24s24 8.5 28 8.5c10 0 15 -3.66699 15 -11c0 -3.33301 -0.666992 -6 -2 -8s-3.33301 -4.66699 -6 -8
c-5.33301 -7.33301 -12.166 -18 -20.499 -32s-12.5 -28.667 -12.5 -44c0 -9.33301 2 -18.5 6 -27.5s9.66699 -17.167 17 -24.5s16.666 -13.333 27.999 -18s24.333 -7 39 -7c24 0 47.833 6.66699 71.5 20s45 32 64 56s34.333 52.667 46 86s17.5 70.333 17.5 111
c0 28 -6.5 50.333 -19.5 67s-31.833 25 -56.5 25c-6 -6.66699 -14 -14.5 -24 -23.5s-21.333 -17.5 -34 -25.5s-26 -14.833 -40 -20.5s-28 -8.5 -42 -8.5s-25.333 3.83301 -34 11.5s-13 17.834 -13 30.501c0 16.667 7.5 30.5 22.5 41.5s31.5 19.833 49.5 26.5
c21.333 7.33301 45.333 13.333 72 18l91 84c-15.333 0 -35.5 0.666992 -60.5 2s-49.5 4.33301 -73.5 9s-44.667 11.5 -62 20.5s-26 21.5 -26 37.5c0 12.667 6 24.5 18 35.5s26.167 20.333 42.5 28s32.666 13.667 48.999 18s28.5 6.5 36.5 6.5c10.667 0 16 -4.33301 16 -13
c0 -2.66699 -1.16699 -5.16699 -3.5 -7.5s-4.66602 -5 -6.99902 -8s-4.66602 -6.16699 -6.99902 -9.5s-3.5 -7.33301 -3.5 -12c0 -7.33301 4 -14 12 -20s18.833 -11.167 32.5 -15.5s29 -7.66602 46 -9.99902s34.5 -3.5 52.5 -3.5z" />
    <glyph glyph-name="four" unicode="4" horiz-adv-x="647" 
d="M355 705c24.667 0 46.4971 -6.16211 65.4971 -18.4951s28.5 -31.833 28.5 -58.5c0 -12 -2.33301 -25.333 -7 -40s-10.834 -29.834 -18.501 -45.501s-16.5 -31.334 -26.5 -47.001l-30 -45.5c-24 -34.667 -51 -70 -81 -106c10.667 -5.33301 22 -10.666 34 -15.999
c10.667 -4.66699 23 -9.5 37 -14.5s29.333 -9.16699 46 -12.5c14 34.667 29.5 70 46.5 106s34 69.833 51 101.5s33.833 60.167 50.5 85.5s32 45 46 59c9.33301 9.33301 20.5 17.333 33.5 24s26 12 39 16s24.833 7 35.5 9s18.334 3 23.001 3c6 0 9 -3.33301 9 -10
c0 -4 -6.16699 -12.667 -18.5 -26s-27.5 -34 -45.5 -62c-5.33301 -8 -14 -22 -26 -42s-25.5 -43.833 -40.5 -71.5l-47.5 -92c-16.667 -33.667 -32.334 -68.834 -47.001 -105.501c22 4 40 9.83301 54 17.5s25.333 14.834 34 21.501c6 4.66699 10.667 7 14 7
s6 -1.16699 8 -3.5s3 -4.5 3 -6.5c0 -4 -1.66699 -9 -5 -15c-5.33301 -8.66699 -12.666 -19.667 -21.999 -33s-20.5 -26.833 -33.5 -40.5s-27.333 -25.667 -43 -36s-32.167 -16.833 -49.5 -19.5c-9.33301 -32 -17 -63.167 -23 -93.5s-9 -59.166 -9 -86.499
c0 -12 -5.66699 -18 -17 -18c-6.66699 0 -15.167 2.16699 -25.5 6.5s-20.5 10.166 -30.5 17.499s-18.5 16.166 -25.5 26.499s-10.5 21.5 -10.5 33.5c0 11.333 3.33301 29.166 10 53.499s15.667 52.5 27 84.5c-16 8 -31.667 16.5 -47 25.5l-42.5 25.5
c-13 8 -24.5 14.667 -34.5 20s-17.333 8 -22 8c-11.333 -8 -23.666 -15 -36.999 -21c-11.333 -5.33301 -24.5 -10 -39.5 -14s-30.167 -6 -45.5 -6c-18 0 -34.333 6.16699 -49 18.5s-22 27.166 -22 44.499c0 10.667 2.66699 20.167 8 28.5s12 15.166 20 20.499
s17.167 9.33301 27.5 12s20.5 4 30.5 4c12 0 23.5 -0.666992 34.5 -2s20.833 -2.66602 29.5 -3.99902c10 -2 19.333 -4 28 -6c22 24 41.667 49.333 59 76c14.667 22 28.167 46.667 40.5 74s18.5 53.666 18.5 78.999c0 12 -3.66699 21.5 -11 28.5s-16 10.5 -26 10.5
c-7.33301 0 -14.666 -1.33301 -21.999 -4s-14.166 -5.5 -20.499 -8.5s-11.833 -5.83301 -16.5 -8.5s-8.33398 -4 -11.001 -4c-3.33301 0 -6.66602 1.66699 -9.99902 5s-5 6.66602 -5 9.99902c0 4.66699 4.83301 11.667 14.5 21s22 18.333 37 27s31.5 16.334 49.5 23.001
s35 10 51 10z" />
    <glyph glyph-name="five" unicode="5" horiz-adv-x="515" 
d="M150 49c24.667 0 48.4951 6.49609 71.4951 19.4961s43 31 60 54s30.667 49.833 41 80.5s15.5 64 15.5 100c0 24 -3.16699 43.167 -9.5 57.5s-14.166 25.166 -23.499 32.499s-19.5 12.166 -30.5 14.499s-21.5 3.5 -31.5 3.5c-5.33301 0 -10.333 -0.666992 -15 -2
s-8.66699 -2.66602 -12 -3.99902c-4 -2 -8 -3.66699 -12 -5c-10 -18 -21 -34 -33 -48c-10 -12 -21.333 -23 -34 -33s-25.667 -15 -39 -15c-14 0 -25.167 4.33301 -33.5 13s-12.5 19.334 -12.5 32.001c0 11.333 4.83301 22.5 14.5 33.5s20.167 20.5 31.5 28.5
c13.333 9.33301 28.666 18 45.999 26l66 137c-8.66699 8 -16.334 16 -23.001 24c-6 7.33301 -11.333 15 -16 23s-7 16.333 -7 25c0 19.333 6.33301 34 19 44s26 15 40 15c14.667 0 26.334 -4.16699 35.001 -12.5s15.334 -17.166 20.001 -26.499c5.33301 -12 9 -25 11 -39
c4 -1.33301 8.66699 -2.66602 14 -3.99902c4.66699 -1.33301 9.66699 -2.33301 15 -3s11 -1 17 -1c20 0 40.5 2.16699 61.5 6.5s41.333 10 61 17s38.167 15.167 55.5 24.5s32.333 19 45 29c8 6 14.667 9 20 9c3.33301 0 6.83301 -1.66699 10.5 -5s5.5 -6.66602 5.5 -9.99902
c0 -4 -1 -8 -3 -12s-4.33301 -8 -7 -12c-9.33301 -14.667 -20.5 -30.334 -33.5 -47.001s-27 -32 -42 -46s-30.167 -25.667 -45.5 -35s-29.666 -14 -42.999 -14c-12 0 -26.167 1.33301 -42.5 4s-32.166 5.66699 -47.499 9c-17.333 4 -35 8.66699 -53 14l-45 -101
c3.33301 1.33301 8 3 14 5c4.66699 1.33301 10.667 2.5 18 3.5s15.666 1.5 24.999 1.5c22.667 0 45.667 -3.16699 69 -9.5s44.333 -15.833 63 -28.5s34 -28.667 46 -48s18 -42 18 -68c0 -44 -10.5 -85.167 -31.5 -123.5s-48 -71.666 -81 -99.999
s-69.833 -50.833 -110.5 -67.5s-81 -25 -121 -25c-29.333 0 -56.5 3 -81.5 9s-46.667 14.5 -65 25.5s-32.666 24.333 -42.999 40s-15.5 32.834 -15.5 51.501c0 16 6.5 30.833 19.5 44.5s27.833 25.667 44.5 36s32.334 18.333 47.001 24s24 8.5 28 8.5
c10 0 15 -3.66699 15 -11c0 -3.33301 -0.666992 -6 -2 -8s-3.33301 -4.66699 -6 -8c-5.33301 -7.33301 -12.166 -18 -20.499 -32s-12.5 -28.667 -12.5 -44c0 -9.33301 2 -18.5 6 -27.5s10.167 -17.167 18.5 -24.5s18.833 -13.333 31.5 -18s27.667 -7 45 -7z" />
    <glyph glyph-name="six" unicode="6" horiz-adv-x="564" 
d="M468 705c37.333 0 63.3262 -6.16211 77.9932 -18.4951s22 -27.833 22 -46.5c0 -14.667 -4.16699 -28.834 -12.5 -42.501s-18.166 -26 -29.499 -37s-22.666 -19.833 -33.999 -26.5s-20 -10 -26 -10c-12.667 0 -19 5.66699 -19 17c0 3.33301 1.5 7.16602 4.5 11.499
s6.16699 9.66602 9.5 15.999s6.5 13.5 9.5 21.5s4.5 17.333 4.5 28c0 7.33301 -2.66699 13.666 -8 18.999s-12.333 8 -21 8c-18.667 0 -38.834 -6 -60.501 -18s-43.334 -28.333 -65.001 -49s-42.334 -45 -62.001 -73s-37.167 -58.333 -52.5 -91
s-27.666 -66.667 -36.999 -102s-14 -70.666 -14 -105.999c0 -26.667 2.83301 -49.834 8.5 -69.501s13.334 -35.834 23.001 -48.501s20.667 -22.167 33 -28.5s25.5 -9.5 39.5 -9.5c20.667 0 41.334 7.5 62.001 22.5s39.334 34.833 56.001 59.5s30.167 53.167 40.5 85.5
s15.5 66.166 15.5 101.499c0 21.333 -5.66699 36.666 -17 45.999s-23.666 14 -36.999 14c-23.333 0 -46.833 -6.66699 -70.5 -20s-44.167 -28.666 -61.5 -45.999c-2 -2 -4.33301 -4 -7 -6s-5 -3 -7 -3c-3.33301 0 -6.66602 1.16699 -9.99902 3.5s-5 5.83301 -5 10.5
c0 9.33301 6.66699 22.333 20 39s30.666 33 51.999 49s45.333 30 72 42s53.667 18 81 18c16.667 0 32.5 -2.33301 47.5 -7s28.167 -12 39.5 -22s20.333 -22.5 27 -37.5s10 -32.833 10 -53.5c0 -44 -10.167 -87.333 -30.5 -130s-46.5 -80.834 -78.5 -114.501
s-67.833 -60.667 -107.5 -81s-79.167 -30.5 -118.5 -30.5c-21.333 0 -44.666 3.66699 -69.999 11s-49.166 19.833 -71.499 37.5s-41 40.834 -56 69.501s-22.5 64.334 -22.5 107.001c0 40.667 7 81 21 121s32.833 78.167 56.5 114.5s50.834 70 81.501 101s63 57.833 97 80.5
s68.167 40.5 102.5 53.5s66.833 19.5 97.5 19.5z" />
    <glyph glyph-name="seven" unicode="7" horiz-adv-x="392" 
d="M150 705c8.66699 0 13.002 -3.66992 13.002 -11.0029c0 -4 -3 -9.66699 -9 -17s-9 -16.333 -9 -27c0 -20 14.167 -37.167 42.5 -51.5s75.166 -21.5 140.499 -21.5c28 36 54.167 64.667 78.5 86s49.166 32 74.499 32c14 0 25.667 -4.16699 35 -12.5s14 -19.833 14 -34.5
c0 -20.667 -12 -41.5 -36 -62.5s-59 -40.833 -105 -59.5c-23.333 -27.333 -47.666 -61.333 -72.999 -102s-48.666 -82.834 -69.999 -126.501s-39 -86.167 -53 -127.5s-21 -76 -21 -104c0 -13.333 1.33301 -25.666 4 -36.999s4 -19.666 4 -24.999c0 -9.33301 -5 -14 -15 -14
c-13.333 0 -27.5 2.5 -42.5 7.5s-28.833 12.333 -41.5 22s-23.167 21.167 -31.5 34.5s-12.5 28.333 -12.5 45c0 14.667 3.5 31.667 10.5 51s16.167 40 27.5 62s24.166 44.667 38.499 68s29.166 46 44.499 68c35.333 51.333 75.666 105.666 120.999 162.999
c-29.333 0 -59.666 0.5 -90.999 1.5s-60.333 4 -87 9s-48.5 12.833 -65.5 23.5s-25.5 25.667 -25.5 45c0 14.667 5.66699 28.834 17 42.501s24.666 25.834 39.999 36.501s30.833 19.334 46.5 26.001s27.834 10 36.501 10z" />
    <glyph glyph-name="eight" unicode="8" horiz-adv-x="508" 
d="M404 705c16.667 0 34.832 -2.17578 54.499 -6.50879s37.834 -10.666 54.501 -18.999s30.667 -18.666 42 -30.999s17 -26.5 17 -42.5c0 -17.333 -6.33301 -34.833 -19 -52.5s-29.5 -35.5 -50.5 -53.5s-45 -36.5 -72 -55.5l-83.5 -58.5l32 -34.5
c10.667 -11.667 20.167 -23.834 28.5 -36.501s15 -26.167 20 -40.5s7.5 -29.833 7.5 -46.5c0 -41.333 -7.16699 -76.833 -21.5 -106.5s-33.166 -54.334 -56.499 -74.001s-49.5 -34.167 -78.5 -43.5s-58.167 -14 -87.5 -14c-24.667 0 -50 3.16699 -76 9.5
s-49.5 15.333 -70.5 27s-38.333 26 -52 43s-20.5 36.167 -20.5 57.5c0 24 7.16699 46.833 21.5 68.5s33 42.5 56 62.5s49.167 39.667 78.5 59l90 58l-27.5 29c-9 9.33301 -17 18.833 -24 28.5s-12.667 19.834 -17 30.501s-6.5 22.334 -6.5 35.001
c0 25.333 8.66699 48.166 26 68.499s37.666 37.5 60.999 51.5s47.166 24.667 71.499 32s43.5 11 57.5 11c14.667 0 22 -4.66699 22 -14c0 -4.66699 -1.5 -8.16699 -4.5 -10.5s-7.83301 -5.16602 -14.5 -8.49902l-22.5 -11c-11 -5.33301 -22.333 -12.166 -34 -20.499
s-22 -18 -31 -29s-13.5 -22.833 -13.5 -35.5c0 -19.333 4 -37.166 12 -53.499s18.333 -32.166 31 -47.499c20.667 14 39.834 28.333 57.501 43s33.167 29.834 46.5 45.501s23.833 31.667 31.5 48s11.5 33.5 11.5 51.5c0 8.66699 -1.83301 16.334 -5.5 23.001
s-8.16699 12.334 -13.5 17.001s-10.833 8.5 -16.5 11.5l-14.5 7.5c-9.33301 4.66699 -14 9.33398 -14 14.001c0 8.66699 5.66699 13 17 13zM109.998 97.9912c0 -16.667 6.16895 -30.1611 18.502 -40.4941s26.5 -15.5 42.5 -15.5s31.667 4.33301 47 13s29 20.667 41 36
s21.667 33.166 29 53.499s11 42.166 11 65.499s-3.33301 44.166 -10 62.499s-15.334 35.166 -26.001 50.499c-21.333 -16.667 -41.333 -33.834 -60 -51.501s-34.834 -35.834 -48.501 -54.501s-24.5 -38 -32.5 -58s-12 -40.333 -12 -61z" />
    <glyph glyph-name="nine" unicode="9" horiz-adv-x="576" 
d="M441 705c24.667 0 46.999 -2.99805 66.999 -8.99805s37.333 -15.167 52 -27.5s26 -28.166 34 -47.499s12 -42.333 12 -69c0 -43.333 -7.33301 -87.166 -22 -131.499s-34.834 -87.333 -60.501 -129s-56 -80.834 -91 -117.501s-72.667 -68.667 -113 -96
s-82.5 -48.833 -126.5 -64.5s-88.333 -23.5 -133 -23.5c-14.667 0 -26.667 1.83301 -36 5.5s-14 9.16699 -14 16.5c0 4 1.83301 7.66699 5.5 11s7.83398 5 12.501 5c34.667 0 69.334 8 104.001 24s67.667 37.333 99 64s60.666 57.667 87.999 93s51 72.666 71 111.999
s35.667 79.166 47 119.499s17 79.166 17 116.499c0 27.333 -6.66699 48.166 -20 62.499s-29.666 21.5 -48.999 21.5c-22.667 0 -45.334 -7.33301 -68.001 -22s-43.167 -33.834 -61.5 -57.501s-33.166 -50.334 -44.499 -80.001s-17 -59.167 -17 -88.5
c0 -36.667 7.33301 -64.667 22 -84s32.667 -33.666 54 -42.999c6.66699 -3.33301 11.667 -6.16602 15 -8.49902s5 -6.16602 5 -11.499c0 -10 -11.333 -15 -34 -15c-18.667 0 -39.667 3.33301 -63 10s-45.333 17 -66 31s-38.167 32 -52.5 54s-21.5 48.333 -21.5 79
c0 33.333 10.333 67.833 31 103.5s48.667 68 84 97s76.5 52.833 123.5 71.5s96.833 28 149.5 28z" />
    <glyph glyph-name="colon" unicode=":" horiz-adv-x="244" 
d="M79 123c0 8.66699 1.99902 17.498 5.99902 26.498s9.16699 17.167 15.5 24.5s13.833 13.5 22.5 18.5s18 7.5 28 7.5c13.333 0 24 -4.66699 32 -14s12 -20.666 12 -33.999c0 -8.66699 -1.83301 -17.667 -5.5 -27s-8.66699 -17.666 -15 -24.999
s-14.166 -13.5 -23.499 -18.5s-19.333 -7.5 -30 -7.5c-12 0 -22 4.66699 -30 14s-12 21 -12 35zM128.999 290.998c0 8.66699 2.00098 17.498 6.00098 26.498s9.16699 17.167 15.5 24.5s13.833 13.5 22.5 18.5s18 7.5 28 7.5c13.333 0 24 -4.66699 32 -14
s12 -20.666 12 -33.999c0 -8.66699 -1.83301 -17.667 -5.5 -27s-8.83398 -17.666 -15.501 -24.999s-14.667 -13.5 -24 -18.5s-19.333 -7.5 -30 -7.5c-12 0 -21.833 4.66699 -29.5 14s-11.5 21 -11.5 35z" />
    <glyph glyph-name="semicolon" unicode=";" horiz-adv-x="235" 
d="M78 141c0 15.333 5.16699 28 15.5 38s23.833 15 40.5 15c35.333 0 53 -18 53 -54c0 -18 -4.83301 -35.833 -14.5 -53.5s-21 -33.5 -34 -47.5s-25.667 -25.333 -38 -34s-20.833 -13 -25.5 -13c-10 0 -15 4.33301 -15 13c0 4.66699 1.66699 9.66699 5 15l11 18.5
c4 7 7.66699 15 11 24s5 19.5 5 31.5c0 9.33301 -2.33301 17 -7 23s-7 14 -7 24zM119 311c0 8.66699 2.00098 17.498 6.00098 26.498s9.16699 17.167 15.5 24.5s13.833 13.5 22.5 18.5s18 7.5 28 7.5c13.333 0 24 -4.66699 32 -14s12 -20.666 12 -33.999
c0 -8.66699 -1.83301 -17.667 -5.5 -27s-8.83398 -17.666 -15.501 -24.999s-14.667 -13.5 -24 -18.5s-19.333 -7.5 -30 -7.5c-12 0 -21.833 4.66699 -29.5 14s-11.5 21 -11.5 35z" />
    <glyph glyph-name="less" unicode="&#x3c;" horiz-adv-x="312" 
d="M30 390l111.998 79.9971l41.5 29.5l37 25.5l27 18c7 4.66699 11.167 7 12.5 7c4 0 7.83301 -2.83301 11.5 -8.5s6.66699 -12.167 9 -19.5s4.33301 -14.666 6 -21.999s2.5 -12.666 2.5 -15.999c0 -4 -0.5 -7 -1.5 -9s-3.5 -4.66699 -7.5 -8l-170 -114l168 -110
c6 -4 9 -10.333 9 -19c0 -2 -0.5 -6.5 -1.5 -13.5s-2.66699 -14.333 -5 -22s-5.16602 -14.667 -8.49902 -21s-7.33301 -9.5 -12 -9.5c-1.33301 0 -5.5 2.16699 -12.5 6.5s-16.167 10.333 -27.5 18l-38 25.5l-43 29l-116 80c-5.33301 4.66699 -9.16602 10.334 -11.499 17.001
s-3.5 12.667 -3.5 18c0 4 1.33301 9.33301 4 16s8.66699 14 18 22z" />
    <glyph glyph-name="equal" unicode="=" horiz-adv-x="455" 
d="M35 233c-10 0 -14.999 5.33203 -14.999 15.999c0 3.33301 1.33301 9.16602 4 17.499s6.16699 16.833 10.5 25.5s9 16.334 14 23.001s9.5 10 13.5 10h335c7.33301 0 12.166 -1 14.499 -3s3.5 -5.66699 3.5 -11c0 -3.33301 -1.5 -9.16602 -4.5 -17.499
s-6.83301 -17 -11.5 -26s-9.66699 -17 -15 -24s-10 -10.5 -14 -10.5h-335zM55.001 376.999c-10 0 -14.999 5.33203 -14.999 15.999c0 3.33301 1.33301 9.16602 4 17.499s6.16699 16.833 10.5 25.5s9 16.334 14 23.001s9.5 10 13.5 10h335c7.33301 0 12.166 -1 14.499 -3
s3.5 -5.66699 3.5 -11c0 -3.33301 -1.5 -9.16602 -4.5 -17.499s-6.83301 -17 -11.5 -26s-9.66699 -17 -15 -24s-10 -10.5 -14 -10.5h-335z" />
    <glyph glyph-name="greater" unicode="&#x3e;" horiz-adv-x="332" 
d="M289 400c9.33301 -8 15.3301 -15.3301 17.9971 -21.9971s4 -12 4 -16c0 -5.33301 -1.16699 -11.333 -3.5 -18s-6.16602 -12.334 -11.499 -17.001l-116 -80l-43 -29l-38 -25.5c-11.333 -7.66699 -20.666 -13.667 -27.999 -18s-11.333 -6.5 -12 -6.5
c-4.66699 0 -8.66699 3.16699 -12 9.5s-6.16602 13.333 -8.49902 21s-4 15 -5 22s-1.5 11.5 -1.5 13.5c0 8.66699 3 15 9 19l168 110l-170 114c-4 3.33301 -6.5 6 -7.5 8s-1.5 5 -1.5 9c0 3.33301 0.833008 8.66602 2.5 15.999s3.66699 14.666 6 21.999
s5.33301 13.833 9 19.5s7.5 8.5 11.5 8.5c0.666992 0 4.5 -2.33301 11.5 -7l27 -18l37.5 -25.5l42 -29.5z" />
    <glyph glyph-name="question" unicode="?" horiz-adv-x="436" 
d="M279 639c-12.667 0 -25 -2.5 -37 -7.5s-22.833 -12.167 -32.5 -21.5s-17.334 -20.5 -23.001 -33.5s-8.5 -27.833 -8.5 -44.5c0 -12 1.16699 -22.333 3.5 -31s5 -16 8 -22s5.66699 -11 8 -15s3.5 -7.33301 3.5 -10c0 -6.66699 -5.66699 -10 -17 -10
c-12.667 0 -26.334 2.83301 -41.001 8.5s-28.5 13.334 -41.5 23.001s-23.833 21.334 -32.5 35.001s-13 28.5 -13 44.5c0 21.333 5.83301 40.833 17.5 58.5s27.5 33 47.5 46s43.5 23 70.5 30s55.5 10.5 85.5 10.5c66 0 117.333 -13.333 154 -40s55 -65.667 55 -117
c0 -26 -5.83301 -49.833 -17.5 -71.5s-26.5 -42 -44.5 -61s-38 -37 -60 -54l-63.5 -49c-20.333 -15.667 -38.833 -31.334 -55.5 -47.001s-28.334 -31.834 -35.001 -48.501c-3.33301 -8 -7.16602 -13.833 -11.499 -17.5s-10.166 -6.16699 -17.499 -7.5
c-14 -2 -26.167 -5 -36.5 -9s-18.5 -6 -24.5 -6c-3.33301 0 -6.66602 1.33301 -9.99902 4s-5 6.66699 -5 12c0 16 5.83301 33 17.5 51s26.167 36.833 43.5 56.5s36.333 40.167 57 61.5s39.667 43.5 57 66.5s31.833 47 43.5 72s17.5 51.167 17.5 78.5
c0 21.333 -6.33301 37.5 -19 48.5s-27 16.5 -43 16.5zM62 44c0 8.66699 2.16699 17.832 6.5 27.499s10 18.5 17 26.5s15.333 14.667 25 20s19.5 8 29.5 8c15.333 0 27.833 -4.5 37.5 -13.5s14.5 -21.5 14.5 -37.5c0 -9.33301 -1.83301 -18.833 -5.5 -28.5
s-9 -18.667 -16 -27s-15.333 -15.166 -25 -20.499s-20.167 -8 -31.5 -8c-16 0 -28.667 4.83301 -38 14.5s-14 22.5 -14 38.5z" />
    <glyph glyph-name="at" unicode="@" horiz-adv-x="687" 
d="M520 49c13.333 0 25.665 4.99902 36.998 14.999s21.166 23 29.499 39s14.833 34.167 19.5 54.5s7 40.833 7 61.5c0 25.333 -5.16699 48.333 -15.5 69s-24.666 38.167 -42.999 52.5s-39.833 25.333 -64.5 33s-51 11.5 -79 11.5c-48 0 -90.5 -8.33301 -127.5 -25
s-68 -38.5 -93 -65.5s-43.833 -57.667 -56.5 -92s-19 -68.833 -19 -103.5c0 -46 14.5 -80.333 43.5 -103s68.167 -34 117.5 -34c10.667 0 20.834 1.16699 30.501 3.5s18.167 5 25.5 8s13.5 5.83301 18.5 8.5l9.5 5.00098s3.5 1.5 6.5 2.5s5.16699 1.5 6.5 1.5
c5.33301 0 8 -4 8 -12c0 -2.66699 -3.5 -8.16699 -10.5 -16.5s-16.5 -17 -28.5 -26s-25.833 -17 -41.5 -24s-32.167 -10.5 -49.5 -10.5c-28 0 -54.667 4.16699 -80 12.5s-47.666 20.666 -66.999 36.999s-34.833 36.666 -46.5 60.999s-17.5 52.166 -17.5 83.499
c0 44.667 9 87.834 27 129.501s43.333 78.667 76 111s71.667 58.166 117 77.499s95.666 29 150.999 29c36.667 0 71 -5.5 103 -16.5s59.667 -26.5 83 -46.5s41.833 -43.833 55.5 -71.5s20.5 -58.5 20.5 -92.5c0 -26 -4.16699 -52.5 -12.5 -79.5s-20.5 -51.333 -36.5 -73
s-35.167 -39.334 -57.5 -53.001s-47.5 -20.5 -75.5 -20.5c-49.333 0 -77.333 25 -84 75c-11.333 -14 -23.666 -26.667 -36.999 -38c-11.333 -9.33301 -24.5 -17.833 -39.5 -25.5s-30.833 -11.5 -47.5 -11.5c-24 0 -44.667 8.5 -62 25.5s-26 38.833 -26 65.5
c0 32 6 63.5 18 94.5s27.5 58.833 46.5 83.5s40.667 44.667 65 60s48.5 23 72.5 23c17.333 0 32.333 -2.16699 45 -6.5s22.667 -9.16602 30 -14.499c8.66699 -6 15.667 -12.667 21 -20c6.66699 0 13.667 -0.666992 21 -2s14 -3.66602 20 -6.99902s11 -7.66602 15 -12.999
s6 -11.666 6 -18.999c0 -6.66699 -2.83301 -17.5 -8.5 -32.5l-18 -50c-6.33301 -18.333 -12.333 -37 -18 -56s-8.5 -35.833 -8.5 -50.5s6 -22 18 -22zM446.999 252.999c0 13.333 -3 23.001 -9 29.001s-13.667 9 -23 9c-12.667 0 -25.667 -6.66699 -39 -20
s-25.5 -29.833 -36.5 -49.5s-20 -40.834 -27 -63.501s-10.5 -43.334 -10.5 -62.001c0 -26 8.66699 -39 26 -39c10.667 0 22.834 7 36.501 21s26.667 31.167 39 51.5s22.666 41.833 30.999 64.5s12.5 42.334 12.5 59.001z" />
    <glyph glyph-name="A" unicode="A" horiz-adv-x="976" 
d="M836 -10c-18.667 0 -36.668 3.33594 -54.001 10.0029s-32.5 16 -45.5 28s-23.333 26.5 -31 43.5s-11.5 35.833 -11.5 56.5c0 39.333 5 81.666 15 126.999c-20.667 10 -42 21.333 -64 34l-70 39l-78 -139.5c-23.333 -41.667 -47.333 -77.167 -72 -106.5
s-51.334 -52 -80.001 -68s-62.667 -24 -102 -24c-29.333 0 -58.5 7.16699 -87.5 21.5s-55 33.666 -78 57.999s-41.667 52.333 -56 84s-21.5 64.834 -21.5 99.501c0 32.667 5.83301 63.167 17.5 91.5s28.334 53 50.001 74s47.834 37.5 78.501 49.5s65 18 103 18
c46 0 91.333 -6.33301 136 -19s88.667 -27.667 132 -45c30.667 50 59 94 85 132s51.167 69.5 75.5 94.5s48.333 43.833 72 56.5s48.5 19 74.5 19c20.667 0 38.334 -4 53.001 -12s23.667 -13.667 27 -17c14 8.66699 28.333 14.5 43 17.5s27.334 4.5 38.001 4.5
c20 0 30 -4.66699 30 -14c0 -3.33301 -1.83301 -7.16602 -5.5 -11.499l-18.5 -21.5c-6.66699 -8 -15.834 -23.833 -27.501 -47.5s-24.167 -51.834 -37.5 -84.501s-27 -68.334 -41 -107.001s-26.667 -77.334 -38 -116.001h12c9.33301 0 18.166 1.33301 26.499 4
s16 5.5 23 8.5s13 5.83301 18 8.5s9.16699 4 12.5 4c2 0 4 -1 6 -3s3 -5 3 -9c0 -4.66699 -3.5 -12 -10.5 -22s-16.167 -20.333 -27.5 -31s-24.333 -20.667 -39 -30s-30 -15.333 -46 -18c-4 -19.333 -7.16699 -37.833 -9.5 -55.5s-3.5 -33.834 -3.5 -48.501
c0 -23.333 5.66699 -40.166 17 -50.499s24.666 -15.5 39.999 -15.5c13.333 0 26.5 4.33301 39.5 13s24.5 18.667 34.5 30c12 12 23 26.333 33 43c0.666992 2 2.33398 4.33301 5.00098 7c1.33301 1.33301 3.33301 2.83301 6 4.5s5.66699 2.5 9 2.5
c5.33301 0 10.166 -2 14.499 -6s6.5 -8.66699 6.5 -14c0 -2.66699 -0.5 -5.16699 -1.5 -7.5s-2.16699 -4.83301 -3.5 -7.5s-2.66602 -5.66699 -3.99902 -9c-14.667 -23.333 -31 -44 -49 -62c-15.333 -15.333 -33.5 -29.333 -54.5 -42s-43.833 -19 -68.5 -19z
M219.999 91.0029c24 0 46.0029 5.66602 66.0029 16.999s40.167 28.5 60.5 51.5s41.666 52 63.999 87l75.5 122.5c-25.333 10 -51.5 18.167 -78.5 24.5s-54.833 9.5 -83.5 9.5c-72 0 -128.333 -17.167 -169 -51.5s-61 -80.166 -61 -137.499c0 -18 3.33301 -34.667 10 -50
s15.667 -28.333 27 -39s24.666 -19 39.999 -25s31.666 -9 48.999 -9zM607.002 384.002l62.499 -24.998c20.333 -8 40.5 -15 60.5 -21c17.333 59.333 38.5 117.166 63.5 173.499s49.833 106.833 74.5 151.5c-3.33301 1.33301 -6.5 2.33301 -9.5 3s-7.16699 1 -12.5 1
c-18 0 -35.167 -5.33301 -51.5 -16s-33.666 -27.334 -51.999 -50.001s-38.333 -52 -60 -88z" />
    <glyph glyph-name="B" unicode="B" horiz-adv-x="848" 
d="M622 379c17.333 10 33 22.3242 47 36.9912c11.333 12.667 22 28 32 46s15 39.667 15 65c0 22.667 -5 42.667 -15 60s-23.333 32 -40 44s-35.667 21 -57 27s-43.333 9 -66 9c-46 0 -87.167 -6 -123.5 -18s-67 -28.167 -92 -48.5s-44 -44.166 -57 -71.499
s-19.5 -56 -19.5 -86c0 -15.333 2.5 -28.166 7.5 -38.499s10.667 -19 17 -26s12 -12.667 17 -17s7.5 -8.16602 7.5 -11.499c0 -12.667 -7 -19 -21 -19c-13.333 0 -29.166 3 -47.499 9s-35.666 14.5 -51.999 25.5s-30.333 24.333 -42 40s-17.5 33.5 -17.5 53.5
c0 37.333 12.167 72.166 36.5 104.499s56.333 60.333 96 84s85 42.334 136 56.001s103.167 20.5 156.5 20.5c38 0 74.5 -4 109.5 -12s66 -20.167 93 -36.5s48.667 -36.666 65 -60.999s24.5 -52.5 24.5 -84.5c0 -19.333 -3.5 -37.333 -10.5 -54s-15.667 -31.834 -26 -45.501
s-21.5 -25.667 -33.5 -36s-23.333 -19.166 -34 -26.499s-19.834 -13 -27.501 -17s-12.167 -6 -13.5 -6c0.666992 0 7 -3.16699 19 -9.5s25 -16 39 -29s26.833 -29.833 38.5 -50.5s17.5 -46 17.5 -76c0 -33.333 -7 -62 -21 -86s-32 -43.667 -54 -59
s-46.5 -26.666 -73.5 -33.999s-53.5 -11 -79.5 -11c-45.333 0 -88.333 8 -129 24s-79.334 33.667 -116.001 53c-22.667 -25.333 -47.334 -44.5 -74.001 -57.5s-58 -19.5 -94 -19.5c-20.667 0 -40.5 2.66699 -59.5 8s-36 13 -51 23s-27 22 -36 36s-13.5 29.667 -13.5 47
c0 18.667 4 35.334 12 50.001s18.167 27 30.5 37s26 17.667 41 23s29.833 8 44.5 8c26 0 51.5 -4.33301 76.5 -13s49.833 -19.334 74.5 -32.001l11 19c9.33301 16.667 19 37.167 29 61.5l30.5 77l30.5 82c10 27.667 19.667 53 29 76s18.333 42.667 27 59
s16.334 26.5 23.001 30.5c24 16 47.5 26.833 70.5 32.5s40.167 8.5 51.5 8.5c7.33301 0 12 -1.33301 14 -4s3 -6 3 -10s-6.66699 -13.667 -20 -29s-26 -36.333 -38 -63c-3.33301 -7.33301 -9.5 -24.166 -18.5 -50.499s-20.167 -56.833 -33.5 -91.5s-28 -70.834 -44 -108.501
s-32.333 -71.167 -49 -100.5l-12 -21l-12 -20c28 -15.333 55.333 -28.666 82 -39.999s54 -17 82 -17c18.667 0 36.334 3.16699 53.001 9.5s31.5 15.5 44.5 27.5s23.333 26.5 31 43.5s11.5 36.167 11.5 57.5c0 32.667 -6.83301 58.5 -20.5 77.5s-27.5 29.167 -41.5 30.5
c-5.33301 -2 -11 -4 -17 -6c-5.33301 -1.33301 -11 -2.66602 -17 -3.99902s-11.667 -2 -17 -2c-14.667 0 -27.167 3.83301 -37.5 11.5s-15.5 18.167 -15.5 31.5c0 14.667 5.16699 25.834 15.5 33.501s22.166 11.5 35.499 11.5c7.33301 0 14.5 -0.666992 21.5 -2
s13.5 -2.66602 19.5 -3.99902c7.33301 -2 14.333 -3.66699 21 -5zM135 145.991c-15.333 0 -28.001 -5 -38.001 -15s-15 -21.667 -15 -35s5.83301 -24.166 17.5 -32.499s25.5 -12.5 41.5 -12.5c20.667 0 38.5 5.16699 53.5 15.5s30.167 26.166 45.5 47.499
c-19.333 9.33301 -37.666 17 -54.999 23s-34 9 -50 9z" />
    <glyph glyph-name="C" unicode="C" horiz-adv-x="659" 
d="M433 -29c-31.333 0 -62.3359 4.83301 -93.0029 14.5s-58.167 24.334 -82.5 44.001s-44.166 44.667 -59.499 75s-23 66.5 -23 108.5c0 18.667 1.33301 37.334 4 56.001s6.66699 37.334 12 56.001c-30 7.33301 -56.667 16.833 -80 28.5s-43.333 24.667 -60 39
s-29.334 29.5 -38.001 45.5s-13 32 -13 48c0 28 8.5 54 25.5 78s37 44.667 60 62s46.5 31 70.5 41s43 15 57 15c11.333 0 17 -3.66699 17 -11c0 -4.66699 -1.66699 -8.33398 -5 -11.001l-14 -11c-7.33301 -5.33301 -15.5 -11.833 -24.5 -19.5s-17.5 -17 -25.5 -28
s-14.667 -24 -20 -39s-8 -32.833 -8 -53.5c0 -22 5.5 -43.833 16.5 -65.5s32.167 -39.167 63.5 -52.5c18.667 45.333 42.834 88.166 72.501 128.499s61.667 75.666 96 105.999s69.666 54.333 105.999 72s70.5 26.5 102.5 26.5c20 0 38.833 -4.66699 56.5 -14
s32.834 -21 45.501 -35s22.667 -29.167 30 -45.5s11 -31.5 11 -45.5c0 -26 -9.5 -54.667 -28.5 -86s-46 -60.666 -81 -87.999s-77.333 -50.333 -127 -69s-105.5 -28.667 -167.5 -30c-8 -34 -12 -67.667 -12 -101c0 -64 12.833 -109.833 38.5 -137.5s62.5 -41.5 110.5 -41.5
c18 0 36 3 54 9s35.5 14 52.5 24s32.833 21.833 47.5 35.5s27.667 28.167 39 43.5c0.666992 2 2.33398 4.33301 5.00098 7c1.33301 1.33301 3.33301 2.83301 6 4.5s5.66699 2.5 9 2.5c6 0 11 -2 15 -6s6 -8.66699 6 -14c0 -2.66699 -0.5 -5.16699 -1.5 -7.5
s-2.16699 -4.83301 -3.5 -7.5s-2.66602 -5.66699 -3.99902 -9c-11.333 -17.333 -25.333 -34.333 -42 -51s-36 -31.834 -58 -45.501s-46.167 -24.667 -72.5 -33s-54.833 -12.5 -85.5 -12.5zM600.997 656c-22 0 -44.9961 -7.66895 -68.9961 -23.002
s-47.5 -36.166 -70.5 -62.499s-44.5 -56.666 -64.5 -90.999s-36.667 -70.5 -50 -108.5c45.333 1.33301 86.166 10.5 122.499 27.5s67.166 37.833 92.499 62.5s44.666 51 57.999 79s20 54 20 78c0 11.333 -3.33301 20.5 -10 27.5s-16.334 10.5 -29.001 10.5z" />
    <glyph glyph-name="D" unicode="D" horiz-adv-x="928" 
d="M530 77c36 0 69.0029 10.165 99.0029 30.498s55.833 46.833 77.5 79.5s38.5 69.834 50.5 111.501s18 84.167 18 127.5c0 42 -6.66699 78.167 -20 108.5s-31 55.333 -53 75s-47.333 34.167 -76 43.5s-58 14 -88 14c-46 0 -87.167 -6 -123.5 -18s-67 -28.167 -92 -48.5
s-44 -44.166 -57 -71.499s-19.5 -56 -19.5 -86c0 -15.333 2.5 -28.166 7.5 -38.499s10.667 -19 17 -26s12 -12.667 17 -17s7.5 -8.16602 7.5 -11.499c0 -12.667 -7 -19 -21 -19c-13.333 0 -29.166 3 -47.499 9s-35.666 14.667 -51.999 26s-30.333 24.833 -42 40.5
s-17.5 33.5 -17.5 53.5c0 37.333 12.167 72 36.5 104s56.333 59.833 96 83.5s85 42.334 136 56.001s103.167 20.5 156.5 20.5c38 0 78.333 -6.33301 121 -19s82 -32.334 118 -59.001s65.833 -60.834 89.5 -102.501s35.5 -91.5 35.5 -149.5c0 -50.667 -8 -100.167 -24 -148.5
s-38.333 -91.5 -67 -129.5s-62.667 -68.5 -102 -91.5s-82.333 -34.5 -129 -34.5c-43.333 0 -84.833 7.33301 -124.5 22s-77.834 31.334 -114.501 50.001c-25.333 -24.667 -53.333 -42.834 -84 -54.501s-63.667 -17.5 -99 -17.5c-20.667 0 -40.5 2.66699 -59.5 8
s-36 13 -51 23s-27 22 -36 36s-13.5 29.667 -13.5 47c0 18.667 4 35.334 12 50.001s18.167 27 30.5 37s26 17.667 41 23s29.833 8 44.5 8c30 0 58.667 -5.16699 86 -15.5s54.666 -22.5 81.999 -36.5c2.66699 4 5 8.16699 7 12.5l6 13.5c8 18 16.667 39.5 26 64.5l28.5 78
l28.5 81.5c9.33301 27.333 18.666 52.166 27.999 74.499s18.166 41.5 26.499 57.5s15.833 26 22.5 30c24 16 47.5 26.833 70.5 32.5s40.167 8.5 51.5 8.5c6.66699 0 11 -1.33301 13 -4s3 -6 3 -10s-6.5 -13.667 -19.5 -29s-25.5 -36.333 -37.5 -63
c-3.33301 -7.33301 -9.33301 -23.333 -18 -48l-31.5 -88l-40.5 -108c-14.667 -38 -29.667 -73.667 -45 -107c-4 -8.66699 -8.16699 -16.834 -12.5 -24.501s-8.83301 -15.167 -13.5 -22.5c23.333 -12 46.666 -22 69.999 -30s47 -12 71 -12zM135.003 145.998
c-15.333 0 -28 -5.00098 -38 -15.001s-15 -21.667 -15 -35s5.83301 -24.166 17.5 -32.499s25.5 -12.5 41.5 -12.5c22 0 42.333 4.5 61 13.5s36.667 23.5 54 43.5c-22.667 11.333 -44 20.5 -64 27.5s-39 10.5 -57 10.5z" />
    <glyph glyph-name="E" unicode="E" horiz-adv-x="476" 
d="M258 -29c-28 0 -55.999 3.32617 -83.999 9.99316s-53.167 17.334 -75.5 32.001s-40.666 33.5 -54.999 56.5s-21.5 50.5 -21.5 82.5c0 28.667 5 54.334 15 77.001s22.5 43 37.5 61s31.333 33.333 49 46s34.167 23.334 49.5 32.001s28.5 15.167 39.5 19.5
s17.5 6.83301 19.5 7.5c-0.666992 0 -4.33398 1.83301 -11.001 5.5s-14 9.33398 -22 17.001s-15.667 17.5 -23 29.5s-12.333 26.667 -15 44c-50.667 4.66699 -88.5 14.667 -113.5 30s-37.5 35 -37.5 59c0 16.667 4.83301 33 14.5 49s21.167 30.333 34.5 43
s26.833 23 40.5 31s24.167 12 31.5 12c3.33301 0 5.66602 -1 6.99902 -3s2 -4 2 -6c0 -3.33301 -3 -9.16602 -9 -17.499s-9 -18.5 -9 -30.5c0 -16 4.66699 -30.833 14 -44.5s22.333 -25.834 39 -36.501c10.667 20.667 25.834 40 45.501 58s41.667 33.667 66 47
s50.166 23.666 77.499 30.999s54 11 80 11c18 0 34.833 -2.16699 50.5 -6.5s29.334 -10.333 41.001 -18s20.834 -17 27.501 -28s10 -23.167 10 -36.5c0 -17.333 -6.66699 -34 -20 -50s-32.5 -30.5 -57.5 -43.5s-55.167 -24 -90.5 -33s-75 -14.833 -119 -17.5
c0.666992 -11.333 2.16699 -21.5 4.5 -30.5s5.16602 -16.833 8.49902 -23.5c3.33301 -7.33301 7 -14.333 11 -21c5.33301 0.666992 11.666 1.66699 18.999 3c6 0.666992 13.167 1.33398 21.5 2.00098s17.833 1 28.5 1c39.333 0 59 -11.667 59 -35
c0 -10 -5.83301 -20.167 -17.5 -30.5s-27.167 -15.5 -46.5 -15.5c-12 0 -23 0.833008 -33 2.5s-18.667 3.83398 -26 6.50098c-8 2.66699 -15.333 6 -22 10c-24.667 -14.667 -46.667 -32 -66 -52c-16.667 -17.333 -31.834 -38.666 -45.501 -63.999s-20.5 -55 -20.5 -89
c0 -42 11.333 -73.167 34 -93.5s55 -30.5 97 -30.5c36 0 70 10 102 30s59.333 47.333 82 82c0.666992 2 2.33398 4.33301 5.00098 7c1.33301 1.33301 3.33301 2.83301 6 4.5s5.66699 2.5 9 2.5c6 0 11 -2 15 -6s6 -8.66699 6 -14c0 -3.33301 -1.33301 -8.33301 -4 -15l-4 -8
c-10.667 -18 -24 -35.5 -40 -52.5s-34.5 -32.167 -55.5 -45.5s-44.5 -24.166 -70.5 -32.499s-54.333 -12.5 -85 -12.5zM441.001 680.993c-15.333 0 -30.668 -3.33398 -46.001 -10.001s-29.666 -15.834 -42.999 -27.501s-25.333 -25.667 -36 -42s-18.667 -34.166 -24 -53.499
c28.667 0 55.167 2.33301 79.5 7s45.5 11.334 63.5 20.001s32 19 42 31s15 25.333 15 40c0 10.667 -5 19.167 -15 25.5s-22 9.5 -36 9.5z" />
    <glyph glyph-name="F" unicode="F" horiz-adv-x="665" 
d="M574 285c0 13.333 -3.83008 23.165 -11.4971 29.498s-20.834 10.166 -39.501 11.499c-4.66699 -35.333 -12.5 -72.666 -23.5 -111.999s-27.167 -75.666 -48.5 -108.999s-49.166 -60.833 -83.499 -82.5s-76.833 -32.5 -127.5 -32.5c-34.667 0 -66.667 6.16699 -96 18.5
s-54.5 27.5 -75.5 45.5s-37.333 37.5 -49 58.5s-17.5 40.167 -17.5 57.5s6.33301 33.833 19 49.5s28.167 29.5 46.5 41.5s37.5 21.667 57.5 29s37.333 11 52 11c16.667 0 25 -5.66699 25 -17c0 -4.66699 -1.16699 -8.16699 -3.5 -10.5s-7.16602 -6.16602 -14.499 -11.499
c-8 -5.33301 -16.167 -12 -24.5 -20s-15.666 -17 -21.999 -27s-11.666 -20.5 -15.999 -31.5s-6.5 -22.5 -6.5 -34.5c0 -12.667 2.33301 -24.667 7 -36s11.167 -21.166 19.5 -29.499s18.166 -15 29.499 -20s23.666 -7.5 36.999 -7.5c28 0 52.5 7.66699 73.5 23
s39 35.5 54 60.5s27.667 53.167 38 84.5s19.166 62.666 26.499 93.999c-15.333 -1.33301 -29.333 -2.83301 -42 -4.5s-22.334 -2.5 -29.001 -2.5c-23.333 0 -41.833 5 -55.5 15s-20.5 22.667 -20.5 38c0 12.667 4.16699 24.667 12.5 36s18 21.166 29 29.499
s21.833 14.833 32.5 19.5s18.667 7 24 7c6.66699 0 10 -3.33301 10 -10c0 -3.33301 -2.5 -8.66602 -7.5 -15.999s-7.5 -16.666 -7.5 -27.999s6.66699 -19.333 20 -24s28 -7 44 -7h1l14 85c5.33301 33.333 12 60.666 20 81.999s15.667 38.333 23 51c8 14.667 16.667 26 26 34
c-15.333 8 -37.833 15 -67.5 21s-64.5 9 -104.5 9c-30 0 -54.5 -6.83301 -73.5 -20.5s-28.5 -32.167 -28.5 -55.5c0 -15.333 2.66699 -28.166 8 -38.499s11 -19 17 -26s11.667 -12.833 17 -17.5s8 -8.66699 8 -12c0 -12.667 -7 -19 -21 -19c-13.333 0 -28.666 3 -45.999 9
s-33.666 14.667 -48.999 26s-28.333 24.833 -39 40.5s-16 33.5 -16 53.5c0 26 6.66699 47.333 20 64s29.833 30 49.5 40s41 17 64 21s44.167 6 63.5 6c34 0 65.5 -2.83301 94.5 -8.5s54.167 -11.834 75.5 -18.501c25.333 -7.33301 48.666 -16 69.999 -26
c11.333 8 23 15.333 35 22c10.667 5.33301 22.834 10.333 36.501 15s28.167 7 43.5 7c16.667 0 29.667 -4.33301 39 -13s14 -19 14 -31c0 -8 -2.5 -15.667 -7.5 -23s-11.333 -13.833 -19 -19.5s-16.334 -10.167 -26.001 -13.5s-19.167 -5 -28.5 -5h-12.5
c-4.33301 0 -8.5 0.333008 -12.5 1c-2.66699 -1.33301 -7.66699 -4.16602 -15 -8.49902s-15 -12.333 -23 -24s-15 -28 -21 -49s-9 -48.833 -9 -83.5c0 -8 -0.166992 -17.5 -0.5 -28.5s-0.833008 -23.167 -1.5 -36.5c15.333 2.66699 30.666 5 45.999 7s32.666 3 51.999 3
c14.667 0 28 -1.83301 40 -5.5s18 -13.834 18 -30.501c0 -7.33301 -3.83301 -15.666 -11.5 -24.999s-16.667 -18.333 -27 -27s-20.833 -15.834 -31.5 -21.501s-19.334 -8.5 -26.001 -8.5c-9.33301 0 -14 4 -14 12z" />
    <glyph glyph-name="G" unicode="G" horiz-adv-x="705" 
d="M616 241c-7.33301 -71.333 -18.3398 -136.33 -33.0068 -194.997c30 12 54.667 26.167 74 42.5s35.333 34.5 48 54.5c0.666992 2 2.33398 4.33301 5.00098 7c1.33301 1.33301 3.33301 2.83301 6 4.5s5.66699 2.5 9 2.5c6 0 11 -2 15 -6s6 -8.66699 6 -14
c0 -4 -1.33301 -8.66699 -4 -14l-4 -8c-16 -25.333 -37.5 -48.5 -64.5 -69.5s-63.167 -40.5 -108.5 -58.5c-14 -42 -30.5 -79.833 -49.5 -113.5s-39.667 -62.167 -62 -85.5s-46.166 -41.333 -71.499 -54s-51.666 -19 -78.999 -19c-26 0 -49.667 4 -71 12
s-39.666 18.5 -54.999 31.5s-27.166 27.5 -35.499 43.5s-12.5 32 -12.5 48c0 26 8.5 48 25.5 66s39.667 33.167 68 45.5s60.833 22.166 97.5 29.499s74.334 13.666 113.001 18.999l40 6c9.33301 22.667 17.166 45.5 23.499 68.5s10.833 46.167 13.5 69.5
c-16.667 -16 -34.667 -30 -54 -42c-16.667 -10.667 -35.5 -20.167 -56.5 -28.5s-42.167 -12.5 -63.5 -12.5c-26 0 -49.667 4 -71 12s-39.833 19.5 -55.5 34.5s-27.834 33 -36.501 54s-13 44.833 -13 71.5c0 33.333 5 66 15 98c-25.333 5.33301 -48.666 12.333 -69.999 21
s-39.666 19.167 -54.999 31.5s-27.5 26.166 -36.5 41.499s-13.5 32.333 -13.5 51c0 28 8 54 24 78s35 44.667 57 62s44.333 31 67 41s41 15 55 15c11.333 0 17 -3.66699 17 -11c0 -4.66699 -1.83301 -8.66699 -5.5 -12s-8.16699 -7 -13.5 -11l-23.5 -19
c-9 -7.33301 -17.5 -16.5 -25.5 -27.5s-14.667 -24 -20 -39s-8 -32.833 -8 -53.5s6.33301 -40.334 19 -59.001s31.667 -33.667 57 -45c20 43.333 46 84.333 78 123s66.5 72.5 103.5 101.5s74.5 52 112.5 69s73 25.5 105 25.5c20 0 38.5 -3.5 55.5 -10.5
s31.667 -16.333 44 -28s21.833 -24.667 28.5 -39s10 -28.5 10 -42.5c0 -29.333 -10.667 -59.5 -32 -90.5s-50.666 -59.667 -87.999 -86s-81.5 -48.5 -132.5 -66.5s-106.5 -28.333 -166.5 -31c-6.66699 -24.667 -10 -50.334 -10 -77.001c0 -32 7.16699 -56.333 21.5 -73
s34.5 -25 60.5 -25c17.333 0 34.666 4.83301 51.999 14.5s33 20.5 47 32.5c16.667 13.333 32.334 29 47.001 47c8 24.667 17.333 46.667 28 66c9.33301 16.667 20.5 32 33.5 46s27.833 21 44.5 21c11.333 0 20.5 -3.16699 27.5 -9.5s10.5 -16.166 10.5 -29.499
c0 -12.667 -3.33301 -25.167 -10 -37.5s-14 -23.166 -22 -32.499c-9.33301 -11.333 -20 -22 -32 -32zM608.993 658.003c-22 0 -45.998 -7.50098 -71.998 -22.501s-51.5 -35 -76.5 -60s-48.5 -53.833 -70.5 -86.5s-40 -67 -54 -103c38.667 4 76.667 14 114 30
s70.666 35.333 99.999 58s53 46.834 71 72.501s27 49.834 27 72.501c0 11.333 -3.33301 20.666 -10 27.999s-16.334 11 -29.001 11zM270.995 -221.998c12 0 25.165 4.33398 39.498 13.001s28.833 20.667 43.5 36s29.334 33.333 44.001 54s28.667 43 42 67l-16 -5
c-25.333 -6.66699 -49.666 -14.334 -72.999 -23.001s-43.833 -18.167 -61.5 -28.5s-31.667 -21.5 -42 -33.5s-15.5 -24.333 -15.5 -37c0 -28.667 13 -43 39 -43z" />
    <glyph glyph-name="H" unicode="H" horiz-adv-x="959" 
d="M1007 703c0 -5.33301 -7.99316 -17.3398 -23.9932 -36.0068c-6.66699 -8 -16.167 -23.667 -28.5 -47s-25.5 -51.166 -39.5 -83.499s-28.333 -67.666 -43 -105.999s-28 -76.5 -40 -114.5h9c11.333 0 21.833 1.33301 31.5 4s18.5 5.83398 26.5 9.50098l20.5 9.5
c5.66699 2.66699 9.83398 4 12.501 4c6.66699 0 10 -4 10 -12c0 -5.33301 -3.83301 -13.333 -11.5 -24s-17.834 -21.5 -30.501 -32.5s-26.834 -21 -42.501 -30s-31.834 -14.5 -48.501 -16.5c-9.33301 -40.667 -14 -75.667 -14 -105c0 -23.333 3.83301 -40.166 11.5 -50.499
s19.167 -15.5 34.5 -15.5s30 4.33301 44 13s26.667 18.667 38 30c12.667 12 24.667 26.333 36 43c1.33301 2 3.33301 4.33301 6 7l6.5 4.5c2.33301 1.66699 5.16602 2.5 8.49902 2.5c4.66699 0 9.16699 -1.83301 13.5 -5.5s6.5 -8.5 6.5 -14.5
c0 -2.66699 -0.5 -5.33398 -1.5 -8.00098s-2.16699 -5.33398 -3.5 -8.00098c-2 -2.66699 -3.66699 -6 -5 -10c-14.667 -23.333 -31.334 -43.666 -50.001 -60.999c-16 -15.333 -35 -29.166 -57 -41.499s-46.667 -18.5 -74 -18.5c-16.667 0 -33.167 3.33301 -49.5 10
s-31 16 -44 28s-23.5 26.5 -31.5 43.5s-12 35.833 -12 56.5c0 16.667 1.33301 35.167 4 55.5s6.66699 41.5 12 63.5l-75 24c-26 8.66699 -52.333 16.667 -79 24c-14 -46.667 -30.167 -88.834 -48.5 -126.501s-39.5 -69.667 -63.5 -96s-51.5 -46.666 -82.5 -60.999
s-66.5 -21.5 -106.5 -21.5c-34.667 0 -66.334 5 -95.001 15s-53.167 23.833 -73.5 41.5s-36.166 38.167 -47.499 61.5s-17 48.333 -17 75c0 36.667 9.16699 67.167 27.5 91.5s42.333 43.666 72 57.999s63 24.5 100 30.5s74.5 9 112.5 9c20.667 0 40.5 -0.5 59.5 -1.5
s37.5 -2.16699 55.5 -3.5c17.333 50.667 34.166 96.167 50.499 136.5s35.166 77.5 56.499 111.5c-9.33301 0 -19.833 0.666992 -31.5 2s-23.167 3 -34.5 5s-22.333 3.66699 -33 5s-20 2 -28 2c-27.333 0 -50.5 -8 -69.5 -24s-28.5 -35.333 -28.5 -58
c0 -15.333 2.5 -28.166 7.5 -38.499s10.667 -19 17 -26s12 -12.667 17 -17s7.5 -8.16602 7.5 -11.499c0 -12.667 -7 -19 -21 -19c-13.333 0 -28.833 3.5 -46.5 10.5s-34.5 16.667 -50.5 29s-29.5 26.833 -40.5 43.5s-16.5 35 -16.5 55c0 22.667 5.5 42.334 16.5 59.001
s25 30.5 42 41.5s35.667 19 56 24s39.833 7.5 58.5 7.5c30 0 55.333 -1.66699 76 -5s38.667 -7 54 -11l42.5 -11c13 -3.33301 26.5 -5 40.5 -5c14.667 20.667 30.167 34.334 46.5 41.001s32.833 10 49.5 10c14.667 0 26.667 -4.5 36 -13.5s14 -19.5 14 -31.5
c0 -8 -2.5 -16.167 -7.5 -24.5s-11.333 -15.666 -19 -21.999s-15.834 -11.833 -24.501 -16.5s-17 -7.66699 -25 -9c-9.33301 -13.333 -20.666 -40.5 -33.999 -81.5l-54 -174.5l80 -14c26 -4.66699 52 -8.66699 78 -12c10 32 20.833 64.167 32.5 96.5s23.667 63 36 92
s24.166 55.333 35.499 79s21.333 43.167 30 58.5c8 13.333 18 24.166 30 32.499s24.333 15 37 20s25 8.5 37 10.5s22.333 3 31 3c19.333 0 29 -4.66699 29 -14zM198.007 57.9932c28 0 52.501 7.33594 73.501 22.0029s39.833 34.167 56.5 58.5s31.667 52.166 45 83.499
s26 63.666 38 96.999c-6.66699 0.666992 -13.167 1.16699 -19.5 1.5s-12.833 0.5 -19.5 0.5c-39.333 0 -75 -4.83301 -107 -14.5s-59.333 -22.5 -82 -38.5s-40.167 -34.667 -52.5 -56s-18.5 -43.666 -18.5 -66.999c0 -12.667 2.33301 -24.334 7 -35.001
s11 -19.834 19 -27.501s17.167 -13.667 27.5 -18s21.166 -6.5 32.499 -6.5z" />
    <glyph glyph-name="I" unicode="I" horiz-adv-x="537" 
d="M582 724c11.333 0 21.3301 -3.5 29.9971 -10.5s13 -17.167 13 -30.5c0 -9.33301 -2.16699 -17.833 -6.5 -25.5s-9.66602 -14.5 -15.999 -20.5s-13.5 -11 -21.5 -15s-15.667 -6.66699 -23 -8c-4 -4 -8 -11.5 -12 -22.5s-8 -26.5 -12 -46.5s-8.66699 -45.333 -14 -76
l-19 -111c-8.66699 -54 -21 -103.5 -37 -148.5s-36 -83.667 -60 -116s-52.333 -57.666 -85 -75.999s-70.334 -27.5 -113.001 -27.5c-29.333 0 -56.166 6 -80.499 18s-45.166 26.667 -62.499 44s-30.833 35.833 -40.5 55.5s-14.5 37.167 -14.5 52.5
c0 5.33301 1.16699 10 3.5 14s6.16602 6 11.499 6c4.66699 0 8 -1.33301 10 -4l6 -8c4.66699 -7.33301 10.667 -15.166 18 -23.499s16 -16.333 26 -24s21.167 -14 33.5 -19s26.166 -7.5 41.499 -7.5c30 0 57 7 81 21s45.5 33.167 64.5 57.5s35.667 53.5 50 87.5
s26.833 71 37.5 111s20.5 74.833 29.5 104.5s17.167 54.5 24.5 74.5c8 23.333 15.667 43.333 23 60c-44.667 -12.667 -84.667 -30 -120 -52c-15.333 -9.33301 -30 -20.166 -44 -32.499s-26.667 -26.333 -38 -42s-20.333 -33.167 -27 -52.5s-10 -40.666 -10 -63.999
c0 -21.333 4 -37.333 12 -48s15.667 -19 23 -25c3.33301 -3.33301 6.83301 -6.33301 10.5 -9s5.5 -6 5.5 -10c0 -8.66699 -6.66699 -13 -20 -13c-12 0 -26.333 3.66699 -43 11s-32.667 17.666 -48 30.999s-28.333 29.5 -39 48.5s-16 40.167 -16 63.5
c0 25.333 5.83301 48.666 17.5 69.999s27.334 40.666 47.001 57.999s42.334 32.666 68.001 45.999s52.334 25.333 80.001 36s55.5 19.667 83.5 27s54 13.333 78 18c15.333 20.667 31 34.667 47 42s31.667 11 47 11z" />
    <glyph glyph-name="J" unicode="J" horiz-adv-x="584" 
d="M420 371l27.501 98.0059c7 25.333 13.167 45.333 18.5 60c5.33301 17.333 10 30 14 38c-42.667 -22.667 -80.667 -49 -114 -79c-14 -12.667 -27.833 -26.834 -41.5 -42.501s-25.834 -32.667 -36.501 -51s-19.167 -37.833 -25.5 -58.5s-9.5 -42.667 -9.5 -66
c0 -21.333 4 -37.333 12 -48s15.667 -19.334 23 -26.001l10.5 -8c3.66699 -2.66699 5.5 -6 5.5 -10c0 -8.66699 -6.66699 -13 -20 -13c-12.667 0 -27.334 3.66699 -44.001 11s-32.5 17.666 -47.5 30.999s-27.833 29.5 -38.5 48.5s-16 40.167 -16 63.5
c0 25.333 5.83301 49.5 17.5 72.5s27.334 44.667 47.001 65s42.167 39.5 67.5 57.5s51.5 34.667 78.5 50s54 29.5 81 42.5l74.5 35.5c15.333 20.667 31.166 39.5 47.499 56.5s33.166 25.5 50.499 25.5c16 0 28.667 -4.33301 38 -13s14 -19.334 14 -32.001
c0 -9.33301 -2.33301 -18.333 -7 -27s-10.5 -16.334 -17.5 -23.001s-14.667 -12.167 -23 -16.5s-16.166 -7.5 -23.499 -9.5c-4 -4 -8.5 -11.667 -13.5 -23s-10.167 -27.333 -15.5 -48s-10.833 -46.5 -16.5 -77.5s-11.5 -68.167 -17.5 -111.5
c-7.33301 -52.667 -15.333 -104.667 -24 -156s-19.334 -100.333 -32.001 -147c30 13.333 54.167 28.666 72.5 45.999s34.166 36.333 47.499 57c0.666992 2 2.33398 4.33301 5.00098 7c1.33301 1.33301 3.33301 2.83301 6 4.5s5.66699 2.5 9 2.5c6 0 11 -2 15 -6
s6 -8.66699 6 -14c0 -2 -0.5 -4.33301 -1.5 -7s-2.16699 -5.33398 -3.5 -8.00098s-2.66602 -5.66699 -3.99902 -9c-16.667 -26.667 -37.667 -51.334 -63 -74.001s-61 -42.667 -107 -60c-12.667 -38.667 -27.167 -74.167 -43.5 -106.5s-35.166 -60.166 -56.499 -83.499
s-45.333 -41.5 -72 -54.5s-56.667 -19.5 -90 -19.5c-26 0 -50.167 4.16699 -72.5 12.5s-41.833 19.333 -58.5 33s-29.667 28.834 -39 45.501s-14 33 -14 49c-0 26 8.83301 47 26.5 63s41 29 70 39s61.833 18 98.5 24l112 18c19.333 54 38.333 112.833 57 176.5z
M148.001 -227.994c24.667 0 48 14.832 70 44.499s43.333 69.167 64 118.5c-26 -6 -50 -13 -72 -21s-41.333 -17 -58 -27s-29.667 -20.667 -39 -32s-14 -23 -14 -35c0 -13.333 5 -24.666 15 -33.999s21.333 -14 34 -14z" />
    <glyph glyph-name="K" unicode="K" horiz-adv-x="904" 
d="M936 113c-15.333 -23.333 -31.6611 -43.9941 -48.9941 -61.9941c-15.333 -15.333 -33.166 -29.333 -53.499 -42s-42.166 -19 -65.499 -19c-30.667 0 -55.334 5.5 -74.001 16.5s-33 25.833 -43 44.5s-16.5 40.667 -19.5 66s-4.5 52.333 -4.5 81
c0 18.667 -1.16699 34.667 -3.5 48s-5 24.5 -8 33.5s-6.33301 16.167 -10 21.5s-6.83398 9.66602 -9.50098 12.999h-1h-36c-8 -39.333 -17.667 -78.333 -29 -117s-26.5 -73.334 -45.5 -104.001s-43.5 -55.5 -73.5 -74.5s-67.333 -28.5 -112 -28.5
c-30.667 0 -60 5.83301 -88 17.5s-52.667 26.167 -74 43.5s-38.333 36 -51 56s-19 38.667 -19 56c0 20 6.33301 38.5 19 55.5s28.167 31.5 46.5 43.5s37.5 21.5 57.5 28.5s37.333 10.5 52 10.5c7.33301 0 13.333 -1.5 18 -4.5s7 -6.5 7 -10.5
c0 -5.33301 -1.66699 -9.83301 -5 -13.5s-8.33301 -8.83398 -15 -15.501c-5.33301 -4.66699 -11.666 -11 -18.999 -19s-14.166 -17.167 -20.499 -27.5s-11.833 -21.166 -16.5 -32.499s-7 -23 -7 -35c0 -25.333 7.5 -45.166 22.5 -59.499s32.167 -21.5 51.5 -21.5
c28.667 0 53.334 9.66699 74.001 29s38.667 44 54 74s28.666 63.167 39.999 99.5s21.666 71.833 30.999 106.5c13.333 46.667 24.833 85.167 34.5 115.5s18.167 54.166 25.5 71.499c8 20.667 15.333 36 22 46c-44 -1.33301 -83 -7.66602 -117 -18.999
c-14.667 -4.66699 -29 -10.667 -43 -18s-26.5 -16.166 -37.5 -26.499s-19.833 -22.833 -26.5 -37.5s-10 -31.334 -10 -50.001c0 -21.333 4 -37.333 12 -48s15.667 -19.334 23 -26.001l10.5 -8c3.66699 -2.66699 5.5 -6 5.5 -10c0 -8.66699 -6.66699 -13 -20 -13
c-12 0 -26.667 3 -44 9s-34.333 14.833 -51 26.5s-30.834 26.167 -42.501 43.5s-17.5 37.666 -17.5 60.999c0 22 6 41.667 18 59s27.833 32.833 47.5 46.5s42.5 25.167 68.5 34.5s53 17.166 81 23.499s56.333 11.166 85 14.499s55.334 5.33301 80.001 6
c15.333 20.667 30 34.5 44 41.5s28.667 10.5 44 10.5s27.333 -4 36 -12s13 -18.667 13 -32c0 -9.33301 -2.5 -17.833 -7.5 -25.5s-11.333 -14.5 -19 -20.5s-15.834 -11 -24.501 -15s-16.667 -7 -24 -9c-4 -4 -7.66699 -11.333 -11 -22s-6.83301 -25.334 -10.5 -44.001
s-7.83398 -41.834 -12.501 -69.501s-10.667 -60.834 -18 -99.501c18 8 35.167 18.667 51.5 32s31.833 28.333 46.5 45s28.667 34.334 42 53.001l38 54c20 29.333 38.667 54 56 74s33.666 36 48.999 48s30.333 20.667 45 26s29.667 8 45 8
c7.33301 0 14.666 -1.83301 21.999 -5.5s13.833 -8 19.5 -13s10.167 -10.167 13.5 -15.5s5 -9.33301 5 -12c0 -8.66699 -5 -13 -15 -13c-8.66699 0 -18.334 -1.5 -29.001 -4.5s-22.5 -9.16699 -35.5 -18.5s-26.833 -22.5 -41.5 -39.5s-30 -39.833 -46 -68.5l-37 -64
c-11.333 -20 -23 -38.167 -35 -54.5s-24.333 -30.666 -37 -42.999s-27 -22.5 -43 -30.5c4 -2.66699 8.5 -6.66699 13.5 -12s10.167 -12.666 15.5 -21.999s10.166 -21.5 14.499 -36.5s8.16602 -33.167 11.499 -54.5c6 -46 15.833 -78.333 29.5 -97s29.167 -28 46.5 -28
c14.667 0 29.667 5.66699 45 17s29.666 25.666 42.999 42.999c0.666992 2 2.33398 4.33301 5.00098 7c1.33301 1.33301 3.33301 2.83301 6 4.5s5.66699 2.5 9 2.5c5.33301 0 10.166 -2 14.499 -6s6.5 -8.66699 6.5 -14c0 -2.66699 -0.5 -5.16699 -1.5 -7.5
s-2.16699 -4.83301 -3.5 -7.5s-2.66602 -5.66699 -3.99902 -9z" />
    <glyph glyph-name="L" unicode="L" horiz-adv-x="874" 
d="M906 113c-14 -23.333 -30.3398 -43.9971 -49.0068 -61.9971c-16 -15.333 -35.333 -29.333 -58 -42s-48.334 -19 -77.001 -19c-25.333 0 -49.333 3.83301 -72 11.5s-44.667 17.667 -66 30s-42.333 26.333 -63 42l-61 47.5c-26 -37.333 -58.167 -68.5 -96.5 -93.5
s-84.833 -37.5 -139.5 -37.5c-31.333 0 -60.666 5.16699 -87.999 15.5s-51.166 24.166 -71.499 41.499s-36.333 37.166 -48 59.499s-17.5 45.833 -17.5 70.5c0 22.667 4.5 43.167 13.5 61.5s21 34 36 47s32.333 23 52 30s40.167 10.5 61.5 10.5
c38 0 76.167 -6.5 114.5 -19.5s76.5 -29.167 114.5 -48.5c8 16.667 15.667 33.667 23 51l22 52c-41.333 6 -80.166 15.5 -116.499 28.5s-68.166 28.833 -95.499 47.5s-49 39.334 -65 62.001s-24 46 -24 70c0 25.333 5.16699 47.166 15.5 65.499s23.833 33.5 40.5 45.5
s35.334 20.833 56.001 26.5s41.334 8.5 62.001 8.5c37.333 0 68.5 -7.5 93.5 -22.5s47.167 -32.167 66.5 -51.5c4 -4 7.33301 -8.16699 10 -12.5s4 -8.16602 4 -11.499c0 -4 -1.33301 -7.66699 -4 -11s-5.66699 -5 -9 -5c-4.66699 0 -8.83398 1.16699 -12.501 3.5l-13.5 8.5
c-14.667 10.667 -30 19 -46 25s-32.667 9 -50 9c-23.333 0 -42.166 -5.33301 -56.499 -16s-21.5 -28.334 -21.5 -53.001c0 -17.333 4.16699 -34.333 12.5 -51s20.5 -32 36.5 -46s36 -26.333 60 -37s51.667 -18.334 83 -23.001l9 18c23.333 51.333 46 95 68 131
s44.333 65.5 67 88.5s46.167 39.667 70.5 50s50.5 15.5 78.5 15.5c23.333 0 44 -4 62 -12s33.333 -18.167 46 -30.5s22.167 -26.333 28.5 -42s9.5 -30.834 9.5 -45.501c0 -26 -7.83301 -52.333 -23.5 -79s-38 -51 -67 -73s-64 -40.667 -105 -56s-86.5 -25 -136.5 -29
l-28.5 -77.5c-10.333 -27.667 -22.5 -55.5 -36.5 -83.5c47.333 -26 93.333 -49.167 138 -69.5s88 -30.5 130 -30.5c16 0 29.833 1.66699 41.5 5s21.334 7.33301 29.001 12s14 9.83398 19 15.501l12.5 14.5c0.666992 2 2.33398 4.33301 5.00098 7
c1.33301 1.33301 3.33301 2.83301 6 4.5s5.66699 2.5 9 2.5c5.33301 0 10.166 -2 14.499 -6s6.5 -8.66699 6.5 -14c0 -2.66699 -0.5 -5.16699 -1.5 -7.5s-2.16699 -4.83301 -3.5 -7.5s-2.66602 -5.66699 -3.99902 -9zM185.993 68.0029c38 0 70.833 11.999 98.5 35.999
s52.5 55 74.5 93c-23.333 14.667 -47 26.5 -71 35.5s-49 13.5 -75 13.5c-36.667 0 -65.667 -8.5 -87 -25.5s-32 -40.833 -32 -71.5c0 -23.333 8.83301 -42.666 26.5 -57.999s39.5 -23 65.5 -23zM776.993 659.002c-14 0 -27.5 -3.16797 -40.5 -9.50098
s-26.667 -18.166 -41 -35.499s-29.5 -41.333 -45.5 -72s-34 -70 -54 -118c30 6.66699 58 17.5 84 32.5s48.833 32 68.5 51s35 38.833 46 59.5s16.5 40 16.5 58c0 8.66699 -3 16.5 -9 23.5s-14.333 10.5 -25 10.5z" />
    <glyph glyph-name="M" unicode="M" horiz-adv-x="1083" 
d="M976 57c13.333 0 26.5 4.33594 39.5 13.0029s24.5 18.667 34.5 30c12 12 23 26.333 33 43c0.666992 2 2.33398 4.33301 5.00098 7c1.33301 1.33301 3.33301 2.83301 6 4.5s5.66699 2.5 9 2.5c5.33301 0 10.166 -2 14.499 -6s6.5 -8.66699 6.5 -14
c0 -2.66699 -0.5 -5.16699 -1.5 -7.5s-2.16699 -4.83301 -3.5 -7.5s-2.66602 -5.66699 -3.99902 -9c-14.667 -23.333 -31 -44 -49 -62c-15.333 -15.333 -33.5 -29.333 -54.5 -42s-43.833 -19 -68.5 -19c-17.333 0 -34.5 3.33301 -51.5 10s-32.167 16 -45.5 28
s-24.166 26.5 -32.499 43.5s-12.5 35.833 -12.5 56.5c0 24.667 3.16699 53 9.5 85s14.833 65.167 25.5 99.5s22.5 69 35.5 104s26.167 68.167 39.5 99.5c-13.333 -17.333 -28 -38.833 -44 -64.5s-32.167 -53.334 -48.5 -83.001l-48.5 -91l-44 -88l-35.5 -73
c-10.333 -21 -17.833 -36.833 -22.5 -47.5s-11.334 -20.667 -20.001 -30s-17.834 -17.666 -27.501 -24.999s-18.667 -13.166 -27 -17.499s-14.5 -6.5 -18.5 -6.5c-8 0 -16.167 3 -24.5 9s-16.166 14.333 -23.499 25s-13.333 22.667 -18 36s-7 27.666 -7 42.999
c0 10 0.666992 24 2 42s3 38.333 5 61s4.33301 46.5 7 71.5s5 49.5 7 73.5s3.66699 46.5 5 67.5s2 38.5 2 52.5l-30.5 -97c-11 -35.333 -23.333 -70.833 -37 -106.5s-28.667 -70.167 -45 -103.5s-34 -62.833 -53 -88.5s-39.5 -46.334 -61.5 -62.001s-45.333 -23.5 -70 -23.5
c-30.667 0 -60 5.83301 -88 17.5s-52.833 26.167 -74.5 43.5s-38.834 36 -51.501 56s-19 38.667 -19 56c-0 20 6.33301 38.5 19 55.5s28.167 31.5 46.5 43.5s37.5 21.5 57.5 28.5s37.333 10.5 52 10.5c16.667 0 25 -5 25 -15c0 -6 -1.5 -10.833 -4.5 -14.5
s-8.16699 -8.5 -15.5 -14.5c-5.33301 -4 -11.666 -9.83301 -18.999 -17.5s-14.333 -16.334 -21 -26.001s-12.167 -20.5 -16.5 -32.5s-6.5 -24.667 -6.5 -38c0 -21.333 6.83301 -38.833 20.5 -52.5s30.167 -20.5 49.5 -20.5c18.667 0 39.5 10.667 62.5 32
s46.167 48.833 69.5 82.5s46 71.5 68 113.5s41.667 83.333 59 124s31.166 78.5 41.499 113.5s15.5 62.833 15.5 83.5c0 12 -4 22.5 -12 31.5s-21.333 13.5 -40 13.5c-15.333 0 -33.833 -5.16699 -55.5 -15.5s-42.334 -24.166 -62.001 -41.499s-36.5 -37.333 -50.5 -60
s-21 -46 -21 -70c0 -15.333 2.66699 -28.666 8 -39.999s11 -21 17 -29s11.667 -14.667 17 -20s8 -9.66602 8 -12.999c0 -13.333 -7 -20 -21 -20c-13.333 0 -29.166 3.5 -47.499 10.5s-35.833 16.833 -52.5 29.5s-30.667 27.334 -42 44.001s-17 35 -17 55
c0 30.667 10.833 60 32.5 88s49 52.5 82 73.5s69.333 37.667 109 50s77.834 18.5 114.501 18.5c16 0 34.167 -3.5 54.5 -10.5s39.5 -17.5 57.5 -31.5s33.167 -31.833 45.5 -53.5s18.5 -46.834 18.5 -75.501c0 -32.667 -1.33301 -69.834 -4 -111.501
s-5.5 -82.334 -8.5 -122.001s-5.83301 -75.334 -8.5 -107.001s-4 -53.834 -4 -66.501c4.66699 8 12 21.5 22 40.5l35.5 68.5l46.5 88l55 98.5l60.5 100.5c21 33.333 42.5 64.666 64.5 93.999c12 16.667 25.667 30.167 41 40.5s31.5 18.5 48.5 24.5s34.667 10.167 53 12.5
s36.5 3.5 54.5 3.5c19.333 0 29 -4.66699 29 -14c0 -3.33301 -1.83301 -7.66602 -5.5 -12.999s-10.167 -13 -19.5 -23c-6.66699 -8 -15.834 -23.333 -27.501 -46s-24.334 -49.834 -38.001 -81.501s-27.667 -66.167 -42 -103.5s-27.5 -74.833 -39.5 -112.5
s-21.667 -74 -29 -109s-11 -65.5 -11 -91.5c0 -23.333 5.33301 -40.166 16 -50.499s24.334 -15.5 41.001 -15.5z" />
    <glyph glyph-name="N" unicode="N" horiz-adv-x="855" 
d="M716 69c-4.66699 -10.667 -11.498 -20.6689 -20.498 -30.002s-18.167 -17.666 -27.5 -24.999s-18.333 -13.166 -27 -17.499s-15 -6.5 -19 -6.5c-7.33301 0 -15 3 -23 9s-15.333 14.333 -22 25s-12.334 22.667 -17.001 36s-8 27.666 -10 42.999s-3.66699 38.833 -5 70.5
s-2.66602 65.334 -3.99902 101.001s-2.33301 70.667 -3 105s-1 62.166 -1 83.499l-29 -94.5c-10.667 -34.333 -22.834 -69 -36.501 -104s-28.667 -69 -45 -102s-34.333 -62.333 -54 -88s-41.167 -46.167 -64.5 -61.5s-48.333 -23 -75 -23c-30.667 0 -60 5.83301 -88 17.5
s-52.833 26.167 -74.5 43.5s-38.834 36 -51.501 56s-19 38.667 -19 56c-0 20 6.33301 38.5 19 55.5s28.167 31.5 46.5 43.5s37.5 21.5 57.5 28.5s37.333 10.5 52 10.5c7.33301 0 13.333 -1.5 18 -4.5s7 -6.5 7 -10.5c0 -5.33301 -1.5 -10 -4.5 -14s-8.16699 -9 -15.5 -15
l-19 -17c-7.33301 -6.66699 -14.333 -14.834 -21 -24.501s-12.167 -20.5 -16.5 -32.5s-6.5 -25.333 -6.5 -40c0 -21.333 6.83301 -38.833 20.5 -52.5s30.167 -20.5 49.5 -20.5c18.667 0 39.5 10.667 62.5 32s46.167 48.833 69.5 82.5s46 71.5 68 113.5s41.667 83.333 59 124
s31.166 78.5 41.499 113.5s15.5 62.833 15.5 83.5c0 12 -4 22.5 -12 31.5s-21.333 13.5 -40 13.5c-15.333 0 -33.833 -5.16699 -55.5 -15.5s-42.334 -24.166 -62.001 -41.499s-36.5 -37.333 -50.5 -60s-21 -46 -21 -70c0 -15.333 2.66699 -28.666 8 -39.999s11 -21 17 -29
s11.667 -14.667 17 -20s8 -9.66602 8 -12.999c0 -13.333 -7 -20 -21 -20c-13.333 0 -29.166 3.5 -47.499 10.5s-35.833 16.833 -52.5 29.5s-30.667 27.334 -42 44.001s-17 35 -17 55c0 30.667 10.833 60 32.5 88s49 52.5 82 73.5s69.333 37.667 109 50
s77.834 18.5 114.501 18.5c16 0 34 -3.5 54 -10.5s39 -17.5 57 -31.5s33.333 -31.833 46 -53.5s19.667 -46.834 21 -75.501c1.33301 -30.667 2.33301 -63.167 3 -97.5s1.83398 -69 3.50098 -104s3.66699 -69.833 6 -104.5s5.83301 -67.334 10.5 -98.001
c3.33301 8.66699 8.16602 23.334 14.499 44.001l22.5 73.5l29.5 92c11 33 22.833 66.167 35.5 99.5s25.834 65.5 39.501 96.5s27.5 58.333 41.5 82s28.167 42.667 42.5 57s28.166 21.5 41.499 21.5c14 0 28 -2.33301 42 -7s26.5 -10.334 37.5 -17.001s20 -13.834 27 -21.501
s10.5 -14.5 10.5 -20.5s-1.66699 -10.667 -5 -14s-7.66602 -5 -12.999 -5c-26 0 -50.833 -11.167 -74.5 -33.5s-45.834 -51.166 -66.501 -86.499s-40.167 -74.5 -58.5 -117.5s-35 -85.333 -50 -127l-40.5 -115c-12 -35 -22.333 -62.167 -31 -81.5z" />
    <glyph glyph-name="O" unicode="O" horiz-adv-x="577" 
d="M381 724c32 0 61.8301 -5.66406 89.4971 -16.9971s51.834 -27 72.501 -47s36.834 -43.667 48.501 -71s17.5 -57.333 17.5 -90c0 -37.333 -4.5 -76 -13.5 -116s-21.833 -78.833 -38.5 -116.5s-36.834 -73.334 -60.501 -107.001s-50 -63 -79 -88s-60.333 -44.833 -94 -59.5
s-69.167 -22 -106.5 -22c-28.667 0 -56 5.83301 -82 17.5s-49 27.667 -69 48s-35.833 44.666 -47.5 72.999s-17.5 59.5 -17.5 93.5c0 44 5.33301 87 16 129s25.334 81.5 44.001 118.5s40.334 71.167 65.001 102.5s51 58.166 79 80.499s57 39.833 87 52.5s59.667 19 89 19z
M408.997 669.003c-19.333 0 -38.3359 -5.00098 -57.0029 -15.001s-35.334 -23.667 -50.001 -41s-26.5 -37.666 -35.5 -60.999s-13.5 -48.333 -13.5 -75c0 -15.333 2 -29.166 6 -41.499s9.33301 -22.833 16 -31.5s14.334 -15.334 23.001 -20.001s17.334 -7 26.001 -7
c7.33301 0 12.333 0.666992 15 2s5.66699 2 9 2c8 0 12 -4 12 -12c0 -3.33301 -1.66699 -7.16602 -5 -11.499s-8.33301 -8.83301 -15 -13.5s-15.5 -8.5 -26.5 -11.5s-23.833 -4.5 -38.5 -4.5c-13.333 0 -26.833 3.5 -40.5 10.5s-26 16.833 -37 29.5s-20 27.667 -27 45
s-10.5 36.333 -10.5 57c-7.33301 -16 -13.666 -35 -18.999 -57c-5.33301 -19.333 -9.83301 -42.833 -13.5 -70.5s-5.5 -60.167 -5.5 -97.5c0 -30.667 3.33301 -58 10 -82s15.5 -44.167 26.5 -60.5s23.5 -28.833 37.5 -37.5s28.333 -13 43 -13
c22.667 0 44.334 7.83301 65.001 23.5s40 36.667 58 63s34.5 57.166 49.5 92.499s27.667 72.5 38 111.5s18.333 78.833 24 119.5s8.5 80 8.5 118c0 28.667 -7.33301 50.667 -22 66s-31.667 23 -51 23z" />
    <glyph glyph-name="P" unicode="P" horiz-adv-x="814" 
d="M588 239c-28 0 -47.1709 2.83301 -57.5039 8.5s-15.5 11.167 -15.5 16.5c0 4.66699 1.5 8.66699 4.5 12s6.5 5 10.5 5c26.667 0 53 5.5 79 16.5s49.333 26.5 70 46.5s37.334 43.833 50.001 71.5s19 58.167 19 91.5c0 48.667 -17.333 87.334 -52 116.001s-84 43 -148 43
c-46.667 0 -88.167 -5 -124.5 -15s-67 -24 -92 -42s-44 -39.5 -57 -64.5s-19.5 -52.5 -19.5 -82.5c0 -15.333 2.66699 -28.166 8 -38.499s11 -19 17 -26s11.667 -12.667 17 -17s8 -8.16602 8 -11.499c0 -12.667 -7 -19 -21 -19c-13.333 0 -29.166 3 -47.499 9
s-35.666 14.5 -51.999 25.5s-30.333 24.333 -42 40s-17.5 33.5 -17.5 53.5c0 37.333 12.167 71.166 36.5 101.499s56.333 56.166 96 77.499s85 37.833 136 49.5s103.167 17.5 156.5 17.5c50.667 0 96.667 -5.83301 138 -17.5s76.333 -27.834 105 -48.501
s50.834 -44.667 66.501 -72s23.5 -57 23.5 -89c0 -41.333 -10.333 -78 -31 -110s-46 -59 -76 -81s-62.167 -38.667 -96.5 -50s-64.833 -17 -91.5 -17zM457.996 573c8 8 18.3291 15.166 30.9961 21.499s25.334 11.666 38.001 15.999s24.167 7.5 34.5 9.5s17.166 3 20.499 3
c12.667 0 19 -4.66699 19 -14c0 -2 -1.83301 -5 -5.5 -9s-8.16699 -9.66699 -13.5 -17s-11.5 -16.333 -18.5 -27s-13.5 -23.667 -19.5 -39c-5.33301 -12.667 -10.166 -24.667 -14.499 -36s-8.66602 -24.5 -12.999 -39.5s-9.33301 -33.333 -15 -55s-12.167 -49.5 -19.5 -83.5
c-13.333 -59.333 -28.166 -109 -44.499 -149s-34.5 -72.167 -54.5 -96.5s-42.167 -41.666 -66.5 -51.999s-50.833 -15.5 -79.5 -15.5c-34.667 0 -66.667 6.16699 -96 18.5s-54.5 27.5 -75.5 45.5s-37.333 37.5 -49 58.5s-17.5 40.167 -17.5 57.5s6.33301 33.833 19 49.5
s28.167 29.5 46.5 41.5s37.5 21.667 57.5 29s37.333 11 52 11c16.667 0 25 -5.33301 25 -16c0 -5.33301 -1.16699 -9.33301 -3.5 -12s-7.16602 -6.33398 -14.499 -11.001c-17.333 -11.333 -33.166 -27.166 -47.499 -47.499s-21.5 -42.166 -21.5 -65.499
c0 -12.667 2.33301 -24.667 7 -36s11.167 -21.166 19.5 -29.499s18.166 -15 29.499 -20s23.666 -7.5 36.999 -7.5c30.667 0 59.167 21 85.5 63s51.166 109.667 74.499 203c8.66699 37.333 16.5 69.166 23.5 95.499s13.833 49 20.5 68s13.834 35.333 21.501 49
s16.834 26.5 27.501 38.5z" />
    <glyph glyph-name="Q" unicode="Q" horiz-adv-x="642" 
d="M545 571c0 30 -8.83887 53.502 -26.5059 70.502s-39.5 25.5 -65.5 25.5c-43.333 0 -84.666 -11.333 -123.999 -34s-73.833 -52.167 -103.5 -88.5s-53.167 -77.166 -70.5 -122.499s-26 -90.333 -26 -135c0 -27.333 6 -48 18 -62s27.333 -21 46 -21s36 7.16699 52 21.5
s30 32.5 42 54.5s21.333 46 28 72s10 50.667 10 74c0 12.667 -1.33301 23.667 -4 33s-5.83398 17 -9.50098 23s-6.83398 11 -9.50098 15s-4 7.66699 -4 11c0 4 2.16699 7.83301 6.5 11.5s8.16602 5.5 11.499 5.5c9.33301 0 20.333 -3.16699 33 -9.5s24.834 -15 36.501 -26
s21.5 -23.833 29.5 -38.5s12 -30 12 -46c0 -28 -6.83301 -57 -20.5 -87s-32 -57.5 -55 -82.5s-49.833 -45.5 -80.5 -61.5s-63 -24 -97 -24c-16 0 -34.167 3.16699 -54.5 9.5s-39.333 16 -57 29s-32.5 29.667 -44.5 50s-18 44.833 -18 73.5c0 30.667 5.33301 62.167 16 94.5
s25.834 63.833 45.501 94.5s43.334 59.5 71.001 86.5s58.334 50.667 92.001 71s70 36.333 109 48s79.5 17.5 121.5 17.5c33.333 0 64 -5.33301 92 -16s52 -25.334 72 -44.001s35.667 -40.167 47 -64.5s17 -49.833 17 -76.5c0 -47.333 -10.333 -95.333 -31 -144
s-48 -95.167 -82 -139.5s-73 -85 -117 -122s-89 -67.167 -135 -90.5l50.5 -39c16.333 -12.667 32.5 -24 48.5 -34s31.833 -18 47.5 -24s31.5 -9 47.5 -9c13.333 0 25.5 1.66699 36.5 5s20.5 7.16602 28.5 11.499l21 11.5c6 3.33301 10.667 5 14 5s6.66602 -1 9.99902 -3
s5 -5.33301 5 -10c0 -5.33301 -4.66699 -15.333 -14 -30s-21.166 -29.834 -35.499 -45.501s-30.166 -29.5 -47.499 -41.5s-34.333 -18 -51 -18c-19.333 0 -38.666 6.16699 -57.999 18.5s-39 28 -59 47s-40 39.5 -60 61.5s-40 42.667 -60 62
c-17.333 -5.33301 -34.666 -9.66602 -51.999 -12.999s-34.333 -5 -51 -5c-25.333 0 -47.666 5.33301 -66.999 16s-29 26.667 -29 48c0 14.667 7.5 28 22.5 40s34.167 18 57.5 18c41.333 0 84.333 -13.333 129 -40c38 23.333 74.667 54.666 110 93.999s66.5 82.5 93.5 129.5
s48.667 95.667 65 146s24.5 97.833 24.5 142.5z" />
    <glyph glyph-name="R" unicode="R" horiz-adv-x="875" 
d="M735 -10c-37.333 0 -68.8379 6.66504 -94.5049 19.998s-43.834 34 -54.501 62c-6 16 -10 35.5 -12 58.5s-3 50.5 -3 82.5c0 17.333 -2 31.333 -6 42s-8.66699 19 -14 25c-18 -2 -36.333 -3 -55 -3h-20c-13.333 -54 -28 -99.333 -44 -136s-33.833 -66.167 -53.5 -88.5
s-41.167 -38.333 -64.5 -48s-49 -14.5 -77 -14.5c-34.667 0 -66.667 6.16699 -96 18.5s-54.5 27.5 -75.5 45.5s-37.333 37.5 -49 58.5s-17.5 40.167 -17.5 57.5c0 20.667 6.33301 39.667 19 57s28.167 32.166 46.5 44.499s37.5 22 57.5 29s37.333 10.5 52 10.5
c7.33301 0 13.333 -1.66699 18 -5s7 -7 7 -11c0 -5.33301 -1.16699 -9.16602 -3.5 -11.499s-7.16602 -6.16602 -14.499 -11.499c-6 -4.66699 -12.833 -11.334 -20.5 -20.001s-14.667 -18.334 -21 -29.001s-11.666 -22.167 -15.999 -34.5s-6.5 -24.5 -6.5 -36.5
c0 -12.667 2.16699 -24.667 6.5 -36s10.333 -21.5 18 -30.5s16.834 -16.167 27.501 -21.5s22.667 -8 36 -8c30.667 0 59.167 21 85.5 63s51.166 109.667 74.499 203c8.66699 36.667 16.5 68.167 23.5 94.5s13.833 49.166 20.5 68.499s13.834 35.833 21.501 49.5
s16.834 26.5 27.501 38.5c8 8 18.333 15.167 31 21.5s25.334 11.666 38.001 15.999s24.167 7.5 34.5 9.5s17.166 3 20.499 3c12.667 0 19 -4.66699 19 -14c0 -2 -1.83301 -5 -5.5 -9s-8.16699 -9.66699 -13.5 -17s-11.5 -16.333 -18.5 -27s-13.5 -23.667 -19.5 -39l-13 -33
c-4 -10 -8 -21.5 -12 -34.5l-13.5 -46c-5 -17.667 -10.5 -39.834 -16.5 -66.501c32 0.666992 62.5 6.33398 91.5 17.001s54.5 25 76.5 43s39.5 39 52.5 63s19.5 49.667 19.5 77c0 40 -14.167 71.5 -42.5 94.5s-74.5 34.5 -138.5 34.5
c-46.667 0 -88.167 -4.83301 -124.5 -14.5s-67 -23 -92 -40s-44 -36.667 -57 -59s-19.5 -46.166 -19.5 -71.499c0 -15.333 2.66699 -28.166 8 -38.499s11 -19 17 -26s11.667 -12.667 17 -17s8 -8.16602 8 -11.499c0 -12.667 -7 -19 -21 -19c-13.333 0 -29.166 3 -47.499 9
s-35.666 14.5 -51.999 25.5s-30.333 24.333 -42 40s-17.5 33.5 -17.5 53.5c0 31.333 12.167 60.833 36.5 88.5s56.333 51.667 96 72s85 36.5 136 48.5s103.167 18 156.5 18c50.667 0 95.667 -5 135 -15s72.166 -23.5 98.499 -40.5s46.333 -37.333 60 -61
s20.5 -48.834 20.5 -75.501c0 -27.333 -6.16699 -53.166 -18.5 -77.499s-29 -46.5 -50 -66.5s-45.5 -37.667 -73.5 -53s-57.333 -27.666 -88 -36.999c9.33301 -5.33301 18.5 -14.5 27.5 -27.5s15.167 -32.167 18.5 -57.5c8 -55.333 18.333 -95.166 31 -119.499
s31.667 -36.5 57 -36.5c13.333 0 26.5 4.33301 39.5 13s24.5 18.667 34.5 30c12 12 23 26.333 33 43c0.666992 2 2.33398 4.33301 5.00098 7c1.33301 1.33301 3.33301 2.83301 6 4.5s5.66699 2.5 9 2.5c5.33301 0 10.166 -2 14.499 -6s6.5 -8.66699 6.5 -14
c0 -2.66699 -0.5 -5.16699 -1.5 -7.5s-2.16699 -4.83301 -3.5 -7.5s-2.66602 -5.66699 -3.99902 -9c-14.667 -23.333 -31 -44 -49 -62c-15.333 -15.333 -33.5 -29.333 -54.5 -42s-43.833 -19 -68.5 -19z" />
    <glyph glyph-name="S" unicode="S" horiz-adv-x="584" 
d="M502 665c-17.333 0 -33.3379 -3.16699 -48.0049 -9.5s-27.334 -14.666 -38.001 -24.999s-19 -22.333 -25 -36s-9 -27.834 -9 -42.501c0 -20.667 3.66699 -41 11 -61s16.333 -39.667 27 -59s22.334 -38.666 35.001 -57.999s24.334 -38.666 35.001 -57.999
s19.667 -38.666 27 -57.999s11 -39 11 -59c0 -30 -7 -57.667 -21 -83s-32.5 -47.333 -55.5 -66s-49 -33.334 -78 -44.001s-58.5 -16 -88.5 -16c-42.667 0 -80.667 5.83301 -114 17.5s-61.333 26.5 -84 44.5s-40 38 -52 60s-18 43.667 -18 65c0 20.667 7.66699 40.5 23 59.5
s33.833 35.5 55.5 49.5s44.167 25.167 67.5 33.5s43 12.5 59 12.5c11.333 0 17 -5.66699 17 -17c0 -4.66699 -1.66699 -8.5 -5 -11.5s-8.66602 -7.16699 -15.999 -12.5l-24 -20.5c-8 -7 -15.167 -14.833 -21.5 -23.5s-11.5 -18.5 -15.5 -29.5s-6 -23.833 -6 -38.5
c0 -13.333 2.83301 -26.833 8.5 -40.5s13.667 -26.167 24 -37.5s22.833 -20.666 37.5 -27.999s31 -11 49 -11c38 0 68.667 11 92 33s35 52 35 90c0 24.667 -7.5 50.334 -22.5 77.001s-31.333 54.167 -49 82.5s-34 57.666 -49 87.999s-22.5 61.5 -22.5 93.5
c0 31.333 8 59.166 24 83.499s36.5 45 61.5 62s53 30 84 39s61.5 13.5 91.5 13.5c18.667 0 36.334 -1.66699 53.001 -5s31.334 -8.33301 44.001 -15s22.834 -15.167 30.501 -25.5s11.5 -22.5 11.5 -36.5c0 -18 -5.66699 -35.667 -17 -53s-24.666 -33 -39.999 -47
s-31 -25.333 -47 -34s-28.333 -13 -37 -13c-4.66699 0 -8.66699 1.66699 -12 5s-5 6.66602 -5 9.99902s0.833008 6.5 2.5 9.5s5.16699 7.83301 10.5 14.5c9.33301 11.333 18.666 25.166 27.999 41.499s14 32.5 14 48.5c0 13.333 -4.5 23.5 -13.5 30.5
s-20.833 10.5 -35.5 10.5z" />
    <glyph glyph-name="T" unicode="T" horiz-adv-x="467" 
d="M37 74c6.66699 0 13.1699 -0.831055 19.5029 -2.49805s14.166 -2.5 23.499 -2.5c34 0 63.333 12.5 88 37.5s46.334 56.667 65.001 95s34.667 80.166 48 125.499l37 129c10 38 21.667 67.667 35 89s25.666 37.666 36.999 48.999c13.333 12.667 27.333 20.667 42 24
c-15.333 8 -39.5 15.833 -72.5 23.5s-69.5 11.5 -109.5 11.5c-30 0 -54.5 -6.83301 -73.5 -20.5s-28.5 -32.167 -28.5 -55.5c0 -15.333 2.5 -28.166 7.5 -38.499s10.667 -19 17 -26s12 -12.833 17 -17.5s7.5 -8.66699 7.5 -12c0 -12.667 -7 -19 -21 -19
c-13.333 0 -28.5 3 -45.5 9s-33.167 14.667 -48.5 26s-28.333 24.833 -39 40.5s-16 33.5 -16 53.5c0 26 6.66699 47.333 20 64s29.833 30 49.5 40s41 17 64 21s44.167 6 63.5 6c33.333 0 63.333 -1.66699 90 -5s53.667 -7.16602 81 -11.499s56.666 -8.16602 87.999 -11.499
s68.333 -5 111 -5c26 0 46.667 1.66699 62 5s27.333 7.16602 36 11.499s15.167 8.16602 19.5 11.499s8.16602 5 11.499 5c6 0 11 -2 15 -6s6 -8.66699 6 -14c0 -4.66699 -3.83301 -13.334 -11.5 -26.001s-18 -25.5 -31 -38.5s-27.667 -24.667 -44 -35
s-33.5 -15.5 -51.5 -15.5c-16 0 -31 0.833008 -45 2.5s-26.333 3.5 -37 5.5c-12 2.66699 -23.333 5.66699 -34 9c-2.66699 -1.33301 -6 -4.33301 -10 -9s-8.66699 -12.834 -14 -24.501s-11.166 -27.667 -17.499 -48s-12.833 -46.5 -19.5 -78.5
c-6 -26.667 -11.833 -56.5 -17.5 -89.5s-12.667 -66.333 -21 -100s-18.5 -66.5 -30.5 -98.5s-26.833 -60.5 -44.5 -85.5s-39 -45 -64 -60s-54.5 -22.5 -88.5 -22.5c-20 0 -38.833 2.16699 -56.5 6.5s-33 9.83301 -46 16.5s-23.167 13.834 -30.5 21.501s-11 14.5 -11 20.5
c0 6.66699 1.66699 11.5 5 14.5s7.66602 4.5 12.999 4.5z" />
    <glyph glyph-name="U" unicode="U" horiz-adv-x="836" 
d="M696 -10c-18 0 -35.666 3.33008 -52.999 9.99707s-32.833 16 -46.5 28s-24.834 26.5 -33.501 43.5s-13 35.833 -13 56.5v17c0 6 0.666992 12.333 2 19c-12 -18 -26.5 -37.167 -43.5 -57.5s-36 -39.166 -57 -56.499s-43.667 -31.666 -68 -42.999s-49.833 -17 -76.5 -17
c-18.667 0 -36.334 3 -53.001 9s-31.334 14.333 -44.001 25s-22.834 23 -30.501 37s-11.5 28.667 -11.5 44c0 21.333 4.83301 46.166 14.5 74.499s21.667 58.166 36 89.499s29.833 63.333 46.5 96l46.5 95c14.333 30.667 26.333 59.667 36 87s14.5 51.333 14.5 72
c0 12 -2.5 22.5 -7.5 31.5s-16.833 13.5 -35.5 13.5c-15.333 0 -34.166 -5.16699 -56.499 -15.5s-44 -24.166 -65 -41.499s-39 -37.333 -54 -60s-22.5 -46 -22.5 -70c0 -15.333 2.66699 -28.666 8 -39.999s11 -21 17 -29s11.667 -14.667 17 -20s8 -9.66602 8 -12.999
c0 -13.333 -7 -20 -21 -20c-13.333 0 -29.166 3.5 -47.499 10.5s-35.833 16.833 -52.5 29.5s-30.834 27.334 -42.501 44.001s-17.5 35 -17.5 55c0 30.667 11.833 60 35.5 88s53.334 52.5 89.001 73.5s74.334 37.667 116.001 50s80.834 18.5 117.501 18.5
c40.667 0 74.167 -9.5 100.5 -28.5s39.5 -44.5 39.5 -76.5c0 -22 -4.5 -47.167 -13.5 -75.5s-20.333 -57.833 -34 -88.5s-28.334 -62 -44.001 -94l-44 -93.5c-13.667 -30.333 -25 -58.666 -34 -84.999s-13.5 -49.5 -13.5 -69.5c0 -28.667 14.667 -43 44 -43
c16 0 34.5 8.5 55.5 25.5s42.333 38 64 63s42.667 51.167 63 78.5s37.5 51.666 51.5 72.999c9.33301 33.333 20.166 67 32.499 101s24.833 66.167 37.5 96.5s24.834 58 36.501 83s22.167 45.167 31.5 60.5c8 13.333 18 24.166 30 32.499s24.333 15 37 20s25 8.5 37 10.5
s22.333 3 31 3c19.333 0 29 -4.66699 29 -14c0 -5.33301 -8 -17.333 -24 -36c-6.66699 -8 -15.834 -23.333 -27.501 -46s-24.5 -49.834 -38.5 -81.501s-28.167 -66.167 -42.5 -103.5s-27.5 -74.833 -39.5 -112.5s-21.667 -74 -29 -109s-11 -65.5 -11 -91.5
c0 -23.333 5.5 -40.166 16.5 -50.499s24.167 -15.5 39.5 -15.5c13.333 0 26.5 4.33301 39.5 13s24.5 18.667 34.5 30c12 12 23 26.333 33 43c0.666992 2 2.33398 4.33301 5.00098 7c1.33301 1.33301 3.33301 2.83301 6 4.5s5.66699 2.5 9 2.5c5.33301 0 10.166 -2 14.499 -6
s6.5 -8.66699 6.5 -14c0 -2.66699 -0.5 -5.16699 -1.5 -7.5s-2.16699 -4.83301 -3.5 -7.5s-2.66602 -5.66699 -3.99902 -9c-14.667 -23.333 -31 -44 -49 -62c-15.333 -15.333 -33.5 -29.333 -54.5 -42s-43.833 -19 -68.5 -19z" />
    <glyph glyph-name="V" unicode="V" horiz-adv-x="739" 
d="M419 121c34 30 69.6621 66.5049 106.995 109.505s71.833 88.833 103.5 137.5s57.834 98.5 78.501 149.5s31 99.5 31 145.5c0 11.333 -1.33301 21.166 -4 29.499s-4 14.5 -4 18.5c0 8.66699 4 13 12 13c9.33301 0 21 -2.66699 35 -8s27.333 -12.5 40 -21.5
s23.5 -19.5 32.5 -31.5s13.5 -25 13.5 -39c0 -28.667 -6.66699 -59.5 -20 -92.5s-31.166 -67.167 -53.499 -102.5s-48 -71 -77 -107s-59.333 -71.167 -91 -105.5s-63.667 -67 -96 -98l-90.5 -84.5c-13.333 -12 -25.666 -22.333 -36.999 -31s-21.666 -13 -30.999 -13
c-6.66699 0 -14.667 3.5 -24 10.5s-18.166 16 -26.499 27s-15.5 22.833 -21.5 35.5s-9 25 -9 37c0 23.333 3.33301 49.666 10 78.999s14.834 59.666 24.501 90.999s20.167 63.333 31.5 96s21.833 64.334 31.5 95.001s17.834 59.5 24.501 86.5s10 50.833 10 71.5
c0 12 -3.33301 22.5 -10 31.5s-17.667 13.5 -33 13.5c-25.333 0 -51.333 -8.16699 -78 -24.5s-51 -36.833 -73 -61.5s-40 -51.334 -54 -80.001s-21 -55 -21 -79c0 -19.333 2.5 -35.333 7.5 -48s10.667 -23.334 17 -32.001s12 -15.334 17 -20.001s7.5 -8.66699 7.5 -12
c0 -12.667 -7 -19 -21 -19c-13.333 0 -29.5 4 -48.5 12s-37.333 18.667 -55 32s-32.834 29 -45.501 47s-19 37 -19 57c0 23.333 6.33301 46.833 19 70.5s29.667 46.167 51 67.5s45.666 41.166 72.999 59.499s55.666 34.166 84.999 47.499s58.333 23.833 87 31.5
s55.334 11.5 80.001 11.5c20 0 38.333 -3 55 -9s31 -14 43 -24s21.333 -22 28 -36s10 -29 10 -45c0 -23.333 -3 -49.166 -9 -77.499s-13.5 -57.666 -22.5 -87.999s-18.833 -61 -29.5 -92l-29.5 -89c-9 -28.333 -16.5 -54.833 -22.5 -79.5s-9 -45.667 -9 -63z" />
    <glyph glyph-name="W" unicode="W" horiz-adv-x="1003" 
d="M929 621c0 28.667 -1.99414 49.5059 -5.99414 62.5059s-6 22.167 -6 27.5c0 8.66699 4 13 12 13c9.33301 0 21.166 -2.66699 35.499 -8s28.166 -12.5 41.499 -21.5s24.833 -19.5 34.5 -31.5s14.5 -25 14.5 -39c0 -41.333 -4.5 -85.5 -13.5 -132.5s-21.833 -94 -38.5 -141
s-36.334 -92.167 -59.001 -135.5s-47.5 -81.666 -74.5 -114.999s-56 -60 -87 -80s-62.5 -30 -94.5 -30c-28 0 -50.167 5.83301 -66.5 17.5s-29.166 24.834 -38.499 39.501c-10.667 17.333 -18 36.666 -22 57.999c-20 -21.333 -41 -40.666 -63 -57.999
c-19.333 -14.667 -41 -27.834 -65 -39.501s-49 -17.5 -75 -17.5c-16 0 -31.333 2.5 -46 7.5s-27.834 12.167 -39.501 21.5s-20.834 20.666 -27.501 33.999s-10 28.666 -10 45.999c0 23.333 4.5 49 13.5 77s20.333 57.333 34 88s28.5 61.834 44.5 93.501s30.833 63 44.5 94
s25 60.667 34 89s13.5 54.5 13.5 78.5c0 12 -3.33301 22.5 -10 31.5s-17.667 13.5 -33 13.5c-20 0 -43.167 -8.16699 -69.5 -24.5s-51 -36.833 -74 -61.5s-42.5 -51.334 -58.5 -80.001s-24 -55 -24 -79c0 -19.333 2.5 -35.333 7.5 -48s10.667 -23.334 17 -32.001
s12 -15.334 17 -20.001s7.5 -8.66699 7.5 -12c0 -12.667 -7 -19 -21 -19c-13.333 0 -29.5 4 -48.5 12s-37.333 18.667 -55 32s-32.834 29 -45.501 47s-19 37 -19 57c0 23.333 6.33301 46.833 19 70.5s29.667 46.167 51 67.5s45.666 41.166 72.999 59.499
s55.666 34.166 84.999 47.499s58.5 23.833 87.5 31.5s55.5 11.5 79.5 11.5c40.667 0 73.5 -10.167 98.5 -30.5s37.5 -51.166 37.5 -92.499c0 -20.667 -4.16699 -44.167 -12.5 -70.5s-18.833 -54.333 -31.5 -84s-26.334 -60 -41.001 -91l-41 -90
c-12.667 -29 -23.167 -56.167 -31.5 -81.5s-12.5 -47.333 -12.5 -66c0 -13.333 4 -23.833 12 -31.5s18.333 -11.5 31 -11.5s27 5.66699 43 17s31 24 45 38c16.667 16 33.334 34.333 50.001 55c6.66699 58.667 17 111.334 31 158.001c6 20 12.833 39.333 20.5 58
s16.834 35.5 27.501 50.5s22.667 27 36 36s28 13.5 44 13.5c16.667 0 30.167 -5.16699 40.5 -15.5s15.5 -23.166 15.5 -38.499c0 -12 -2 -25.333 -6 -40s-9.33301 -29.834 -16 -45.501s-14.167 -31.334 -22.5 -47.001s-16.833 -30.834 -25.5 -45.501
c-20.667 -34.667 -44 -69.667 -70 -105c2.66699 -16.667 6.66699 -31.334 12 -44.001c4.66699 -11.333 10.667 -21.333 18 -30s17 -13 29 -13c21.333 0 42.333 8.5 63 25.5s40 39.5 58 67.5s34.5 60.667 49.5 98s27.833 76 38.5 116s19 80.5 25 121.5s9 79.5 9 115.5z" />
    <glyph glyph-name="X" unicode="X" horiz-adv-x="861" 
d="M721 -10c-26 0 -50.001 3.99902 -72.001 11.999s-41.167 19.167 -57.5 33.5s-29 31.5 -38 51.5s-13.5 42 -13.5 66v89l-69 -96c-22 -30.667 -43.333 -57.5 -64 -80.5s-40.667 -41.333 -60 -55s-38.333 -20.5 -57 -20.5c-30.667 0 -60 5.83301 -88 17.5
s-52.833 26.167 -74.5 43.5s-38.834 36 -51.501 56s-19 38.667 -19 56c0 20 6.33301 38.5 19 55.5s28.167 31.5 46.5 43.5s37.666 21.5 57.999 28.5s37.833 10.5 52.5 10.5c7.33301 0 13.166 -1.5 17.499 -4.5s6.5 -6.5 6.5 -10.5c0 -5.33301 -1.5 -10 -4.5 -14
s-8.16699 -9.33301 -15.5 -16c-5.33301 -4.66699 -11.666 -10.834 -18.999 -18.501s-14.166 -16.334 -20.499 -26.001s-11.833 -20.334 -16.5 -32.001s-7 -23.834 -7 -36.501c0 -24 5.66699 -41.333 17 -52s25.666 -16 42.999 -16c20.667 0 41.5 6.5 62.5 19.5
s43.5 31.833 67.5 56.5s50.167 55.167 78.5 91.5l96.5 123.5c-0.666992 37.333 -1 75.5 -1 114.5v126.5c0 19.333 -3.16699 33.666 -9.5 42.999s-18.833 14 -37.5 14c-15.333 0 -32.833 -4.66699 -52.5 -14s-38.167 -22.166 -55.5 -38.499s-32 -35.166 -44 -56.499
s-18 -44 -18 -68c0 -15.333 2.66699 -28.666 8 -39.999s11 -21.166 17 -29.499s11.667 -15.166 17 -20.499s8 -9.66602 8 -12.999c0 -12.667 -7 -19 -21 -19c-13.333 0 -29.166 3.5 -47.499 10.5s-35.833 16.667 -52.5 29s-30.667 26.833 -42 43.5s-17 35 -17 55
c0 31.333 10.333 60.5 31 87.5s47 50.333 79 70s67.333 35.167 106 46.5s76 17 112 17c20 0 38.833 -2.66699 56.5 -8s33 -13 46 -23s23.333 -22 31 -36s11.834 -29.667 12.501 -47c0.666992 -8.66699 1 -19.834 1 -33.501s0.333008 -29.167 1 -46.5
c21.333 26 42.833 50.833 64.5 74.5s43 44.334 64 62.001s41.5 31.667 61.5 42s39 15.5 57 15.5c10 0 19.833 -2.66699 29.5 -8s18.5 -11.5 26.5 -18.5s14.333 -14.167 19 -21.5s7 -13 7 -17c0 -6.66699 -2 -11.667 -6 -15s-8.66699 -5 -14 -5
c-24 0 -48.5 -5.66699 -73.5 -17s-50.5 -27 -76.5 -47s-52.333 -43.667 -79 -71s-53 -57 -79 -89v-205c0 -46 8 -83 24 -111s36.667 -42 62 -42c13.333 0 26.5 4.33301 39.5 13s24.5 18.667 34.5 30c12 12 23 26.333 33 43c0.666992 2 2.33398 4.33301 5.00098 7
c1.33301 1.33301 3.33301 2.83301 6 4.5s5.66699 2.5 9 2.5c5.33301 0 10.166 -2 14.499 -6s6.5 -8.66699 6.5 -14c0 -2.66699 -0.5 -5.16699 -1.5 -7.5s-2.16699 -4.83301 -3.5 -7.5s-2.66602 -5.66699 -3.99902 -9c-14.667 -23.333 -31 -44 -49 -62
c-15.333 -15.333 -33.5 -29.333 -54.5 -42s-43.833 -19 -68.5 -19z" />
    <glyph glyph-name="Y" unicode="Y" horiz-adv-x="773" 
d="M805 113c-15.333 -25.333 -38.1748 -49.5039 -68.5078 -72.5039s-72.5 -43.833 -126.5 -62.5c-14.667 -40 -30.5 -76.167 -47.5 -108.5s-36.167 -60 -57.5 -83s-45.166 -40.667 -71.499 -53s-56.166 -18.5 -89.499 -18.5c-26 0 -50.167 4.16699 -72.5 12.5
s-41.833 19.333 -58.5 33s-29.667 28.834 -39 45.501s-14 33 -14 49c0 26 9.16699 47.333 27.5 64s42.5 30.167 72.5 40.5s63.833 18.5 101.5 24.5s75.834 11.333 114.501 16c3.33301 0 6 0.333008 8 1c10.667 26.667 21.5 55.5 32.5 86.5s22.167 64.5 33.5 100.5
c-11.333 -10.667 -24.333 -22 -39 -34s-30.5 -23 -47.5 -33s-35 -18.333 -54 -25s-37.833 -10 -56.5 -10c-17.333 0 -34.166 3.16699 -50.499 9.5s-31 14.833 -44 25.5s-23.5 23.167 -31.5 37.5s-12 29.166 -12 44.499c0 30 7.66699 62.833 23 98.5
s32.166 71.834 50.499 108.501s35.166 73 50.499 109s23 69.333 23 100c0 12 -2.5 22.5 -7.5 31.5s-16.833 13.5 -35.5 13.5c-15.333 0 -34.166 -5.16699 -56.499 -15.5s-44 -24.166 -65 -41.499s-39 -37.333 -54 -60s-22.5 -46 -22.5 -70
c0 -15.333 2.66699 -28.666 8 -39.999s11 -21 17 -29s11.667 -14.667 17 -20s8 -9.66602 8 -12.999c0 -13.333 -7 -20 -21 -20c-13.333 0 -28.666 3.5 -45.999 10.5s-33.666 16.833 -48.999 29.5s-28.333 27.334 -39 44.001s-16 35 -16 55c0 30.667 11.333 60 34 88
s51.167 52.5 85.5 73.5s71.833 37.667 112.5 50s79.334 18.5 116.001 18.5c20 0 39 -3 57 -9s33.5 -14 46.5 -24s23.333 -22 31 -36s11.5 -29 11.5 -45c0 -34 -6.66699 -68.333 -20 -103s-27.833 -68.334 -43.5 -101.001l-43.5 -93c-13.333 -29.333 -20 -55.333 -20 -78
c0 -15.333 4 -28.833 12 -40.5s19.667 -17.5 35 -17.5c16 0 32.667 5.66699 50 17s34.333 25.166 51 41.499s32.167 33.5 46.5 51.5s26.166 33.667 35.499 47l12 37c12 37.333 22.5 68.666 31.5 93.999s18 47.833 27 67.5s18.5 38.5 28.5 56.5l35 62
c8 13.333 17.333 24.166 28 32.499s21.834 15 33.501 20s23 8.5 34 10.5s20.833 3 29.5 3c19.333 0 29 -4.66699 29 -14c0 -5.33301 -8 -17.333 -24 -36c-6 -7.33301 -14.333 -20.666 -25 -39.999s-22.5 -42.666 -35.5 -69.999s-26.167 -57.666 -39.5 -90.999
s-25 -67.333 -35 -102l-49.5 -173.5c-15.667 -55 -31.167 -106.5 -46.5 -154.5c37.333 14 67.333 30.5 90 49.5s40.334 38.167 53.001 57.5c0.666992 2 2.33398 4.33301 5.00098 7c1.33301 1.33301 3.33301 2.83301 6 4.5s5.66699 2.5 9 2.5c5.33301 0 10.166 -2 14.499 -6
s6.5 -8.66699 6.5 -14c0 -2.66699 -0.5 -5.16699 -1.5 -7.5s-2.16699 -4.83301 -3.5 -7.5s-2.66602 -5.66699 -3.99902 -9zM307.991 -228.004c28 0 54 13.9971 78 41.9971s48 69.667 72 125c-28 -5.33301 -54 -12.166 -78 -20.499s-45 -17.666 -63 -27.999
s-32.167 -21.5 -42.5 -33.5s-15.5 -24.333 -15.5 -37c0 -13.333 5 -24.666 15 -33.999s21.333 -14 34 -14z" />
    <glyph glyph-name="Z" unicode="Z" horiz-adv-x="612" 
d="M644 113c-14.667 -23.333 -31.3291 -44 -49.9961 -62c-16 -15.333 -35.333 -29.333 -58 -42s-48 -19 -76 -19s-51.167 2.33301 -69.5 7s-35.833 10 -52.5 16s-34.5 11.333 -53.5 16s-42.833 7 -71.5 7c-14 0 -27.333 -2.5 -40 -7.5s-24.334 -10.5 -35.001 -16.5
l-29.5 -16.5c-9 -5 -17.5 -7.5 -25.5 -7.5s-16.833 2.66699 -26.5 8s-18.834 12.166 -27.501 20.499s-15.834 17.666 -21.501 27.999s-8.5 20.166 -8.5 29.499c0 7.33301 4.5 18.333 13.5 33s21.167 31.834 36.5 51.501s33 41 53 64l63.5 70.5l67.5 72l65 68l80.5 81.5
l58.5 58.5c16 16 29.333 28.667 40 38s19 16 25 20c-22.667 0 -51.667 2.83301 -87 8.5s-73 8.5 -113 8.5c-30 0 -55.167 -6 -75.5 -18s-30.5 -29.667 -30.5 -53c0 -15.333 2.66699 -28.166 8 -38.499s11 -19 17 -26s11.667 -12.833 17 -17.5s8 -8.66699 8 -12
c0 -12.667 -7 -19 -21 -19c-13.333 0 -29.333 3.33301 -48 10s-36.667 15.834 -54 27.501s-32.166 25.667 -44.499 42s-18.5 34.5 -18.5 54.5c0 17.333 4.66699 33.666 14 48.999s22.333 28.666 39 39.999s36.167 20.333 58.5 27s46.5 10 72.5 10
c66.667 0 123.667 -3.33301 171 -10s82 -10 104 -10c11.333 0 21.833 1 31.5 3s19 4.33301 28 7s17.833 5 26.5 7s17.334 3 26.001 3c6.66699 0 14.167 -2.33301 22.5 -7s16 -10.167 23 -16.5s12.833 -12.666 17.5 -18.999s7 -11.166 7 -14.499
c0 -6.66699 -2 -11.834 -6 -15.501s-10.333 -8.16699 -19 -13.5c-10.667 -6.66699 -25.667 -18.5 -45 -35.5l-67 -61.5l-83 -81.5l-92 -94.5l-96 -103l-80 -90l-77 -89c15.333 6.66699 31.666 12.667 48.999 18c15.333 4.66699 32.666 8.83398 51.999 12.501
s39.666 5.5 60.999 5.5s40.833 -1.16699 58.5 -3.5s34.667 -5 51 -8s32.666 -5.66699 48.999 -8s34.166 -3.5 53.499 -3.5c17.333 0 32.333 2.33301 45 7s23.334 10 32.001 16c10 7.33301 18.333 15.333 25 24c0.666992 2 2.33398 4.33301 5.00098 7
c1.33301 1.33301 3.33301 2.83301 6 4.5s5.66699 2.5 9 2.5c5.33301 0 10.166 -2 14.499 -6s6.5 -8.66699 6.5 -14c0 -2.66699 -0.5 -5.16699 -1.5 -7.5s-2.16699 -4.83301 -3.5 -7.5s-2.66602 -5.66699 -3.99902 -9z" />
    <glyph glyph-name="bracketleft" unicode="[" horiz-adv-x="219" 
d="M-2 729c0 9.33301 2.5 16.3311 7.5 20.998s11.167 7 18.5 7h152c4 0.666992 7.33301 0 10 -2c2.66699 -1.33301 5.16699 -3.66602 7.5 -6.99902s3.5 -7.66602 3.5 -12.999c0 -11.333 -2.16699 -18.833 -6.5 -22.5s-10.166 -5.5 -17.499 -5.5h-65v-728h65
c7.33301 0 13.166 -1.83301 17.499 -5.5s6.5 -11.167 6.5 -22.5c0 -6 -1.16699 -10.5 -3.5 -13.5s-4.83301 -5.16699 -7.5 -6.5c-2.66699 -2 -6 -2.66699 -10 -2h-65c-17.333 0 -34.333 0.166992 -51 0.5s-28.667 0.5 -36 0.5c-12 0 -19.333 3.33301 -22 10s-4 11.667 -4 15
v774z" />
    <glyph glyph-name="backslash" unicode="\" horiz-adv-x="337" 
d="M-19 705c0 2.66699 2.49902 5.33203 7.49902 7.99902s11.333 5 19 7s16 3.66699 25 5s17.833 2 26.5 2c5.33301 0 10 -1.66699 14 -5s6.66699 -6.66602 8 -9.99902l244 -685c3.33301 -8 5 -13.667 5 -17c0 -7.33301 -3.5 -11.833 -10.5 -13.5s-14.833 -2.5 -23.5 -2.5
h-42c-10.667 0 -18 4.66699 -22 14l-245 674c-1.33301 3.33301 -2.66602 7 -3.99902 11s-2 8 -2 12z" />
    <glyph glyph-name="bracketright" unicode="]" horiz-adv-x="275" 
d="M225 -43c0 -9.33301 -2.5 -16.165 -7.5 -20.498s-11.167 -6.5 -18.5 -6.5s-19.333 -0.166992 -36 -0.5s-33.667 -0.5 -51 -0.5h-65c-4.66699 -0.666992 -8.33398 0 -11.001 2c-2.66699 1.33301 -5 3.5 -7 6.5s-3 7.5 -3 13.5c0 11.333 2.16699 18.833 6.5 22.5
s10.166 5.5 17.499 5.5h65v728h-65c-7.33301 0 -13.166 1.83301 -17.499 5.5s-6.5 11.167 -6.5 22.5c0 5.33301 1 9.66602 3 12.999s4.33301 5.66602 7 6.99902c2.66699 2 6.33398 2.66699 11.001 2h152c12 0 19.333 -3.5 22 -10.5s4 -12.167 4 -15.5v-774z" />
    <glyph glyph-name="asciicircum" unicode="^" horiz-adv-x="411" 
d="M244 635l79.9971 -111.997l29.5 -42l25.5 -37.5l18 -27c4.66699 -7 7 -10.833 7 -11.5c0 -4 -2.83301 -7.83301 -8.5 -11.5s-12.167 -6.66699 -19.5 -9s-14.666 -4.33301 -21.999 -6s-12.666 -2.5 -15.999 -2.5c-4 0 -7 0.5 -9 1.5s-4.66699 3.5 -8 7.5l-114 170
l-110 -168c-4 -6 -10.333 -9 -19 -9c-2 0 -6.5 0.5 -13.5 1.5s-14.333 2.66699 -22 5s-14.667 5.16602 -21 8.49902s-9.5 7.33301 -9.5 12c0 0.666992 2.16699 4.66699 6.5 12s10.333 16.666 18 27.999l25.5 38l29 43l80 116c4.66699 5.33301 10.334 9.16602 17.001 11.499
s12.667 3.5 18 3.5c4 0 9.33301 -1.33301 16 -4s14 -8.66699 22 -18z" />
    <glyph glyph-name="underscore" unicode="_" horiz-adv-x="635" 
d="M45 -109c-10 0 -15 5.33398 -15 16.001c0 3.33301 0.833008 8.16602 2.5 14.499s4 12.5 7 18.5s6.5 11.333 10.5 16s8 7 12 7h533c7.33301 0 12.166 -1 14.499 -3s3.5 -5.66699 3.5 -11c0 -3.33301 -1 -8.16602 -3 -14.499s-4.66699 -12.833 -8 -19.5
s-7.16602 -12.334 -11.499 -17.001s-8.5 -7 -12.5 -7h-533z" />
    <glyph glyph-name="grave" unicode="`" horiz-adv-x="202" 
d="M63 656c10.667 0 18.666 -6.66797 23.999 -20.001c4.66699 -11.333 10.5 -23.333 17.5 -36s14.833 -24.5 23.5 -35.5s17.334 -21 26.001 -30s16.667 -15.833 24 -20.5c6.66699 -3.33301 11 -6.33301 13 -9s3 -6 3 -10s-1.5 -7.5 -4.5 -10.5s-7.5 -4.5 -13.5 -4.5
c-7.33301 0 -16.833 1.83301 -28.5 5.5s-24.167 8.66699 -37.5 15s-26.5 13.5 -39.5 21.5s-24.833 16.667 -35.5 26c-10 8.66699 -16.5 15.834 -19.5 21.501s-4.5 12.5 -4.5 20.5c0 5.33301 2 11.833 6 19.5s8.66699 15 14 22s11 12.833 17 17.5s11 7 15 7z" />
    <glyph glyph-name="a" unicode="a" horiz-adv-x="475" 
d="M507 113c-14.667 -23.333 -31.002 -43.9951 -49.002 -61.9951c-15.333 -15.333 -33.5 -29.333 -54.5 -42s-43.833 -19 -68.5 -19c-28 0 -51.667 7.16699 -71 21.5s-30.666 35.5 -33.999 63.5c-13.333 -16.667 -27.666 -31 -42.999 -43
c-13.333 -10.667 -28.333 -20.334 -45 -29.001s-34.667 -13 -54 -13c-13.333 0 -26.166 2.5 -38.499 7.5s-23 12.167 -32 21.5s-16.167 20.333 -21.5 33s-8 26.667 -8 42c0 36 6.83301 71.667 20.5 107s31.5 67.166 53.5 95.499s46.667 51.166 74 68.499
s54.666 26 81.999 26c20 0 37 -2.5 51 -7.5s25.333 -10.5 34 -16.5c10 -7.33301 18 -15 24 -23c7.33301 0 15.166 -0.833008 23.499 -2.5s16 -4.33398 23 -8.00098s12.833 -8.5 17.5 -14.5s7 -13.333 7 -22c0 -7.33301 -3 -19.333 -9 -36l-20 -55.5
c-7.33301 -20.333 -14 -41.333 -20 -63s-9 -40.834 -9 -57.501c0 -8 2.5 -14.667 7.5 -20s11.833 -8 20.5 -8c13.333 0 26.5 4.33301 39.5 13s24.5 18.667 34.5 30c12 12 23 26.333 33 43c0.666992 2 2.33398 4.33301 5.00098 7c1.33301 1.33301 3.33301 2.83301 6 4.5
s5.66699 2.5 9 2.5c5.33301 0 10.166 -2 14.499 -6s6.5 -8.66699 6.5 -14c0 -2.66699 -0.5 -5.16699 -1.5 -7.5s-2.16699 -4.83301 -3.5 -7.5s-2.66602 -5.66699 -3.99902 -9zM274.998 290.005c0 14.667 -3.50098 25.499 -10.501 32.499s-15.5 10.5 -25.5 10.5
c-14.667 0 -29.667 -7.66699 -45 -23s-29.166 -34.166 -41.499 -56.499s-22.5 -46.5 -30.5 -72.5s-12 -49.333 -12 -70c0 -30 9.66699 -45 29 -45c12 0 25.833 8 41.5 24s30.5 35.667 44.5 59s25.833 47.833 35.5 73.5s14.5 48.167 14.5 67.5z" />
    <glyph glyph-name="b" unicode="b" horiz-adv-x="445" 
d="M477 113c-11.333 -16.667 -25.667 -31.0029 -43 -43.0029c-14.667 -11.333 -32.834 -21.333 -54.501 -30s-47.167 -13 -76.5 -13h-16.5c-5.66699 0 -11.5 0.666992 -17.5 2c-34 -26 -74 -39 -120 -39c-17.333 0 -35 3.83301 -53 11.5s-34.667 18.334 -50 32.001
s-27.833 29.667 -37.5 48s-14.5 38.166 -14.5 59.499c0 38.667 3.33301 79.334 10 122.001s16 84.667 28 126s26.5 80.5 43.5 117.5s35.833 69.5 56.5 97.5s42.834 50.333 66.501 67s48.5 25 74.5 25c10.667 0 21.5 -2.83301 32.5 -8.5s20.667 -13 29 -22
s15.166 -18.667 20.499 -29s8 -19.833 8 -28.5c0 -14 -3.5 -29.5 -10.5 -46.5s-15.667 -34.333 -26 -52s-21.833 -35 -34.5 -52l-35 -45.5c-10.667 -13.333 -19.667 -24.166 -27 -32.499s-11.333 -12.833 -12 -13.5c0.666992 0.666992 3.33398 2.33398 8.00098 5.00098
s10.167 5.5 16.5 8.5s13.666 5.66699 21.999 8s16.833 3.5 25.5 3.5c13.333 0 26 -3.16699 38 -9.5s22.5 -14.666 31.5 -24.999s16.167 -21.833 21.5 -34.5s8 -25.334 8 -38.001c0 -34 -6 -69.667 -18 -107s-30 -71 -54 -101c2 -0.666992 5.33301 -1 10 -1
c17.333 0 33 3.5 47 10.5s26.333 14.833 37 23.5c12 10 23.333 21.333 34 34c0.666992 2 2.33398 4.33301 5.00098 7c1.33301 1.33301 3.33301 2.83301 6 4.5s5.66699 2.5 9 2.5c5.33301 0 10.166 -2 14.499 -6s6.5 -8.66699 6.5 -14c0 -2.66699 -0.5 -5.16699 -1.5 -7.5
s-2.16699 -4.83301 -3.5 -7.5s-2.66602 -5.66699 -3.99902 -9zM105.999 115.997c0 -20.667 3.83594 -38.001 11.5029 -52.001s18.167 -21 31.5 -21c10.667 0 21.667 4.66699 33 14c-5.33301 5.33301 -8 11 -8 17c0 5.33301 1.83301 11 5.5 17s8.16699 11.333 13.5 16
s10.833 8.5 16.5 11.5s10.5 4.5 14.5 4.5h3c11.333 23.333 20.333 48.5 27 75.5s10 52.167 10 75.5c0 19.333 -2.33301 34.333 -7 45s-15.334 16 -32.001 16c-8.66699 0 -19.834 -4.5 -33.501 -13.5s-26.834 -22.5 -39.501 -40.5s-23.5 -40.667 -32.5 -68
s-13.5 -59.666 -13.5 -96.999zM304.002 608.996c0 13.333 -6.33301 20.001 -19 20.001c-9.33301 0 -20.333 -8.16699 -33 -24.5s-25.834 -37.833 -39.501 -64.5s-27 -57.334 -40 -92.001s-24.167 -70.334 -33.5 -107.001c16.667 16 34.667 36.167 54 60.5
s37.333 49.333 54 75s30.334 50.334 41.001 74.001s16 43.167 16 58.5z" />
    <glyph glyph-name="c" unicode="c" horiz-adv-x="370" 
d="M402 113c-17.333 -23.333 -37.002 -43.9932 -59.002 -61.9932c-19.333 -15.333 -42.833 -29.333 -70.5 -42s-59.5 -19 -95.5 -19c-21.333 0 -42.833 2.66699 -64.5 8s-41.167 14 -58.5 26s-31.333 27.667 -42 47s-16 43 -16 71c0 33.333 6.83301 65.166 20.5 95.499
s31.334 56.833 53.001 79.5s45.834 40.667 72.501 54s52.667 20 78 20c18 0 34 -2.83301 48 -8.5s25.833 -13.167 35.5 -22.5s17.167 -19.833 22.5 -31.5s8 -23.167 8 -34.5c0 -8.66699 -1.83301 -17.5 -5.5 -26.5s-8.5 -17.167 -14.5 -24.5s-12.5 -13.333 -19.5 -18
s-13.833 -7 -20.5 -7c-13.333 0 -25.166 4.16699 -35.499 12.5s-15.5 18.166 -15.5 29.499c0 8.66699 2 15.667 6 21s8.5 10.166 13.5 14.499l14 12c4.33301 3.66699 6.5 8.16699 6.5 13.5s-2.83301 10.166 -8.5 14.499s-12.5 6.5 -20.5 6.5
c-14.667 0 -28.834 -5.5 -42.501 -16.5s-25.834 -25.5 -36.501 -43.5s-19.334 -38.167 -26.001 -60.5s-10 -44.833 -10 -67.5c0 -34.667 9.5 -60.334 28.5 -77.001s42.5 -25 70.5 -25c22.667 0 43.334 4.66699 62.001 14s34.667 19.666 48 30.999
c16 13.333 30 28.666 42 45.999c1.33301 2 3.33301 4.33301 6 7l7 4.5c2.66699 1.66699 5.66699 2.5 9 2.5c6 0 11 -2 15 -6s6 -8.66699 6 -14c0 -2.66699 -0.666992 -5.16699 -2 -7.5s-2.66602 -4.83301 -3.99902 -7.5c-2 -2.66699 -3.66699 -5.66699 -5 -9z" />
    <glyph glyph-name="d" unicode="d" horiz-adv-x="539" 
d="M282 319l-8.00098 7.99805c-2.66699 2 -5.66699 3.83301 -9 5.5s-7 2.5 -11 2.5c-16 0 -32.167 -7.66699 -48.5 -23s-31 -34.166 -44 -56.499s-23.5 -46.166 -31.5 -71.499s-12 -48.333 -12 -69c0 -18 3.33301 -32 10 -42s15.667 -15 27 -15
c10.667 0 22.334 4.16699 35.001 12.5s24.667 17.833 36 28.5c12.667 12 25.667 26 39 42c0.666992 30 2.5 59.5 5.5 88.5s6.83301 58.833 11.5 89.5zM388.999 276.998c29.333 48 55.668 94.001 79.001 138.001l29.5 57.5c9.66699 19.667 18.167 38.5 25.5 56.5
s13.333 34.667 18 50s7 28.666 7 39.999s-4.66699 17 -14 17c-8.66699 0 -19.334 -10.5 -32.001 -31.5s-26 -48.5 -40 -82.5s-27.5 -72.333 -40.5 -115s-23.833 -86 -32.5 -130zM399.001 -10.001c-18.667 0 -35.665 3.5 -50.998 10.5s-28.5 15.5 -39.5 25.5
s-19.667 20.667 -26 32s-9.83301 21.333 -10.5 30c-16 -18.667 -33 -35 -51 -49c-15.333 -12.667 -32.833 -24 -52.5 -34s-39.834 -15 -60.501 -15c-14 0 -27.833 3 -41.5 9s-25.834 14.333 -36.501 25s-19.334 23.667 -26.001 39s-10 32 -10 50c0 40.667 8 78.167 24 112.5
s36 63.666 60 87.999s49.833 43.333 77.5 57s53.167 20.5 76.5 20.5c9.33301 0 18 -0.833008 26 -2.5s14.667 -3.5 20 -5.5c6.66699 -2.66699 12.334 -5.33398 17.001 -8.00098c11.333 40.667 25 80.334 41 119.001s33.5 73 52.5 103s39.167 54 60.5 72s43.666 27 66.999 27
c10 0 20.167 -2.66699 30.5 -8s19.666 -12.333 27.999 -21s15.166 -18.667 20.499 -30s8 -22.666 8 -33.999c0 -12 -3.16699 -27 -9.5 -45s-14.666 -37.5 -24.999 -58.5s-22 -42.833 -35 -65.5s-26.5 -45 -40.5 -67c-32 -51.333 -68.667 -106 -110 -164
c-1.33301 -8.66699 -2.33301 -17.167 -3 -25.5s-1 -16.5 -1 -24.5c0 -28 4.33301 -51 13 -69s22.334 -27 41.001 -27c13.333 0 26.333 4.33301 39 13s24 18.667 34 30c12 12 23 26.333 33 43c0.666992 2 2.33398 4.33301 5.00098 7c1.33301 1.33301 3.33301 2.83301 6 4.5
s5.66699 2.5 9 2.5c5.33301 0 10.166 -2 14.499 -6s6.5 -8.66699 6.5 -14c0 -2.66699 -0.5 -5.16699 -1.5 -7.5s-2.16699 -4.83301 -3.5 -7.5s-2.66602 -5.66699 -3.99902 -9c-14.667 -23.333 -31 -44 -49 -62c-15.333 -15.333 -33.5 -29.333 -54.5 -42
s-43.833 -19 -68.5 -19z" />
    <glyph glyph-name="e" unicode="e" horiz-adv-x="357" 
d="M120 185c18 0 34.998 5.00098 50.998 15.001s29.833 22.167 41.5 36.5s20.834 29.166 27.501 44.499s10 28.333 10 39c0 13.333 -6 20 -18 20c-14 0 -27.667 -5.66699 -41 -17s-25.166 -25 -35.499 -41s-18.833 -33 -25.5 -51s-10 -33.333 -10 -46zM388.998 113.001
c-14.667 -23.333 -33 -43.9971 -55 -61.9971c-18.667 -15.333 -41.834 -29.333 -69.501 -42s-60.5 -19 -98.5 -19c-25.333 0 -48.666 3.66699 -69.999 11s-39.666 17.5 -54.999 30.5s-27.333 28.5 -36 46.5s-13 37.667 -13 59c0 38 7 72.667 21 104s31.667 58.166 53 80.499
s44.5 39.5 69.5 51.5s48.5 18 70.5 18c15.333 0 29.666 -3 42.999 -9s25 -13.833 35 -23.5s17.833 -20.834 23.5 -33.501s8.5 -25.667 8.5 -39c0 -12 -2.66699 -26.5 -8 -43.5s-14.166 -33.167 -26.499 -48.5s-29 -28.5 -50 -39.5s-47.167 -16.5 -78.5 -16.5
c-7.33301 0 -15 1 -23 3c-4.66699 0.666992 -9.66699 1.66699 -15 3c0 -30 8.66699 -53 26 -69s38 -24 62 -24c23.333 0 44.666 4.83301 63.999 14.5s35.666 20.167 48.999 31.5c16 13.333 29.667 28.666 41 45.999c0.666992 2 2.33398 4.33301 5.00098 7
c1.33301 1.33301 3.33301 2.83301 6 4.5s5.66699 2.5 9 2.5c5.33301 0 10.166 -2 14.499 -6s6.5 -8.66699 6.5 -14c0 -2.66699 -0.5 -5.16699 -1.5 -7.5s-2.16699 -4.83301 -3.5 -7.5s-2.66602 -5.66699 -3.99902 -9z" />
    <glyph glyph-name="f" unicode="f" horiz-adv-x="307" 
d="M91 33l-4 -41.001c-1.33301 -12 -2.33301 -25.167 -3 -39.5s-1 -28.166 -1 -41.499c0 -39.333 4.5 -66.666 13.5 -81.999s17.833 -23 26.5 -23c6 0 11.167 2.16699 15.5 6.5s7.83301 9.83301 10.5 16.5s4.66699 14.167 6 22.5s2 16.5 2 24.5
c0 21.333 -3.5 41.666 -10.5 60.999s-14.5 36 -22.5 50c-10 16.667 -21 32 -33 46zM336 608.999c0 13.333 -6.99902 20.001 -20.999 20.001c-9.33301 0 -20.833 -10.5 -34.5 -31.5s-28.334 -48.5 -44.001 -82.5s-31.167 -72.5 -46.5 -115.5s-29.333 -86.5 -42 -130.5
c10.667 8 22.834 20.667 36.501 38s27.5 36.833 41.5 58.5s27.5 44.667 40.5 69s24.667 47.666 35 69.999s18.666 42.833 24.999 61.5s9.5 33 9.5 43zM339.001 113c-6.66699 -9.33301 -14.832 -19.8301 -24.499 -31.4971s-21.334 -22.5 -35.001 -32.5s-30 -18.5 -49 -25.5
s-41.167 -10.5 -66.5 -10.5c10.667 -9.33301 20 -20.666 28 -33.999c7.33301 -11.333 14 -25.5 20 -42.5s9 -36.167 9 -57.5c0 -12.667 -2.33301 -25.834 -7 -39.501s-11.334 -26.334 -20.001 -38.001s-19.334 -21.167 -32.001 -28.5s-27 -11 -43 -11
c-14.667 0 -30.667 2.83301 -48 8.5s-33.333 15.167 -48 28.5s-27 30.833 -37 52.5s-15 48.5 -15 80.5c0 54 4.5 110.5 13.5 169.5s21.167 116.833 36.5 173.5s33.5 110.5 54.5 161.5s43.5 95.667 67.5 134s49 68.833 75 91.5s51.667 34 77 34
c11.333 0 22.5 -2.83301 33.5 -8.5s20.833 -13 29.5 -22s15.667 -18.667 21 -29s8 -19.833 8 -28.5c0 -14 -4 -32 -12 -54s-18.833 -46.167 -32.5 -72.5s-29.334 -53.833 -47.001 -82.5s-36.334 -56.167 -56.001 -82.5s-39.667 -50.833 -60 -73.5
s-39.5 -41.334 -57.5 -56.001c-5.33301 -15.333 -9.66602 -31.666 -12.999 -48.999s-5.66602 -34.666 -6.99902 -51.999c4.66699 -6 10.334 -11 17.001 -15c5.33301 -3.33301 12 -6.5 20 -9.5s17.333 -4.5 28 -4.5c17.333 0 33 2.66699 47 8s26.667 12.166 38 20.499
s21.5 17.666 30.5 27.999s17.167 20.166 24.5 29.499c0.666992 2 2.33398 4.33301 5.00098 7c1.33301 1.33301 3.33301 2.83301 6 4.5s5.66699 2.5 9 2.5c5.33301 0 10.166 -2 14.499 -6s6.5 -8.66699 6.5 -14c0 -2.66699 -0.5 -5.16699 -1.5 -7.5
s-2.16699 -4.83301 -3.5 -7.5s-2.66602 -5.66699 -3.99902 -9z" />
    <glyph glyph-name="g" unicode="g" horiz-adv-x="460" 
d="M396 297c0 -5.33301 -1.50098 -14.6592 -4.50098 -27.9922s-7 -30 -12 -50l-17.5 -67.5l-22 -80.5l-9 -33c30.667 16.667 56.334 33.5 77.001 50.5s38 35.167 52 54.5c1.33301 2 3.33301 4.33301 6 7l7 4.5c2.66699 1.66699 5.66699 2.5 9 2.5c6 0 11 -2 15 -6
s6 -8.66699 6 -14c0 -2 -0.666992 -4.33301 -2 -7l-4 -8c-2 -2.66699 -3.66699 -5.66699 -5 -9c-8.66699 -11.333 -18.167 -22.333 -28.5 -33s-22.5 -21.334 -36.5 -32.001s-30 -21.334 -48 -32.001s-38.667 -21.667 -62 -33c-8 -31.333 -17.5 -62.833 -28.5 -94.5
s-24.667 -60.334 -41 -86.001s-35.833 -46.667 -58.5 -63s-50 -24.5 -82 -24.5c-15.333 0 -29.833 2.5 -43.5 7.5s-25.667 11.667 -36 20s-18.5 18.333 -24.5 30s-9 24.167 -9 37.5c0 17.333 5.16699 34 15.5 50s24.833 31.167 43.5 45.5s41.167 28.166 67.5 41.499
s55.5 26 87.5 38c4.66699 17.333 8.66699 33.833 12 49.5s6 29.167 8 40.5c-13.333 -16.667 -27.666 -31 -42.999 -43c-13.333 -10.667 -28.333 -20.334 -45 -29.001s-34.667 -13 -54 -13c-13.333 0 -26.166 2.5 -38.499 7.5s-23 12.167 -32 21.5s-16.167 20.333 -21.5 33
s-8 26.667 -8 42c0 36 6.83301 71.667 20.5 107s31.5 67.166 53.5 95.499s46.667 51.166 74 68.499s54.666 26 81.999 26c20 0 37 -2.5 51 -7.5s25.333 -10.5 34 -16.5c10 -7.33301 18 -15 24 -23c7.33301 0 15.166 -0.833008 23.499 -2.5s16 -4.33398 23 -8.00098
s12.833 -8.5 17.5 -14.5s7 -13.333 7 -22zM273.999 290.007c0 14.667 -3.66797 25.499 -11.001 32.499s-16 10.5 -26 10.5c-14.667 0 -29.667 -7.66699 -45 -23s-29.166 -34.166 -41.499 -56.499s-22.5 -46.5 -30.5 -72.5s-12 -49.333 -12 -70c0 -30 9.66699 -45 29 -45
c12 0 25.833 8 41.5 24s30.667 35.667 45 59s26.333 47.833 36 73.5s14.5 48.167 14.5 67.5zM81.998 -231.994c11.333 0 22.167 4.49902 32.5 13.499s20.166 20.833 29.499 35.5s17.833 31.5 25.5 50.5s14.834 38.5 21.501 58.5c-19.333 -10.667 -36.833 -22.5 -52.5 -35.5
s-29 -25.833 -40 -38.5s-19.5 -24.667 -25.5 -36s-9 -20.666 -9 -27.999c0 -13.333 6 -20 18 -20z" />
    <glyph glyph-name="h" unicode="h" horiz-adv-x="488" 
d="M348 -10c-38 0 -68.6719 10.165 -92.0049 30.498s-35 46.833 -35 79.5c0 18 2.66699 35.833 8 53.5s11.333 34.5 18 50.5l18 44c5.33301 13.333 8 24.666 8 33.999c0 19.333 -7.33301 29 -22 29c-17.333 0 -35 -7.16699 -53 -21.5s-34.167 -34.666 -48.5 -60.999
s-26 -58 -35 -95s-13.5 -78.167 -13.5 -123.5c0 -6 -1.16699 -10.833 -3.5 -14.5s-7.16602 -5.5 -14.499 -5.5c-10 0 -20.667 1 -32 3s-22 5.16699 -32 9.5s-18.167 10 -24.5 17s-9.5 15.167 -9.5 24.5c0 28 3.66699 63.5 11 106.5s18 88.667 32 137s30.667 96.833 50 145.5
s41 92.5 65 131.5s50 70.667 78 95s57.667 36.5 89 36.5c11.333 0 22.333 -2.83301 33 -8.5s20.334 -13 29.001 -22s15.5 -18.667 20.5 -29s7.5 -19.833 7.5 -28.5c0 -20.667 -6.66699 -44.5 -20 -71.5s-28.166 -52.833 -44.499 -77.5s-31.5 -45.834 -45.5 -63.501
s-22 -27.5 -24 -29.5c0.666992 0.666992 3.5 2.33398 8.5 5.00098s11.167 5.5 18.5 8.5s15.833 5.66699 25.5 8s19.834 3.5 30.501 3.5c7.33301 0 14.833 -2 22.5 -6s14.5 -9.33301 20.5 -16s11 -14 15 -22s6 -16.333 6 -25c0 -15.333 -3.33301 -32.166 -10 -50.499
s-14 -37.333 -22 -57s-15.333 -39.667 -22 -60s-10 -40.166 -10 -59.499c0 -11.333 2.83301 -20.5 8.5 -27.5s13.5 -10.5 23.5 -10.5c13.333 0 26.5 4.33301 39.5 13s24.5 18.667 34.5 30c12 12 23 26.333 33 43c0.666992 2 2.33398 4.33301 5.00098 7
c1.33301 1.33301 3.33301 2.83301 6 4.5s5.66699 2.5 9 2.5c5.33301 0 10.166 -2 14.499 -6s6.5 -8.66699 6.5 -14c0 -2.66699 -0.5 -5.16699 -1.5 -7.5s-2.16699 -4.83301 -3.5 -7.5s-2.66602 -5.66699 -3.99902 -9c-14.667 -23.333 -31 -44 -49 -62
c-15.333 -15.333 -33.5 -29.333 -54.5 -42s-43.833 -19 -68.5 -19zM350.995 608.998c0 13.333 -6.33301 20.002 -19 20.002c-9.33301 0 -20.5 -7.83301 -33.5 -23.5s-27 -37.334 -42 -65.001s-30.667 -60.5 -47 -98.5s-32.5 -79.333 -48.5 -124
c11.333 9.33301 24 21.666 38 36.999s28 32 42 50s27.667 37 41 57s25 39.167 35 57.5s18.167 35.333 24.5 51s9.5 28.5 9.5 38.5z" />
    <glyph glyph-name="i" unicode="i" horiz-adv-x="253" 
d="M258 576c0 -13.333 -2.16602 -26.167 -6.49902 -38.5s-10.333 -23.333 -18 -33s-16.334 -17.334 -26.001 -23.001s-19.834 -8.5 -30.501 -8.5c-14.667 0 -27.334 5 -38.001 15s-16 24 -16 42c0 12.667 2.33301 25 7 37s10.834 22.833 18.501 32.5
s16.5 17.334 26.5 23.001s20.667 8.5 32 8.5c14.667 0 26.834 -5 36.501 -15s14.5 -23.333 14.5 -40zM114.001 94.999c0 -11.333 2.83203 -20.5 8.49902 -27.5s13.5 -10.5 23.5 -10.5c13.333 0 26.5 4.33301 39.5 13s24.5 18.667 34.5 30c12 12 23 26.333 33 43
c0.666992 2 2.33398 4.33301 5.00098 7c1.33301 1.33301 3.33301 2.83301 6 4.5s5.66699 2.5 9 2.5c5.33301 0 10.166 -2 14.499 -6s6.5 -8.66699 6.5 -14c0 -2.66699 -0.5 -5.16699 -1.5 -7.5s-2.16699 -4.83301 -3.5 -7.5s-2.66602 -5.66699 -3.99902 -9
c-14.667 -23.333 -31 -44 -49 -62c-15.333 -15.333 -33.5 -29.333 -54.5 -42s-43.833 -19 -68.5 -19c-38 0 -68.667 10.167 -92 30.5s-35 46.833 -35 79.5c0 18 3 39.667 9 65s13 51 21 77s16.5 50.667 25.5 74s16.5 42 22.5 56
c2.66699 5.33301 6.33398 9.83301 11.001 13.5s10 5.5 16 5.5c7.33301 0 15.666 -2.33301 24.999 -7s18 -10 26 -16s14.667 -12.167 20 -18.5s8 -11.5 8 -15.5c0 -15.333 -3 -31.833 -9 -49.5l-19.5 -56.5c-7 -20 -13.333 -41.167 -19 -63.5s-8.5 -45.5 -8.5 -69.5z" />
    <glyph glyph-name="j" unicode="j" horiz-adv-x="215" 
d="M59 372c4.66699 12.667 13.999 19.001 27.999 19.001c7.33301 0 15.5 -2.33301 24.5 -7s17.5 -10 25.5 -16s14.667 -12.167 20 -18.5s8 -11.5 8 -15.5c0 -8 -2.16699 -21.167 -6.5 -39.5s-10.333 -40.166 -18 -65.499l-26.5 -84.5l-31 -95.5
c-1.33301 -2 -2.16602 -4.16699 -2.49902 -6.5s-0.833008 -4.5 -1.5 -6.5c32 16 59 32.833 81 50.5s40.333 36.5 55 56.5c1.33301 2 3.33301 4.33301 6 7l7 4.5c2.66699 1.66699 5.66699 2.5 9 2.5c6 0 11 -2 15 -6s6 -8.66699 6 -14
c0 -2.66699 -0.666992 -5.33398 -2 -8.00098l-4 -8c-2 -2.66699 -3.66699 -5.33398 -5 -8.00098c-20 -25.333 -44.833 -48.5 -74.5 -69.5s-67.5 -41.833 -113.5 -62.5c-12 -34 -25.167 -67 -39.5 -99s-30.833 -60.333 -49.5 -85s-40 -44.5 -64 -59.5
s-51.333 -22.5 -82 -22.5c-15.333 0 -29.833 2.5 -43.5 7.5s-25.667 11.667 -36 20s-18.5 18.333 -24.5 30s-9 24.167 -9 37.5c0 18 5.5 35.333 16.5 52s26.833 32.167 47.5 46.5s45.334 28 74.001 41s60.667 25.167 96 36.5c3.33301 8.66699 6.16602 17.167 8.49902 25.5
l7.5 26.5l59 199.5zM240.999 576.001c0 -13.333 -2.16602 -26.167 -6.49902 -38.5s-10.333 -23.333 -18 -33s-16.334 -17.334 -26.001 -23.001s-19.834 -8.5 -30.501 -8.5c-14.667 0 -27.334 5 -38.001 15s-16 24 -16 42c0 12.667 2.33301 25 7 37
s10.834 22.833 18.501 32.5s16.5 17.334 26.5 23.001s20.667 8.5 32 8.5c14.667 0 26.834 -5 36.501 -15s14.5 -23.333 14.5 -40zM-204 -232c13.333 0 26 4.16699 38 12.5s23.333 19.5 34 33.5s20.667 30.5 30 49.5s18 39.167 26 60.5
c-20.667 -10 -39.667 -21.167 -57 -33.5s-32.333 -24.833 -45 -37.5s-22.667 -25 -30 -37s-11 -22.667 -11 -32c0 -10.667 5 -16 15 -16z" />
    <glyph glyph-name="k" unicode="k" 
d="M498 113c-15.333 -23.333 -32.0049 -43.9971 -50.0049 -61.9971c-15.333 -15.333 -33.5 -29.333 -54.5 -42s-43.5 -19 -67.5 -19c-18 0 -37.667 5.5 -59 16.5s-41.166 24.667 -59.499 41s-33.666 33.833 -45.999 52.5s-18.5 35.667 -18.5 51
c0 6.66699 7.5 14.167 22.5 22.5s31.333 18.166 49 29.499s34 24.333 49 39s22.5 32 22.5 52c0 18.667 -7.66699 28 -23 28c-18 0 -36.5 -7.33301 -55.5 -22s-36.5 -35.5 -52.5 -62.5s-29 -59.667 -39 -98s-15 -81.5 -15 -129.5c0 -6 -1.16699 -10.833 -3.5 -14.5
s-7.16602 -5.5 -14.499 -5.5c-6.66699 0 -15.5 0.833008 -26.5 2.5s-21.833 4.5 -32.5 8.5s-19.834 9.33301 -27.501 16s-11.5 15.334 -11.5 26.001c0 29.333 3.66699 66 11 110s18 90.167 32 138.5s30.833 96.666 50.5 144.999s41.5 91.666 65.5 129.999s50 69.5 78 93.5
s57.667 36 89 36c10.667 0 21.334 -2.83301 32.001 -8.5s20.334 -13 29.001 -22s15.5 -18.667 20.5 -29s7.5 -19.833 7.5 -28.5c0 -14 -3.5 -29.5 -10.5 -46.5s-15.667 -34.333 -26 -52s-21.5 -34.834 -33.5 -51.501s-23.333 -31.5 -34 -44.5l-27 -32
c-7.33301 -8.33301 -11.333 -12.833 -12 -13.5c0.666992 0.666992 3.66699 2.16699 9 4.5s11.833 4.83301 19.5 7.5s16.5 5.16699 26.5 7.5s20.333 3.5 31 3.5c17.333 0 32.833 -7.66699 46.5 -23s20.5 -33.333 20.5 -54c0 -19.333 -8.33301 -37.333 -25 -54
s-35 -31.667 -55 -45c-23.333 -15.333 -49.666 -29.666 -78.999 -42.999c0 -5.33301 3.16699 -13 9.5 -23s14.833 -20.333 25.5 -31s23.167 -19.834 37.5 -27.501s29.166 -11.5 44.499 -11.5c14.667 0 28 3.33301 40 10s22.333 14 31 22c10 9.33301 19 20 27 32
c0.666992 2 2.33398 4.33301 5.00098 7c1.33301 1.33301 3.33301 2.83301 6 4.5s5.66699 2.5 9 2.5c5.33301 0 10.166 -2 14.499 -6s6.5 -8.66699 6.5 -14c0 -2.66699 -0.5 -5.16699 -1.5 -7.5s-2.16699 -4.83301 -3.5 -7.5s-2.66602 -5.66699 -3.99902 -9zM350.995 609.003
c0 13.333 -5.99902 20 -17.999 20c-9.33301 0 -20.5 -7.33301 -33.5 -22s-27 -35.334 -42 -62.001s-30.667 -58.5 -47 -95.5s-32.5 -77.5 -48.5 -121.5c10.667 10 22.834 22.333 36.501 37s27.5 30.834 41.5 48.501s27.667 35.834 41 54.501s25.166 36.667 35.499 54
s18.666 33.666 24.999 48.999s9.5 28 9.5 38z" />
    <glyph glyph-name="l" unicode="l" horiz-adv-x="286" 
d="M321 615c0 9.33301 -4.00098 14 -12.001 14c-9.33301 0 -21.5 -10.333 -36.5 -31s-30.667 -47.667 -47 -81s-32.5 -70.666 -48.5 -111.999s-29 -83 -39 -125c11.333 9.33301 23.833 22.666 37.5 39.999s27.167 36.833 40.5 58.5s26.333 44.167 39 67.5
s23.834 45.833 33.501 67.5s17.5 41.5 23.5 59.5s9 32 9 42zM145.999 -10c-20 0 -39.167 3.33398 -57.5 10.001s-34.5 16.5 -48.5 29.5s-25.167 28.833 -33.5 47.5s-12.5 39.667 -12.5 63c0 33.333 3.83301 70.333 11.5 111s18.5 81.5 32.5 122.5s30.167 80.833 48.5 119.5
s38.5 73.167 60.5 103.5s44.833 54.5 68.5 72.5s47.5 27 71.5 27c11.333 0 22 -2.66699 32 -8s18.833 -12 26.5 -20s13.834 -16.833 18.501 -26.5s7 -18.834 7 -27.501c0 -14 -3.83301 -31.833 -11.5 -53.5s-17.834 -45 -30.501 -70s-27.5 -50.833 -44.5 -77.5
s-34.667 -52.5 -53 -77.5s-36.833 -48.333 -55.5 -70s-36.334 -39.5 -53.001 -53.5l-4 -25c-1.33301 -7.33301 -2.33301 -15.5 -3 -24.5s-1 -17.833 -1 -26.5c0 -23.333 5.5 -42.333 16.5 -57s26.833 -22 47.5 -22c13.333 0 26.5 4.33301 39.5 13s24.5 18.667 34.5 30
c12 12 23 26.333 33 43c0.666992 2 2.33398 4.33301 5.00098 7c1.33301 1.33301 3.33301 2.83301 6 4.5s5.66699 2.5 9 2.5c5.33301 0 10.166 -2 14.499 -6s6.5 -8.66699 6.5 -14c0 -2.66699 -0.5 -5.16699 -1.5 -7.5s-2.16699 -4.83301 -3.5 -7.5
s-2.66602 -5.66699 -3.99902 -9c-14.667 -23.333 -31 -44 -49 -62c-15.333 -15.333 -33.5 -29.333 -54.5 -42s-43.833 -19 -68.5 -19z" />
    <glyph glyph-name="m" unicode="m" horiz-adv-x="684" 
d="M417 100c0 22.667 2.66895 43.3359 8.00195 62.0029s11.166 35.667 17.499 51l17.5 43c5.33301 13.333 8 25.666 8 36.999c0 6.66699 -1.66699 11.5 -5 14.5s-7.66602 4.5 -12.999 4.5c-11.333 0 -26.666 -10.5 -45.999 -31.5s-37.333 -52.167 -54 -93.5
c-14.667 -35.333 -25.334 -67.833 -32.001 -97.5s-10 -56.167 -10 -79.5c0 -8.66699 -1.83301 -14.167 -5.5 -16.5s-9.16699 -3.5 -16.5 -3.5c-26.667 0 -49 5.16699 -67 15.5s-27 23.5 -27 39.5c0 20.667 3 42.834 9 66.501s12.833 46.834 20.5 69.501l20.5 63
c6 19.333 9 35 9 47c0 14 -6 21 -18 21s-25.833 -6.66699 -41.5 -20s-30.334 -32.833 -44.001 -58.5s-25.167 -57.334 -34.5 -95.001s-14 -80.5 -14 -128.5c0 -8.66699 -1.83301 -14.167 -5.5 -16.5s-9.16699 -3.5 -16.5 -3.5c-26.667 0 -49 5.16699 -67 15.5
s-27 23.5 -27 39.5c0 29.333 3.16699 59.666 9.5 90.999s13.833 61.333 22.5 90s17.5 55 26.5 79s16.5 43 22.5 57c5.33301 12.667 14.333 19 27 19c7.33301 0 17 -3 29 -9s25.667 -21 41 -45c14 12 28.667 22.667 44 32c13.333 8 28.166 15.333 44.499 22
s33.166 10 50.499 10c22 0 39.333 -7 52 -21s22.667 -31.667 30 -53c15.333 13.333 31.333 25.666 48 36.999c14 9.33301 29.833 17.833 47.5 25.5s35.834 11.5 54.501 11.5c8.66699 0 17.5 -2.16699 26.5 -6.5s17.167 -10 24.5 -17s13.166 -14.833 17.499 -23.5
s6.5 -17.334 6.5 -26.001c0 -13.333 -3.16699 -28.666 -9.5 -45.999s-13.5 -35.833 -21.5 -55.5s-15.167 -39.834 -21.5 -60.501s-9.5 -41 -9.5 -61c0 -11.333 2.83301 -20.5 8.5 -27.5s13.5 -10.5 23.5 -10.5c13.333 0 26.5 4.33301 39.5 13s24.5 18.667 34.5 30
c12 12 23 26.333 33 43c0.666992 2 2.33398 4.33301 5.00098 7c1.33301 1.33301 3.33301 2.83301 6 4.5s5.66699 2.5 9 2.5c5.33301 0 10.166 -2 14.499 -6s6.5 -8.66699 6.5 -14c0 -2.66699 -0.5 -5.16699 -1.5 -7.5s-2.16699 -4.83301 -3.5 -7.5
s-2.66602 -5.66699 -3.99902 -9c-14.667 -23.333 -31 -44 -49 -62c-15.333 -15.333 -33.5 -29.333 -54.5 -42s-43.833 -19 -68.5 -19c-38 0 -68.667 10.167 -92 30.5s-35 46.833 -35 79.5z" />
    <glyph glyph-name="n" unicode="n" horiz-adv-x="489" 
d="M350 95c0 -11.333 2.83301 -20.5 8.5 -27.5s13.5 -10.5 23.5 -10.5c13.333 0 26.5 4.33301 39.5 13s24.5 18.667 34.5 30c12 12 23 26.333 33 43c0.666992 2 2.33398 4.33301 5.00098 7c1.33301 1.33301 3.33301 2.83301 6 4.5s5.66699 2.5 9 2.5
c5.33301 0 10.166 -2 14.499 -6s6.5 -8.66699 6.5 -14c0 -2.66699 -0.5 -5.16699 -1.5 -7.5s-2.16699 -4.83301 -3.5 -7.5s-2.66602 -5.66699 -3.99902 -9c-14.667 -23.333 -31 -44 -49 -62c-15.333 -15.333 -33.5 -29.333 -54.5 -42s-43.833 -19 -68.5 -19
c-38 0 -68.667 9.83301 -92 29.5s-35 43.5 -35 71.5c0 20.667 2.66699 40.5 8 59.5s11.166 37.5 17.499 55.5l17.5 51.5c5.33301 16.333 8 32.166 8 47.499c0 4.66699 -2 8.5 -6 11.5s-8.66699 4.5 -14 4.5c-15.333 0 -31.833 -7.16699 -49.5 -21.5s-34.334 -35 -50.001 -62
s-28.667 -59.667 -39 -98s-15.5 -81.5 -15.5 -129.5c0 -8.66699 -1.83301 -14.167 -5.5 -16.5s-9.16699 -3.5 -16.5 -3.5c-26.667 0 -49 5.16699 -67 15.5s-27 23.5 -27 39.5c0 28 3.16699 57.5 9.5 88.5s13.833 61 22.5 90s17.5 55.833 26.5 80.5s16.5 44 22.5 58
c5.33301 12.667 14.333 19 27 19c7.33301 0 17 -3 29 -9s25.667 -21 41 -45c14 12 29.667 22.667 47 32c14.667 8 31.334 15.333 50.001 22s38.667 10 60 10c10.667 0 21.167 -2.66699 31.5 -8s19.5 -12.166 27.5 -20.499s14.333 -17.5 19 -27.5s7 -20 7 -30
c0 -15.333 -2.83301 -31.5 -8.5 -48.5l-18 -52.5c-6.33301 -18 -12.333 -36.167 -18 -54.5s-8.5 -36.5 -8.5 -54.5z" />
    <glyph glyph-name="o" unicode="o" horiz-adv-x="445" 
d="M477 113c-11.333 -16.667 -25.668 -31 -43.001 -43c-14.667 -11.333 -32.834 -21.333 -54.501 -30s-47.167 -13 -76.5 -13c-12 0 -25 1 -39 3c-16 -12.667 -33.667 -22.5 -53 -29.5s-39.666 -10.5 -60.999 -10.5c-20.667 0 -40.5 3.66699 -59.5 11s-35.667 17.333 -50 30
s-25.666 27.667 -33.999 45s-12.5 35.666 -12.5 54.999c0 42 7.16699 79.167 21.5 111.5s32.833 59.5 55.5 81.5s47.667 38.667 75 50s54 17 80 17c20.667 0 40 -3.33301 58 -10s33.5 -16.5 46.5 -29.5s23.333 -28.667 31 -47s11.5 -38.833 11.5 -61.5
c0 -26.667 -5.5 -54.667 -16.5 -84s-26.167 -56.666 -45.5 -81.999c2.66699 -0.666992 5.16699 -1.16699 7.5 -1.5s5.16602 -0.5 8.49902 -0.5c17.333 0 33 3.5 47 10.5s26.333 14.833 37 23.5c12 10 23.333 21.333 34 34c0.666992 2 2.33398 4.33301 5.00098 7
c1.33301 1.33301 3.33301 2.83301 6 4.5s5.66699 2.5 9 2.5c5.33301 0 10.166 -2 14.499 -6s6.5 -8.66699 6.5 -14c0 -2.66699 -0.5 -5.16699 -1.5 -7.5s-2.16699 -4.83301 -3.5 -7.5s-2.66602 -5.66699 -3.99902 -9zM111.998 106c0 -20 4.16699 -36.333 12.5 -49
s20.166 -19 35.499 -19c10.667 0 21 4 31 12c-11.333 7.33301 -17 15.333 -17 24c0 5.33301 1.83301 11 5.5 17s8.16699 11.333 13.5 16s10.833 8.5 16.5 11.5s10.5 4.5 14.5 4.5c3.33301 0 7 -0.666992 11 -2c10 25.333 17.667 52.166 23 80.499s8 53.5 8 75.5
c0 22.667 -3.66699 38.834 -11 48.501s-16.666 14.5 -27.999 14.5s-23.666 -5.83301 -36.999 -17.5s-25.833 -28 -37.5 -49s-21.334 -45.667 -29.001 -74s-11.5 -59.5 -11.5 -93.5z" />
    <glyph glyph-name="p" unicode="p" horiz-adv-x="465" 
d="M497 113c-11.333 -16.667 -25.668 -30.9951 -43.001 -42.9951c-14.667 -11.333 -32.834 -21.333 -54.501 -30s-47.167 -13 -76.5 -13c-4.66699 0 -9.66699 0.166992 -15 0.5s-10.666 0.833008 -15.999 1.5c-15.333 -12 -32 -21.5 -50 -28.5s-37 -10.5 -57 -10.5
c-16 0 -30.167 2.5 -42.5 7.5s-22.833 10.833 -31.5 17.5c-10 7.33301 -18.667 16 -26 26c-6 -14.667 -12.167 -34.167 -18.5 -58.5s-12.166 -50.166 -17.499 -77.499s-9.66602 -54.333 -12.999 -81s-5 -49.667 -5 -69c0 -14.667 -6.33301 -22 -19 -22
c-9.33301 0 -19.333 1.16699 -30 3.5s-20.5 6.16602 -29.5 11.499s-16.5 12.666 -22.5 21.999s-9 20.666 -9 33.999c0 12 2.33301 30.833 7 56.5s10.667 55.167 18 88.5s16 69.166 26 107.499l30.5 114c10.333 37.667 20.666 73.167 30.999 106.5s19.833 61.666 28.5 84.999
c5.33301 12.667 14.666 19 27.999 19c7.33301 0 16.833 -3 28.5 -9s25.167 -21 40.5 -45c14 12 28.333 22.667 43 32c12.667 8 26.5 15.333 41.5 22s30.167 10 45.5 10c18 0 34.333 -3.83301 49 -11.5s27.167 -17.5 37.5 -29.5s18.5 -25.333 24.5 -40s9 -29.334 9 -44.001
c0 -28 -6.16699 -59.333 -18.5 -94s-29.833 -66.667 -52.5 -96c2 -0.666992 5 -1 9 -1c17.333 0 33 3.5 47 10.5s26.333 14.833 37 23.5c12 10 23.333 21.333 34 34c0.666992 2 2.33398 4.33301 5.00098 7c1.33301 1.33301 3.33301 2.83301 6 4.5s5.66699 2.5 9 2.5
c5.33301 0 10.166 -2 14.499 -6s6.5 -8.66699 6.5 -14c0 -2.66699 -0.5 -5.16699 -1.5 -7.5s-2.16699 -4.83301 -3.5 -7.5s-2.66602 -5.66699 -3.99902 -9zM110.998 122.005c0 -19.333 5.00098 -37.002 15.001 -53.002s23.333 -24 40 -24c10.667 0 21.667 5 33 15
c-3.33301 4.66699 -5 9.33398 -5 14.001c0 5.33301 1.83301 10.833 5.5 16.5s8 10.834 13 15.501s10.333 8.66699 16 12s10.5 5 14.5 5c6.66699 13.333 12.667 27.166 18 41.499s9.83301 28.333 13.5 42s6.5 26.334 8.5 38.001s3 21.5 3 29.5c0 18 -2.83301 30.667 -8.5 38
s-14.167 11 -25.5 11c-13.333 0 -28 -7.16699 -44 -21.5s-31.333 -31.833 -46 -52.5s-26.834 -42.5 -36.501 -65.5s-14.5 -43.5 -14.5 -61.5z" />
    <glyph glyph-name="q" unicode="q" horiz-adv-x="463" 
d="M275 -205c9.33301 13.333 17.667 27.335 25 42.002c6.66699 12.667 12.667 26.667 18 42s8 30.666 8 45.999c0 6 -0.833008 11.667 -2.5 17s-3.5 10.333 -5.5 15l-8 14c-6 -19.333 -11.167 -39.333 -15.5 -60l-11.5 -57c-3.33301 -20.667 -6 -40.334 -8 -59.001z
M274.001 290.002c0 14.667 -3.66797 25.499 -11.001 32.499s-16 10.5 -26 10.5c-14.667 0 -29.667 -7.66699 -45 -23s-29.166 -34.166 -41.499 -56.499s-22.5 -46.5 -30.5 -72.5s-12 -49.333 -12 -70c0 -30 9.66699 -45 29 -45c12 0 25.833 8 41.5 24s30.667 35.667 45 59
s26.333 47.833 36 73.5s14.5 48.167 14.5 67.5zM349 -10.999c7.33301 -8.66699 13.999 -18 19.999 -28c5.33301 -8.66699 10.166 -18.667 14.499 -30s6.5 -23.333 6.5 -36c0 -8 -3.16699 -18.167 -9.5 -30.5s-14.5 -25.166 -24.5 -38.499s-21.167 -26.666 -33.5 -39.999
s-24.5 -25.166 -36.5 -35.499s-23.167 -18.833 -33.5 -25.5s-18.5 -10 -24.5 -10c-13.333 0 -25 6.16699 -35 18.5s-15 26.833 -15 43.5c0 24 1.83301 49.333 5.5 76s8.16699 53.334 13.5 80.001s10.833 52.167 16.5 76.5s10.5 46.166 14.5 65.499
c-13.333 -16.667 -27.666 -31 -42.999 -43c-13.333 -10.667 -28.333 -20.334 -45 -29.001s-34.667 -13 -54 -13c-13.333 0 -26.166 2.5 -38.499 7.5s-23 12.167 -32 21.5s-16.167 20.333 -21.5 33s-8 26.667 -8 42c0 36 6.83301 71.667 20.5 107s31.5 67.166 53.5 95.499
s46.667 51.166 74 68.499s54.666 26 81.999 26c20 0 37 -2.5 51 -7.5s25.333 -10.5 34 -16.5c10 -7.33301 18 -15 24 -23c7.33301 0 15.166 -0.833008 23.499 -2.5s16 -4.33398 23 -8.00098s12.833 -8.5 17.5 -14.5s7 -13.333 7 -22c0 -5.33301 -2.33301 -16.666 -7 -33.999
l-17 -62l-21.5 -78.5c-7.66699 -28.333 -14.5 -56.5 -20.5 -84.5c16.667 0 33 5.33301 49 16s30.333 22.667 43 36c14.667 15.333 28.334 33 41.001 53c0.666992 2 2.33398 4.33301 5.00098 7c1.33301 1.33301 3.33301 2.83301 6 4.5s5.66699 2.5 9 2.5
c5.33301 0 10.166 -2 14.499 -6s6.5 -8.66699 6.5 -14c0 -2.66699 -0.5 -5.16699 -1.5 -7.5s-2.16699 -4.83301 -3.5 -7.5s-2.66602 -5.66699 -3.99902 -9c-12 -19.333 -25.667 -37.333 -41 -54c-13.333 -14 -28.833 -27.833 -46.5 -41.5s-37.167 -23.167 -58.5 -28.5z" />
    <glyph glyph-name="r" unicode="r" horiz-adv-x="393" 
d="M253 92c0 -11.333 2.99316 -20.001 8.99316 -26.001s14 -9 24 -9c13.333 0 26.5 4.33301 39.5 13s24.5 18.667 34.5 30c12 12 23 26.333 33 43c0.666992 2 2.33398 4.33301 5.00098 7c1.33301 1.33301 3.33301 2.83301 6 4.5s5.66699 2.5 9 2.5
c5.33301 0 10.166 -2 14.499 -6s6.5 -8.66699 6.5 -14c0 -2.66699 -0.5 -5.16699 -1.5 -7.5s-2.16699 -4.83301 -3.5 -7.5s-2.66602 -5.66699 -3.99902 -9c-14.667 -23.333 -31 -44 -49 -62c-15.333 -15.333 -33.5 -29.333 -54.5 -42s-43.833 -19 -68.5 -19
c-19.333 0 -36.666 2.66699 -51.999 8s-28.666 12.5 -39.999 21.5s-20 19.5 -26 31.5s-9 25 -9 39c0 22 3.33301 42.667 10 62s13.834 37 21.501 53s14.834 30.167 21.501 42.5s10 22.5 10 30.5c0 5.33301 -3.16699 9.33301 -9.5 12s-13.166 5 -20.499 7
c-8.66699 2 -18.667 3.66699 -30 5c-19.333 -48.667 -37.666 -88.5 -54.999 -119.5s-31.333 -54.167 -42 -69.5c-1.33301 -2 -3.83301 -5 -7.5 -9s-8.5 -6 -14.5 -6c-5.33301 0 -10.166 2.16699 -14.499 6.5s-6.5 9.16602 -6.5 14.499c0 4.66699 1.5 9.16699 4.5 13.5
s5.16699 7.83301 6.5 10.5c9.33301 13.333 22.5 34.5 39.5 63.5s32.833 67.167 47.5 114.5c-6.66699 4.66699 -12.334 10.667 -17.001 18c-4 6 -7.66699 13.667 -11 23s-5 20.333 -5 33c0 10 1.83301 19.5 5.5 28.5s8.5 16.833 14.5 23.5s12.333 12 19 16s13 6 19 6
c6.66699 0 13.667 -1.83301 21 -5.5s14 -8 20 -13s11 -10.667 15 -17s6 -11.833 6 -16.5c0 -13.333 -2.16699 -24.333 -6.5 -33s-6.5 -17 -6.5 -25c0 -7.33301 4 -12.666 12 -15.999s18 -5 30 -5c11.333 0 20.833 0.666992 28.5 2s14.5 2.83301 20.5 4.5
s11.667 3.16699 17 4.5s11 2 17 2c12 0 21.833 -4.66699 29.5 -14s11.5 -20.666 11.5 -33.999c0 -11.333 -3.83301 -24.833 -11.5 -40.5l-25.5 -51.5c-9.33301 -18.667 -17.833 -38.167 -25.5 -58.5s-11.5 -40.5 -11.5 -60.5z" />
    <glyph glyph-name="s" unicode="s" horiz-adv-x="409" 
d="M159 267l-37 -58l-25.5 -43c-7.66699 -13.333 -11.5 -21.666 -11.5 -24.999c0 -14.667 0.833008 -28.834 2.5 -42.501s4.5 -25.834 8.5 -36.501s9 -19.167 15 -25.5s13.667 -9.5 23 -9.5c15.333 0 28.5 8.33301 39.5 25s16.5 36.334 16.5 59.001
c0 12.667 -1.66699 26 -5 40s-6.83301 27.833 -10.5 41.5l-10.5 40c-3.33301 13 -5 24.5 -5 34.5zM441 113c-16.667 -24.667 -38.3359 -46.3359 -65.0029 -65.0029c-22.667 -16.667 -51.834 -31.667 -87.501 -45s-79.167 -20 -130.5 -20c-24.667 0 -48 4.83301 -70 14.5
s-41.167 21.834 -57.5 36.501s-29.333 30.667 -39 48s-14.5 33.333 -14.5 48s5 27 15 37s21 18.333 33 25c14 7.33301 30 13.333 48 18c4 6.66699 9.33301 15 16 25l21 32.5l30 46.5c23.333 35.333 43.333 59.833 60 73.5s31.334 20.5 44.001 20.5
c5.33301 0 10.833 -1.5 16.5 -4.5s11 -6.5 16 -10.5s9 -8 12 -12s4.5 -7.33301 4.5 -10c0 -3.33301 -1.33301 -7.5 -4 -12.5l-8.5 -16c-3 -5.66699 -5.66699 -11.667 -8 -18s-3.5 -12.833 -3.5 -19.5c0 -20 2 -37.333 6 -52s8.5 -28.5 13.5 -41.5s9.5 -25.667 13.5 -38
s6 -26.166 6 -41.499c0 -13.333 -1.16699 -24.5 -3.5 -33.5s-5.16602 -16.833 -8.49902 -23.5c-3.33301 -7.33301 -7 -13.666 -11 -18.999c19.333 5.33301 36.833 12.833 52.5 22.5s28.834 19.167 39.501 28.5c12 11.333 22.667 23.333 32 36
c0.666992 2 2.33398 4.33301 5.00098 7c1.33301 1.33301 3.33301 2.83301 6 4.5s5.66699 2.5 9 2.5c5.33301 0 10.166 -2 14.499 -6s6.5 -8.66699 6.5 -14c0 -2.66699 -0.5 -5.16699 -1.5 -7.5s-2.16699 -4.83301 -3.5 -7.5s-2.66602 -5.66699 -3.99902 -9z" />
    <glyph glyph-name="t" unicode="t" horiz-adv-x="272" 
d="M165 57c13.333 0 26.498 4.33301 39.498 13s24.5 18.667 34.5 30c12 12 23 26.333 33 43c0.666992 2 2.33398 4.33301 5.00098 7c1.33301 1.33301 3.33301 2.83301 6 4.5s5.66699 2.5 9 2.5c5.33301 0 10.166 -2 14.499 -6s6.5 -8.66699 6.5 -14
c0 -2.66699 -0.5 -5.16699 -1.5 -7.5s-2.16699 -4.83301 -3.5 -7.5s-2.66602 -5.66699 -3.99902 -9c-14.667 -23.333 -31 -44 -49 -62c-15.333 -15.333 -33.5 -29.333 -54.5 -42s-43.833 -19 -68.5 -19c-16 0 -32.333 2.83301 -49 8.5s-31.834 13.834 -45.501 24.501
s-25 23.334 -34 38.001s-13.5 30.667 -13.5 48c0 14 1.66699 31.167 5 51.5s8 42.5 14 66.5s12.833 49.333 20.5 76s15.834 53 24.501 79h-27c-5.33301 0 -8 3 -8 9c0 5.33301 3.16699 12.5 9.5 21.5s13.166 13.5 20.499 13.5h20c10 27.333 19.833 52.5 29.5 75.5
s19.167 42.5 28.5 58.5c2.66699 5.33301 6.33398 9.83301 11.001 13.5s10 5.5 16 5.5c7.33301 0 15.5 -2.33301 24.5 -7s17.5 -10.167 25.5 -16.5s14.667 -12.833 20 -19.5s8 -12.334 8 -17.001s-3.16699 -15.167 -9.5 -31.5l-23.5 -61.5h67c5.33301 0 8 -3 8 -9
c0 -2.66699 -1 -6 -3 -10s-4.5 -7.83301 -7.5 -11.5s-6.16699 -6.83398 -9.5 -9.50098s-6.66602 -4 -9.99902 -4h-62l-24.5 -70c-8.33301 -24.667 -15.833 -49 -22.5 -73s-12.167 -47.167 -16.5 -69.5s-6.5 -42.5 -6.5 -60.5c0 -15.333 5.16699 -27.833 15.5 -37.5
s22.833 -14.5 37.5 -14.5z" />
    <glyph glyph-name="u" unicode="u" horiz-adv-x="488" 
d="M349 95c0 -11.333 2.83105 -20.501 8.49805 -27.501s13.5 -10.5 23.5 -10.5c13.333 0 26.5 4.33301 39.5 13s24.5 18.667 34.5 30c12 12 23 26.333 33 43c0.666992 2 2.33398 4.33301 5.00098 7c1.33301 1.33301 3.33301 2.83301 6 4.5s5.66699 2.5 9 2.5
c5.33301 0 10.166 -2 14.499 -6s6.5 -8.66699 6.5 -14c0 -2.66699 -0.5 -5.16699 -1.5 -7.5s-2.16699 -4.83301 -3.5 -7.5s-2.66602 -5.66699 -3.99902 -9c-14.667 -23.333 -31 -44 -49 -62c-15.333 -15.333 -33.5 -29.333 -54.5 -42s-43.833 -19 -68.5 -19
c-19.333 0 -35.833 2.16699 -49.5 6.5s-25.334 10 -35.001 17s-17.5 15 -23.5 24s-10.333 18.167 -13 27.5c-8 -9.33301 -17.167 -18.5 -27.5 -27.5s-21.5 -17 -33.5 -24s-24.5 -12.667 -37.5 -17s-25.833 -6.5 -38.5 -6.5c-11.333 0 -23.166 2.5 -35.499 7.5
s-23.5 11.833 -33.5 20.5s-18.333 19 -25 31s-10 24.667 -10 38c0 18 3 40.333 9 67s13 53.834 21 81.501s16.5 53.834 25.5 78.501s16.5 44 22.5 58c2.66699 5.33301 6.33398 9.83301 11.001 13.5s10 5.5 16 5.5c7.33301 0 15.666 -2.33301 24.999 -7s18 -10 26 -16
s14.667 -12.167 20 -18.5s8 -11.5 8 -15.5c0 -15.333 -3.33301 -32.333 -10 -51l-22.5 -60.5c-8.33301 -21.667 -15.833 -44.334 -22.5 -68.001s-10 -47.5 -10 -71.5c0 -8 2 -15 6 -21s9.66699 -9 17 -9c8 0 16.333 2.16699 25 6.5s17 10 25 17s15.333 14.667 22 23
s12 16.5 16 24.5c5.33301 10.667 11.666 27 18.999 49l22.5 70l22.5 72.5c7.33301 23.667 14 42.5 20 56.5c2.66699 5.33301 6.33398 9.83301 11.001 13.5s10.334 5.5 17.001 5.5c7.33301 0 15.5 -2.33301 24.5 -7s17.5 -10 25.5 -16s14.667 -12.167 20 -18.5
s8 -11.5 8 -15.5c0 -15.333 -3 -31.833 -9 -49.5l-19.5 -56.5c-7 -20 -13.5 -41.167 -19.5 -63.5s-9 -45.5 -9 -69.5z" />
    <glyph glyph-name="v" unicode="v" horiz-adv-x="416" 
d="M448 113c-11.333 -16.667 -25.665 -31.0029 -42.998 -43.0029c-14.667 -11.333 -32.834 -21.333 -54.501 -30s-47.167 -13 -76.5 -13c-14 0 -30.5 2 -49.5 6s-36.167 9.33301 -51.5 16c-36 -22.667 -64.667 -38.167 -86 -46.5s-38.333 -12.5 -51 -12.5
c-5.33301 0 -11 2 -17 6s-11.5 9.33301 -16.5 16s-9 14.167 -12 22.5s-4.5 16.833 -4.5 25.5c0 28 3 57.333 9 88s13 60.334 21 89.001s16.5 54.834 25.5 78.501s16.5 42.5 22.5 56.5c2.66699 5.33301 6.33398 9.83301 11.001 13.5s10 5.5 16 5.5
c7.33301 0 15.666 -2.83301 24.999 -8.5s18 -12.167 26 -19.5s14.667 -14.666 20 -21.999s8 -13 8 -17c0 -15.333 -3.33301 -32.5 -10 -51.5s-14.167 -38.5 -22.5 -58.5s-15.833 -39.833 -22.5 -59.5s-10 -37.5 -10 -53.5c0 -7.33301 1.5 -13.666 4.5 -18.999
s7.16699 -8 12.5 -8c4 0 8.66699 1.66699 14 5v5c0 5.33301 1.83301 11 5.5 17s8.16699 11.333 13.5 16s10.833 8.5 16.5 11.5s10.5 4.5 14.5 4.5h1c10.667 14.667 21.167 31.167 31.5 49.5s19.666 37.833 27.999 58.5s15 42 20 64s7.5 44 7.5 66c0 13.333 7 20 21 20
c8 0 16.667 -2 26 -6s18 -9.66699 26 -17s14.667 -16 20 -26s8 -20.667 8 -32c0 -12.667 -3.5 -27.834 -10.5 -45.501s-16.667 -36 -29 -55s-26.833 -38.167 -43.5 -57.5s-34.334 -37.333 -53.001 -54c7.33301 -6 15.5 -11.333 24.5 -16s20.5 -7 34.5 -7
c17.333 0 33 3.5 47 10.5s26.333 14.833 37 23.5c12 10 23.333 21.333 34 34c0.666992 2 2.33398 4.33301 5.00098 7c1.33301 1.33301 3.33301 2.83301 6 4.5s5.66699 2.5 9 2.5c5.33301 0 10.166 -2 14.499 -6s6.5 -8.66699 6.5 -14c0 -2.66699 -0.5 -5.16699 -1.5 -7.5
s-2.16699 -4.83301 -3.5 -7.5s-2.66602 -5.66699 -3.99902 -9z" />
    <glyph glyph-name="w" unicode="w" horiz-adv-x="673" 
d="M705 113c-11.333 -16.667 -25.6689 -31.0039 -43.002 -43.0039c-14.667 -11.333 -32.834 -21.333 -54.501 -30s-47.167 -13 -76.5 -13c-20.667 0 -43.334 2.66699 -68.001 8c-17.333 -14 -35.833 -25 -55.5 -33s-39.5 -12 -59.5 -12
c-18.667 0 -35.167 4.16699 -49.5 12.5s-26.5 17.5 -36.5 27.5c-12 12 -22.667 25.333 -32 40c-12.667 -14.667 -26.334 -28 -41.001 -40c-12.667 -10 -27.5 -19.167 -44.5 -27.5s-35.167 -12.5 -54.5 -12.5c-11.333 0 -23.166 2.5 -35.499 7.5s-23.5 11.833 -33.5 20.5
s-18.333 19 -25 31s-10 24.667 -10 38c0 18 3 40.333 9 67s13 53.834 21 81.501s16.5 53.834 25.5 78.501s16.5 44 22.5 58c2.66699 5.33301 6.33398 9.83301 11.001 13.5s10 5.5 16 5.5c7.33301 0 15.666 -2.33301 24.999 -7s18 -10 26 -16s14.667 -12.167 20 -18.5
s8 -11.5 8 -15.5c0 -15.333 -3.33301 -32.333 -10 -51l-22.5 -60.5c-8.33301 -21.667 -15.833 -44.334 -22.5 -68.001s-10 -47.5 -10 -71.5c0 -8 2 -15 6 -21s9.66699 -9 17 -9c8 0 16.333 2.66699 25 8s17.5 12.5 26.5 21.5s17.5 19.833 25.5 32.5s15 26.334 21 41.001
l20.5 56.5l20.5 59l18.5 55.5c5.66699 17.333 11.167 32.333 16.5 45c2.66699 5.33301 6.33398 9.83301 11.001 13.5s10.334 5.5 17.001 5.5c7.33301 0 15.5 -2.33301 24.5 -7s17.5 -10 25.5 -16s14.667 -12.167 20 -18.5s8 -11.5 8 -15.5
c0 -14.667 -3.16699 -31.5 -9.5 -50.5l-21.5 -61.5c-8 -22 -15.167 -45.167 -21.5 -69.5s-9.5 -48.833 -9.5 -73.5c0 -20 8.66699 -30 26 -30c10.667 0 22 4.33301 34 13c-2.66699 3.33301 -4 7.33301 -4 12c0 5.33301 1.83301 10.833 5.5 16.5s8 10.834 13 15.501
s10.333 8.66699 16 12s10.5 5 14.5 5c8.66699 16 16.5 33.833 23.5 53.5s13 40.334 18 62.001s9 43.667 12 66s4.5 44.5 4.5 66.5c0 13.333 7 20 21 20c7.33301 0 15.666 -2 24.999 -6s18 -9.66699 26 -17s14.833 -16 20.5 -26s8.5 -20.667 8.5 -32
c0 -16.667 -2.16699 -34.5 -6.5 -53.5s-10.666 -38.333 -18.999 -58s-18.166 -39.167 -29.499 -58.5s-24 -37.333 -38 -54c5.33301 -3.33301 11 -6 17 -8s13 -3 21 -3c17.333 0 33 3.5 47 10.5s26.333 14.833 37 23.5c12 10 23.333 21.333 34 34
c0.666992 2 2.33398 4.33301 5.00098 7c1.33301 1.33301 3.33301 2.83301 6 4.5s5.66699 2.5 9 2.5c5.33301 0 10.166 -2 14.499 -6s6.5 -8.66699 6.5 -14c0 -2.66699 -0.5 -5.16699 -1.5 -7.5s-2.16699 -4.83301 -3.5 -7.5s-2.66602 -5.66699 -3.99902 -9z" />
    <glyph glyph-name="x" unicode="x" horiz-adv-x="454" 
d="M119 279c-16 -41.333 -31.8311 -75.499 -47.498 -102.499s-28.834 -48.167 -39.501 -63.5c-1.33301 -2 -3.83301 -5 -7.5 -9s-8.5 -6 -14.5 -6c-5.33301 0 -10.166 2.16699 -14.499 6.5s-6.5 9.16602 -6.5 14.499c0 4.66699 1.5 9.16699 4.5 13.5
s5.16699 7.83301 6.5 10.5c9.33301 13.333 22.5 34.5 39.5 63.5s32.833 67.167 47.5 114.5c3.33301 10.667 9.5 20.334 18.5 29.001s19 16 30 22s22.5 10.667 34.5 14s23 5 33 5c24.667 0 41.667 -12.667 51 -38s15.333 -68 18 -128c17.333 22.667 29.833 45 37.5 67
s11.5 37.667 11.5 47c0 6 4.5 12.167 13.5 18.5s19.167 12 30.5 17s22.333 9 33 12s17.667 4.5 21 4.5c12.667 0 19 -6 19 -18c0 -6.66699 -4.83301 -18.334 -14.5 -35.001s-22.334 -35 -38.001 -55s-33.167 -40.167 -52.5 -60.5s-39 -37.833 -59 -52.5
c2.66699 -39.333 10.167 -68 22.5 -86s29.166 -27 50.499 -27c13.333 0 26.5 4.33301 39.5 13s24.5 18.667 34.5 30c12 12 23 26.333 33 43c0.666992 2 2.33398 4.33301 5.00098 7c1.33301 1.33301 3.33301 2.83301 6 4.5s5.66699 2.5 9 2.5c5.33301 0 10.166 -2 14.499 -6
s6.5 -8.66699 6.5 -14c0 -2.66699 -0.5 -5.16699 -1.5 -7.5s-2.16699 -4.83301 -3.5 -7.5s-2.66602 -5.66699 -3.99902 -9c-14.667 -23.333 -31 -44 -49 -62c-15.333 -15.333 -33.5 -29.333 -54.5 -42s-43.833 -19 -68.5 -19c-35.333 0 -66.166 7.83301 -92.499 23.5
s-44.833 42.5 -55.5 80.5c-11.333 -11.333 -23.833 -23 -37.5 -35s-27.334 -23.167 -41.001 -33.5s-26.834 -18.833 -39.501 -25.5s-23.667 -10 -33 -10c-4.66699 0 -8.16699 1 -10.5 3s-3.5 6 -3.5 12c0 4.66699 1.5 11 4.5 19s7 16.167 12 24.5s10.333 15.833 16 22.5
s11.167 10.667 16.5 12c18 4 36.5 12 55.5 24s36.167 24 51.5 36c-3.33301 28 -6 51.333 -8 70l-5 45.5c-1.33301 11.667 -3 20 -5 25s-4.66699 7.5 -8 7.5c-4.66699 0 -8.66699 -4 -12 -12z" />
    <glyph glyph-name="y" unicode="y" 
d="M334 26c32 18.667 58.3311 37.8291 78.998 57.4961s38.334 39.5 53.001 59.5c1.33301 2 3.33301 4.33301 6 7l7 4.5c2.66699 1.66699 5.66699 2.5 9 2.5c6 0 11 -2 15 -6s6 -8.66699 6 -14c0 -2.66699 -0.666992 -5.16699 -2 -7.5s-2.66602 -4.83301 -3.99902 -7.5
c-2 -2.66699 -3.66699 -5.66699 -5 -9c-17.333 -23.333 -40 -47.166 -68 -71.499s-65 -48.5 -111 -72.5c-8.66699 -30 -18.5 -60.167 -29.5 -90.5s-24.5 -57.5 -40.5 -81.5s-35.167 -43.667 -57.5 -59s-48.5 -23 -78.5 -23c-15.333 0 -29.833 2.5 -43.5 7.5
s-25.667 11.667 -36 20s-18.5 18.333 -24.5 30s-9 24.167 -9 37.5c0 16.667 5.16699 32.167 15.5 46.5s24.833 27.833 43.5 40.5s40.834 24.834 66.501 36.501s53.5 23.5 83.5 35.5c5.33301 18.667 9.66602 36.334 12.999 53.001s6.33301 31 9 43
c-8 -9.33301 -17.167 -18.5 -27.5 -27.5s-21.5 -17 -33.5 -24s-24.5 -12.667 -37.5 -17s-25.833 -6.5 -38.5 -6.5c-11.333 0 -23.166 2.5 -35.499 7.5s-23.5 11.833 -33.5 20.5s-18.333 19 -25 31s-10 24.667 -10 38c0 18 3 40.333 9 67s13 53.834 21 81.501
s16.5 53.834 25.5 78.501s16.5 44 22.5 58c2.66699 5.33301 6.33398 9.83301 11.001 13.5s10 5.5 16 5.5c7.33301 0 15.666 -2.33301 24.999 -7s18 -10 26 -16s14.667 -12.167 20 -18.5s8 -11.5 8 -15.5c0 -13.333 -3.33301 -29.666 -10 -48.999l-22.5 -63
c-8.33301 -22.667 -15.833 -46 -22.5 -70s-10 -47 -10 -69c0 -8 2 -15 6 -21s9.66699 -9 17 -9c8 0 16.333 2.16699 25 6.5s17 10 25 17s15.333 14.667 22 23s12 16.5 16 24.5c9.33301 17.333 18 36.833 26 58.5s15.5 43.667 22.5 66s13.333 44.166 19 65.499
s11.167 40.666 16.5 57.999c1.33301 6 4.66602 10.667 9.99902 14s11.333 5 18 5c7.33301 0 15.5 -2.33301 24.5 -7s17.5 -10 25.5 -16s14.667 -12.167 20 -18.5s8 -11.5 8 -15.5c0 -7.33301 -2 -20.333 -6 -39s-9 -40.5 -15 -65.5s-12.833 -51.5 -20.5 -79.5l-22.5 -79z
M87.998 -232.005c10.667 0 21.001 3.83398 31.001 11.501s19.333 17.834 28 30.501s16.667 27.5 24 44.5s14 34.5 20 52.5c-18 -10 -34.333 -20.5 -49 -31.5s-27.334 -21.833 -38.001 -32.5s-19 -20.834 -25 -30.501s-9 -17.834 -9 -24.501c0 -13.333 6 -20 18 -20z" />
    <glyph glyph-name="z" unicode="z" horiz-adv-x="470" 
d="M95 225c-26 -52 -47 -89.3359 -63 -112.003c-1.33301 -2 -3.83301 -5 -7.5 -9s-8.5 -6 -14.5 -6c-5.33301 0 -10.166 2.16699 -14.499 6.5s-6.5 9.16602 -6.5 14.499c0 4.66699 1.5 9.16699 4.5 13.5s5.16699 7.83301 6.5 10.5c9.33301 13.333 22.5 34.5 39.5 63.5
s32.833 67.167 47.5 114.5c9.33301 30 21.5 49.167 36.5 57.5s33.833 12.5 56.5 12.5c16 0 30.833 -1 44.5 -3s26.5 -4.16699 38.5 -6.5l34.5 -6.5c11 -2 22.167 -3 33.5 -3c15.333 0 28.333 3.16699 39 9.5s19.667 9.5 27 9.5c4.66699 0 9.5 -2 14.5 -6
s9.5 -8.83301 13.5 -14.5s7.16699 -11.667 9.5 -18s3.5 -12.166 3.5 -17.499c0 -7.33301 -9.66699 -19.333 -29 -36s-42.666 -35.667 -69.999 -57l-85.5 -67.5c-29.667 -23.667 -55.167 -46.167 -76.5 -67.5c22.667 0 42.167 -2.66699 58.5 -8s31.333 -11 45 -17l39.5 -17
c12.667 -5.33301 27 -8 43 -8c13.333 0 26.5 4.33301 39.5 13s24.5 18.667 34.5 30c12 12 23 26.333 33 43c0.666992 2 2.33398 4.33301 5.00098 7c1.33301 1.33301 3.33301 2.83301 6 4.5s5.66699 2.5 9 2.5c5.33301 0 10.166 -2 14.499 -6s6.5 -8.66699 6.5 -14
c0 -2.66699 -0.5 -5.16699 -1.5 -7.5s-2.16699 -4.83301 -3.5 -7.5s-2.66602 -5.66699 -3.99902 -9c-14.667 -23.333 -31 -44 -49 -62c-15.333 -15.333 -33.5 -29.333 -54.5 -42s-43.833 -19 -68.5 -19c-14 0 -26.333 1 -37 3s-21.334 4.16699 -32.001 6.5s-22 4.5 -34 6.5
s-26 3 -42 3c-23.333 0 -43 -3.16699 -59 -9.5s-30 -9.5 -42 -9.5c-6 0 -11.833 1.66699 -17.5 5s-10.834 7.5 -15.501 12.5s-8.33398 10.333 -11.001 16s-4 10.834 -4 15.501c0 6.66699 4.5 15.334 13.5 26.001s20.833 22.667 35.5 36s31 27.333 49 42l54 44.5l51 44
c16 14.333 29 27.5 39 39.5c-19.333 0 -38 3.33301 -56 10s-36.667 10 -56 10c-14.667 0 -27.167 -5.16699 -37.5 -15.5s-21.5 -27.166 -33.5 -50.499z" />
    <glyph glyph-name="braceleft" unicode="{" horiz-adv-x="271" 
d="M48 380c17.333 9.33301 34.9961 24.1641 52.9961 44.4971s34 48.5 48 84.5l22.5 60.5c6.33301 17.667 12.5 33.5 18.5 47.5s12.333 26.667 19 38s14.334 21.666 23.001 30.999c11.333 12.667 24.166 23 38.499 31s28.333 14.333 42 19s26.334 7.83398 38.001 9.50098
s20.834 2.5 27.501 2.5c13.333 0 20 -4.66699 20 -14c0 -5.33301 -2.33301 -9.33301 -7 -12s-10 -5 -16 -7c-17.333 -5.33301 -32 -14 -44 -26s-23 -31.333 -33 -58c-6 -16 -10.5 -30.167 -13.5 -42.5s-5.66699 -24.5 -8 -36.5s-5 -24.167 -8 -36.5
s-7.5 -25.833 -13.5 -40.5c-7.33301 -18 -18.666 -34.333 -33.999 -49s-30.666 -27.334 -45.999 -38.001c-18 -12 -37.667 -23 -59 -33c10 -7.33301 18.667 -15.333 26 -24c6.66699 -7.33301 12.667 -16.5 18 -27.5s8 -23.167 8 -36.5c0 -22 -4.16699 -42.667 -12.5 -62
s-17.333 -38.5 -27 -57.5s-18.667 -38 -27 -57s-12.5 -38.833 -12.5 -59.5c0 -9.33301 1.5 -18.666 4.5 -27.999s8.16699 -17.666 15.5 -24.999c4 -4 7.33301 -7.16699 10 -9.5s4 -6.16602 4 -11.499c0 -10 -6.33301 -15 -19 -15c-13.333 0 -26.666 2.5 -39.999 7.5
s-25.333 12.5 -36 22.5s-19.334 22.333 -26.001 37s-10 31.334 -10 50.001c0 22 2.83301 42 8.5 60s12 35.5 19 52.5s13.333 34.333 19 52s8.5 37.167 8.5 58.5c0 9.33301 -1.5 17.333 -4.5 24s-6.5 12.5 -10.5 17.5l-10.5 13c-3 3.66699 -4.5 7.16699 -4.5 10.5
c0 8.66699 3.66699 15.5 11 20.5s14 9.16699 20 12.5z" />
    <glyph glyph-name="bar" unicode="|" horiz-adv-x="260" 
d="M180 -31c0 -7.33301 -3.16895 -12.833 -9.50195 -16.5s-19.166 -5.5 -38.499 -5.5c-34.667 0 -52 8 -52 24v728c0 16.667 16.333 25 49 25c18.667 0 31.834 -2.16699 39.501 -6.5s11.5 -10.5 11.5 -18.5v-730z" />
    <glyph glyph-name="braceright" unicode="}" horiz-adv-x="271" 
d="M342 310c-17.333 -9.33301 -34.9971 -24.1631 -52.9971 -44.4961s-34 -48.5 -48 -84.5l-23 -60.5c-6.66699 -17.667 -13 -33.5 -19 -47.5s-12.167 -26.667 -18.5 -38s-13.833 -21.666 -22.5 -30.999c-11.333 -12.667 -24.166 -23 -38.499 -31s-28.333 -14.333 -42 -19
s-26.334 -7.83398 -38.001 -9.50098s-20.834 -2.5 -27.501 -2.5c-13.333 0 -20 4.66699 -20 14c0 5.33301 2.33301 9.33301 7 12s10 5 16 7c17.333 5.33301 32 14 44 26s23 31.333 33 58c6 16 10.5 30.167 13.5 42.5s5.66699 24.5 8 36.5s5 24 8 36s7.5 25.667 13.5 41
c7.33301 17.333 18.666 33.5 33.999 48.5s30.666 27.833 45.999 38.5c18 12 37.667 23 59 33c-10 7.33301 -18.667 15.333 -26 24c-6.66699 7.33301 -12.667 16.5 -18 27.5s-8 23.167 -8 36.5c0 22 4.16699 42.667 12.5 62s17.333 38.5 27 57.5s18.667 37.833 27 56.5
s12.5 38.667 12.5 60c0 9.33301 -1.5 18.666 -4.5 27.999s-8.16699 17.666 -15.5 24.999c-4 4 -7.33301 7.16699 -10 9.5s-4 6.16602 -4 11.499c0 10 6.33301 15 19 15c13.333 0 26.666 -2.5 39.999 -7.5s25.333 -12.5 36 -22.5s19.334 -22.333 26.001 -37
s10 -31.334 10 -50.001c0 -22 -2.83301 -42 -8.5 -60s-12 -35.5 -19 -52.5s-13.333 -34.5 -19 -52.5s-8.5 -37.333 -8.5 -58c0 -9.33301 1.5 -17.333 4.5 -24s6.5 -12.5 10.5 -17.5l10.5 -13c3 -3.66699 4.5 -7.16699 4.5 -10.5c0 -8.66699 -3.66699 -15.5 -11 -20.5
s-14 -9.16699 -20 -12.5z" />
    <glyph glyph-name="asciitilde" unicode="~" 
d="M114 279c-10.667 0 -20.334 -1.66602 -29.001 -4.99902s-16.5 -7 -23.5 -11s-13 -7.66699 -18 -11s-8.5 -5 -10.5 -5c-8 0 -12 3.66699 -12 11c0 4.66699 2 11.834 6 21.501s10 19.834 18 30.501c11.333 15.333 25 28.333 41 39s39 16 69 16
c18 0 34.333 -2.83301 49 -8.5s29.167 -11.834 43.5 -18.501s29 -12.834 44 -18.501s31.167 -8.5 48.5 -8.5c14.667 0 27.334 1.83301 38.001 5.5s19.834 7.5 27.501 11.5s13.667 7.83301 18 11.5s7.83301 5.5 10.5 5.5c3.33301 0 6.16602 -1 8.49902 -3
s3.5 -4.66699 3.5 -8c0 -6.66699 -3 -15.834 -9 -27.501s-14 -23.167 -24 -34.5c-12.667 -13.333 -26 -25.333 -40 -36s-33 -16 -57 -16c-16.667 0 -33 3 -49 9s-32.167 12.833 -48.5 20.5s-33 14.5 -50 20.5s-35.167 9 -54.5 9z" />
    <glyph glyph-name="exclamdown" unicode="&#xa1;" horiz-adv-x="288" 
d="M314 509c0 -9.33301 -2.16699 -18.832 -6.5 -28.499s-10 -18.5 -17 -26.5s-15.333 -14.5 -25 -19.5s-19.5 -7.5 -29.5 -7.5c-15.333 0 -27.833 4.5 -37.5 13.5s-14.5 21.5 -14.5 37.5c0 8.66699 1.83301 18 5.5 28s9 19.167 16 27.5s15.333 15.166 25 20.499
s20.167 8 31.5 8c16 0 28.667 -4.83301 38 -14.5s14 -22.5 14 -38.5zM128 -124.999c0 -11.333 -9.33301 -17.001 -28 -17.001c-8 0 -17.5 2.5 -28.5 7.5s-21.667 11.333 -32 19s-19 16.334 -26 26.001s-10.5 19.167 -10.5 28.5c0 6.66699 2.83301 18.167 8.5 34.5
s13.334 35.666 23.001 57.999l32 74l36 82l35.5 81.5c11.333 26.667 21 51.334 29 74.001c6 17.333 15.333 29 28 35c9.33301 4.66699 19.166 8 29.499 10s17.833 3 22.5 3c12.667 0 19 -5.66699 19 -17c0 -4 -3.33301 -17.5 -10 -40.5l-25.5 -84l-33.5 -107.5l-33.5 -111.5
c-10.333 -35.667 -18.833 -67.5 -25.5 -95.5s-10 -48 -10 -60z" />
    <glyph glyph-name="cent" unicode="&#xa2;" horiz-adv-x="355" 
d="M260 343c27.333 -3.33301 46.8359 -10.833 58.5029 -22.5s17.5 -24.5 17.5 -38.5c0 -11.333 -3.16699 -20.166 -9.5 -26.499s-13.833 -9.5 -22.5 -9.5c-7.33301 0 -13.5 2.66699 -18.5 8s-7.5 12.333 -7.5 21c0 4.66699 -1.16699 9.16699 -3.5 13.5
s-7.16602 7.16602 -14.499 8.49902v-214c10 2.66699 19 6.16699 27 10.5s14.667 8.5 20 12.5s9.83301 7.16699 13.5 9.5s7.16699 3.5 10.5 3.5c4.66699 0 8.16699 -1.33301 10.5 -4s3.5 -5.66699 3.5 -9c0 -5.33301 -1.66699 -10.5 -5 -15.5s-9.33301 -11.5 -18 -19.5
c-7.33301 -7.33301 -15.833 -15 -25.5 -23s-21.834 -15 -36.501 -21v-37c0 -7.33301 -3.16699 -13.5 -9.5 -18.5s-14.5 -7.5 -24.5 -7.5c-8.66699 0 -17.334 2.16699 -26.001 6.5s-13 10.5 -13 18.5v20h-10c-24 0 -46.333 3.16699 -67 9.5s-38.334 15.333 -53.001 27
s-26.167 26.167 -34.5 43.5s-12.5 37 -12.5 59c0 24 4 47 12 69s19.667 41.5 35 58.5s34 31.333 56 43s46.667 19.5 74 23.5v26c0 8.66699 4.16699 15.167 12.5 19.5s16.166 6.5 23.499 6.5c9.33301 0 17.833 -2.16699 25.5 -6.5s11.5 -10.833 11.5 -19.5v-25zM146.003 169
c0 -20 4.33301 -36.502 13 -49.502s18 -22.833 28 -29.5v174c-9.33301 -11.333 -18.5 -25.166 -27.5 -41.499s-13.5 -34.166 -13.5 -53.499z" />
    <glyph glyph-name="sterling" unicode="&#xa3;" horiz-adv-x="439" 
d="M289 590c-22 0 -39.835 -11.001 -53.502 -33.001s-20.5 -51.333 -20.5 -88c0 -19.333 -0.166992 -37.666 -0.5 -54.999s-0.833008 -34 -1.5 -50h50c11.333 0 17 -4.66699 17 -14c0 -3.33301 -1 -8.16602 -3 -14.499s-4.5 -12.5 -7.5 -18.5s-6.66699 -11.333 -11 -16
s-8.5 -7 -12.5 -7h-39c-8 -80.667 -23.667 -138 -47 -172c5.33301 0.666992 10.833 1.16699 16.5 1.5s11.5 0.5 17.5 0.5c19.333 0 39.5 -0.833008 60.5 -2.5s38.167 -2.5 51.5 -2.5c10.667 0 19.667 0.666992 27 2s13.833 3.33301 19.5 6s10.667 6.16699 15 10.5
s9.16602 9.5 14.499 15.5c8.66699 10.667 15.334 16 20.001 16c10 0 15 -6 15 -18c0 -10 -3.16699 -23.833 -9.5 -41.5s-15.666 -35 -27.999 -52s-27.666 -31.667 -45.999 -44s-39.833 -18.5 -64.5 -18.5c-16.667 0 -31.667 1.33301 -45 4s-26.166 5.66699 -38.499 9
s-25 6.33301 -38 9s-27.5 4 -43.5 4c-11.333 0 -22 -3.5 -32 -10.5s-20.333 -10.5 -31 -10.5c-5.33301 0 -10.333 2.33301 -15 7s-8.83398 10.5 -12.501 17.5s-6.5 14.333 -8.5 22s-3 14.167 -3 19.5c0 6 2.16699 11.833 6.5 17.5l16 20c6.33301 7.66699 12.833 17 19.5 28
s12.334 24.833 17.001 41.5c4 14.667 6.66699 31.667 8 51s2.66602 42.666 3.99902 69.999h-47c-9.33301 0 -14 5 -14 15c0 3.33301 0.833008 8 2.5 14s3.83398 12 6.50098 18s6 11.333 10 16s8 7 12 7h31v26c0 84.667 18.167 149.667 54.5 195s86.833 68 151.5 68
c30.667 0 56.834 -3 78.501 -9s39.5 -14.167 53.5 -24.5s24.167 -22 30.5 -35s9.5 -26.5 9.5 -40.5c0 -18.667 -4.5 -36.667 -13.5 -54s-20.167 -32.5 -33.5 -45.5s-27.333 -23.5 -42 -31.5s-27.334 -12 -38.001 -12c-10 0 -15 5.66699 -15 17
c0 3.33301 1.16699 8.5 3.5 15.5s4.66602 15.333 6.99902 25s4.66602 20.5 6.99902 32.5s3.5 24.667 3.5 38c0 20.667 -3.66699 36 -11 46s-17.666 15 -30.999 15z" />
    <glyph glyph-name="yen" unicode="&#xa5;" horiz-adv-x="465" 
d="M125 -5c-13.333 0 -23.501 1.49805 -30.501 4.49805s-12.167 6.16699 -15.5 9.5c-3.33301 4 -5.33301 8.66699 -6 14l28 139h-77c-2 0.666992 -4 2.33398 -6 5.00098c-1.33301 2 -2.66602 5 -3.99902 9s-2 9.66699 -2 17c0 12 3.66699 21 11 27
c3.33301 2.66699 7.33301 5 12 7h78l10 46h-87l-6.5 6.5c-3.66699 3.66699 -5.5 11.5 -5.5 23.5c0 8 1 14.333 3 19s4.66699 8.33398 8 11.001s7.33301 4.66699 12 6h81l-100 273c0 6 1.33301 11.667 4 17c2 4 5.66699 7.83301 11 11.5s12.666 5.5 21.999 5.5
c15.333 0 27.166 -1.66699 35.499 -5s14.833 -6.66602 19.5 -9.99902c5.33301 -4.66699 9 -9.66699 11 -15l75 -205l139 205c2.66699 6 7.66699 11.333 15 16c5.33301 4 13.166 7.66699 23.499 11s23.5 5 39.5 5c14.667 0 24 -2.83301 28 -8.5s6 -11.167 6 -16.5
c0 -2 -0.166992 -3.66699 -0.5 -5s-0.5 -2.66602 -0.5 -3.99902c-0.666992 -1.33301 -1 -2.33301 -1 -3l-202 -272h71c4 0 7.33301 -1.33301 10 -4c2.66699 -2 5 -5.16699 7 -9.5s3 -10.5 3 -18.5c0 -8.66699 -1.66699 -15.334 -5 -20.001s-7 -8 -11 -10
c-4.66699 -2.66699 -9.66699 -4 -15 -4h-90l-10 -46h103c2.66699 0 6 -1.33301 10 -4s6 -12.334 6 -29.001c0 -8 -1.66699 -14.167 -5 -18.5s-6.66602 -7.5 -9.99902 -9.5c-4.66699 -2.66699 -9.66699 -4 -15 -4h-100l-28 -139c-1.33301 -5.33301 -4 -10 -8 -14
c-3.33301 -3.33301 -8.16602 -6.5 -14.499 -9.5s-15.166 -4.5 -26.499 -4.5z" />
    <glyph glyph-name="brokenbar" unicode="&#xa6;" horiz-adv-x="125" 
d="M23 138c0 4 2.99902 8.16699 8.99902 12.5s12.833 8.16602 20.5 11.499s15.167 6 22.5 8s12.666 3 15.999 3c5.33301 0 9 -1.16699 11 -3.5s3 -7.16602 3 -14.499v-295c0 -4 -2.83301 -8 -8.5 -12s-12.167 -7.5 -19.5 -10.5s-14.666 -5.33301 -21.999 -7
s-12.666 -2.5 -15.999 -2.5c-10.667 0 -16 5 -16 15v295zM22.999 588c0 4 2.99902 8.16699 8.99902 12.5s12.833 8.16602 20.5 11.499s15.167 6 22.5 8s12.666 3 15.999 3c5.33301 0 9 -1.16699 11 -3.5s3 -7.16602 3 -14.499v-295c0 -4 -2.83301 -8 -8.5 -12
s-12.167 -7.5 -19.5 -10.5s-14.666 -5.33301 -21.999 -7s-12.666 -2.5 -15.999 -2.5c-10.667 0 -16 5 -16 15v295z" />
    <glyph glyph-name="section" unicode="&#xa7;" horiz-adv-x="377" 
d="M295 607c21.333 0 38.667 -5.00195 52 -15.002s20 -23 20 -39s-4.33301 -28.667 -13 -38s-19.667 -14 -33 -14s-23 2.83301 -29 8.5s-10.5 12 -13.5 19l-8.5 19.5c-2.66699 6 -7.33398 9 -14.001 9c-12.667 0 -21.667 -5.16699 -27 -15.5s-8 -21.833 -8 -34.5
c0 -18 6.16699 -35.167 18.5 -51.5l40 -54c14.333 -19.667 27.666 -42 39.999 -67s18.5 -54.833 18.5 -89.5s-6.66699 -68.334 -20 -101.001s-31.5 -61.5 -54.5 -86.5s-49.833 -45.167 -80.5 -60.5s-63.334 -23 -98.001 -23c-25.333 0 -44.166 5.16699 -56.499 15.5
s-18.5 23.5 -18.5 39.5s5.33301 28.5 16 37.5s21.667 13.5 33 13.5c10.667 0 18.834 -3 24.501 -9s10.334 -12.5 14.001 -19.5l10.5 -19.5c3.33301 -6 8.33301 -9 15 -9c13.333 0 22.333 5.5 27 16.5s7 23.167 7 36.5c0 18 -6.33301 36 -19 54l-41.5 59
c-15 21.333 -28.667 44.833 -41 70.5s-18.5 54.834 -18.5 87.501c0 34.667 7.16699 67.834 21.5 99.501s33.5 59.334 57.5 83.001s51.5 42.5 82.5 56.5s63.167 21 96.5 21zM162.001 500.998c-4 -3.33301 -8.83203 -8.5 -14.499 -15.5s-11 -15.5 -16 -25.5
s-9.16699 -21.167 -12.5 -33.5s-5 -25.5 -5 -39.5c0 -22.667 5.66699 -44.334 17 -65.001s23.833 -41.167 37.5 -61.5s26.167 -41.333 37.5 -63s17 -45.167 17 -70.5c0 -6 -0.333008 -11.833 -1 -17.5s-1.66699 -11.167 -3 -16.5c-1.33301 -6 -2.33301 -11.333 -3 -16
c8.66699 10.667 16.667 22 24 34c6 10.667 11.5 22.834 16.5 36.501s7.5 28.5 7.5 44.5c0 20 -5.66699 40.333 -17 61s-24 41.5 -38 62.5s-26.667 42.5 -38 64.5s-17 44.667 -17 68c0 8 0.333008 15.167 1 21.5s1.66699 11.833 3 16.5
c1.33301 5.33301 2.66602 10.333 3.99902 15z" />
    <glyph glyph-name="dieresis" unicode="&#xa8;" horiz-adv-x="298" 
d="M21 530c0 8.66699 1.83398 17.498 5.50098 26.498s8.66699 17.167 15 24.5s13.666 13.5 21.999 18.5s17.166 7.5 26.499 7.5c12.667 0 22.834 -4.66699 30.501 -14s11.5 -20.666 11.5 -33.999c0 -8.66699 -1.66699 -17.667 -5 -27s-8.16602 -17.666 -14.499 -24.999
s-13.833 -13.5 -22.5 -18.5s-18.334 -7.5 -29.001 -7.5c-11.333 0 -20.833 4.66699 -28.5 14s-11.5 21 -11.5 35zM166.001 529.998c0 8.66699 1.83398 17.498 5.50098 26.498s8.66699 17.167 15 24.5s13.666 13.5 21.999 18.5s17.166 7.5 26.499 7.5
c12.667 0 22.834 -4.66699 30.501 -14s11.5 -20.666 11.5 -33.999c0 -8.66699 -1.66699 -17.667 -5 -27s-8.16602 -17.666 -14.499 -24.999s-13.833 -13.5 -22.5 -18.5s-18.334 -7.5 -29.001 -7.5c-11.333 0 -20.833 4.66699 -28.5 14s-11.5 21 -11.5 35z" />
    <glyph glyph-name="copyright" unicode="&#xa9;" horiz-adv-x="500" 
d="M329 357c13.333 0 19.999 -9.66797 19.999 -29.001c0 -7.33301 -3.33301 -13.5 -10 -18.5s-14.834 -9 -24.501 -12s-20 -5.16699 -31 -6.5s-20.833 -2 -29.5 -2c-22 0 -42.167 2.83301 -60.5 8.5s-34.166 14.5 -47.499 26.5s-23.833 26.833 -31.5 44.5
s-11.5 38.5 -11.5 62.5c0 22 3.83301 42 11.5 60s18.5 33.5 32.5 46.5s30.833 23 50.5 30s41.167 10.5 64.5 10.5c9.33301 0 18.833 -1 28.5 -3s18.334 -4.5 26.001 -7.5s14 -6.33301 19 -10s7.5 -7.16699 7.5 -10.5c0 -26.667 -6.33301 -40 -19 -40
c-5.33301 0 -12.833 3 -22.5 9s-22.167 9 -37.5 9c-30 0 -53.833 -8.16699 -71.5 -24.5s-26.5 -38.833 -26.5 -67.5c0 -29.333 8.33301 -52.166 25 -68.499s39.667 -24.5 69 -24.5c10 0 18.667 0.833008 26 2.5s13.5 3.66699 18.5 6l13 6c3.66699 1.66699 7.5 2.5 11.5 2.5z
M11.999 433.999c0 32 6.16699 62.167 18.5 90.5s29.333 53.333 51 75s46.834 38.667 75.501 51s59 18.5 91 18.5c32.667 0 63.334 -6.16699 92.001 -18.5s53.667 -29.333 75 -51s38.333 -46.667 51 -75s19 -58.5 19 -90.5c0 -32.667 -6.33301 -63.334 -19 -92.001
s-29.667 -53.834 -51 -75.501s-46.333 -38.667 -75 -51s-59.334 -18.5 -92.001 -18.5c-32 0 -62.333 6.16699 -91 18.5s-53.834 29.333 -75.501 51s-38.667 46.834 -51 75.501s-18.5 59.334 -18.5 92.001zM70.999 433.999c0 -25.333 4.66699 -48.833 14 -70.5
s22 -40.5 38 -56.5s34.667 -28.5 56 -37.5s44.333 -13.5 69 -13.5s48 4.5 70 13.5s41 21.5 57 37.5s28.667 34.833 38 56.5s14 45.167 14 70.5c0 24.667 -4.66699 47.667 -14 69s-22 40 -38 56s-35 28.667 -57 38s-45.333 14 -70 14s-47.667 -4.66699 -69 -14
s-40 -22 -56 -38s-28.667 -34.667 -38 -56s-14 -44.333 -14 -69z" />
    <glyph glyph-name="ordfeminine" unicode="&#xaa;" horiz-adv-x="330" 
d="M322 524c-8.66699 -14 -18.6641 -26.667 -29.9971 -38c-9.33301 -9.33301 -20.5 -18 -33.5 -26s-27.167 -12 -42.5 -12c-17.333 0 -32 4.33301 -44 13s-19 21.667 -21 39c-8 -10 -16.667 -18.667 -26 -26c-8 -6.66699 -17.5 -12.667 -28.5 -18s-22.167 -8 -33.5 -8
c-16.667 0 -31 5.83301 -43 17.5s-18 27.167 -18 46.5c0 22 4.16699 44 12.5 66s19.333 41.667 33 59s28.834 31.333 45.501 42s33.667 16 51 16c12.667 0 23.167 -1.66699 31.5 -5s15.166 -6.66602 20.499 -9.99902c6 -4 11 -8.66699 15 -14c9.33301 0 19 -2.16699 29 -6.5
s15 -11.833 15 -22.5c0 -4.66699 -1.83301 -12.167 -5.5 -22.5l-12.5 -34.5c-4.66699 -12.667 -8.83398 -25.5 -12.501 -38.5s-5.5 -24.833 -5.5 -35.5c0 -4.66699 1.5 -8.66699 4.5 -12s7.16699 -5 12.5 -5c8.66699 0 17 2.66699 25 8s15 11.333 21 18
c7.33301 7.33301 14 16.333 20 27c0.666992 1.33301 1.66699 2.66602 3 3.99902c3.33301 3.33301 6.66602 5 9.99902 5s6.33301 -1.33301 9 -4s4 -5.66699 4 -9c0 -1.33301 -0.333008 -2.83301 -1 -4.5s-1.33398 -3.16699 -2.00098 -4.5
c-1.33301 -2 -2.33301 -3.66699 -3 -5zM179.003 633c0 8.66699 -2.16895 15.167 -6.50195 19.5s-9.5 6.5 -15.5 6.5c-9.33301 0 -18.666 -4.66699 -27.999 -14s-17.833 -21 -25.5 -35s-14 -29 -19 -45s-7.5 -30.333 -7.5 -43c0 -18 6 -27 18 -27c7.33301 0 15.833 5 25.5 15
s18.834 22 27.501 36s16 29 22 45s9 30 9 42z" />
    <glyph glyph-name="guillemotleft" unicode="&#xab;" horiz-adv-x="551" 
d="M238 543l12.9961 10.501c4.66699 3.66699 10.667 5.5 18 5.5c4 0 9 -1.83301 15 -5.5s11.833 -8.33398 17.5 -14.001s10.334 -11.667 14.001 -18s5.5 -12.166 5.5 -17.499c0 -6 -1.5 -10.667 -4.5 -14s-6.83301 -7.33301 -11.5 -12l-99 -92.5
c-26.667 -25.667 -44 -42.834 -52 -51.501c-7.33301 -7.33301 -13.5 -15.166 -18.5 -23.499s-7.5 -17.166 -7.5 -26.499c0 -7.33301 2.16699 -14.5 6.5 -21.5s9.5 -13.833 15.5 -20.5c22.667 -24.667 47.334 -50.167 74.001 -76.5l82 -78.5
c5.33301 -5.33301 9.16602 -9.33301 11.499 -12s3.5 -7.33398 3.5 -14.001c0 -4.66699 -1.66699 -10 -5 -16s-7.66602 -11.833 -12.999 -17.5s-11 -10.5 -17 -14.5s-11.667 -6 -17 -6s-10.166 1 -14.499 3s-8.16602 4.66699 -11.499 8l-81 74c-32 30 -64.667 63 -98 99
c-9.33301 10 -19 22.167 -29 36.5s-15 32.833 -15 55.5c0 11.333 1 21 3 29s5 15.667 9 23s9 14.5 15 21.5l20 24.5c14 17.333 36.333 40.166 67 68.499zM447.996 543.001l12.9961 10.501c4.66699 3.66699 10.667 5.5 18 5.5c4 0 9 -1.83301 15 -5.5
s11.833 -8.33398 17.5 -14.001s10.334 -11.667 14.001 -18s5.5 -12.166 5.5 -17.499c0 -6 -1.5 -10.667 -4.5 -14s-6.83301 -7.33301 -11.5 -12l-99 -92.5c-26.667 -25.667 -44 -42.834 -52 -51.501c-7.33301 -7.33301 -13.5 -15.166 -18.5 -23.499
s-7.5 -17.166 -7.5 -26.499c0 -7.33301 2.16699 -14.5 6.5 -21.5s9.5 -13.833 15.5 -20.5c22.667 -24.667 47.334 -50.167 74.001 -76.5l82 -78.5c5.33301 -5.33301 9.16602 -9.33301 11.499 -12s3.5 -7.33398 3.5 -14.001c0 -4.66699 -1.66699 -10 -5 -16
s-7.66602 -11.833 -12.999 -17.5s-11 -10.5 -17 -14.5s-11.667 -6 -17 -6s-10.166 1 -14.499 3s-8.16602 4.66699 -11.499 8l-81 74c-32 30 -64.667 63 -98 99c-9.33301 10 -19 22.167 -29 36.5s-15 32.833 -15 55.5c0 11.333 1 21 3 29s5 15.667 9 23s9 14.5 15 21.5
l20 24.5c14 17.333 36.333 40.166 67 68.499z" />
    <glyph glyph-name="registered" unicode="&#xae;" horiz-adv-x="491" 
d="M6 434c0 32 6.16699 62.333 18.5 91s29.166 53.834 50.499 75.501s46.333 38.667 75 51s59 18.5 91 18.5c32.667 0 63.334 -6.16699 92.001 -18.5s53.667 -29.333 75 -51s38.333 -46.834 51 -75.501s19 -59 19 -91s-6.33301 -62.333 -19 -91s-29.667 -53.667 -51 -75
s-46.333 -38.166 -75 -50.499s-59.334 -18.5 -92.001 -18.5c-32 0 -62.333 6.16699 -91 18.5s-53.667 29.166 -75 50.499s-38.166 46.333 -50.499 75s-18.5 59 -18.5 91zM62 434c0 -24.667 4.83301 -47.834 14.5 -69.501s22.667 -40.5 39 -56.5s35.333 -28.5 57 -37.5
s44.5 -13.5 68.5 -13.5c24.667 0 47.834 4.5 69.501 13.5s40.667 21.5 57 37.5s29.166 34.833 38.499 56.5s14 44.834 14 69.501s-4.66699 47.834 -14 69.501s-22.166 40.667 -38.499 57s-35.333 29.166 -57 38.499s-44.834 14 -69.501 14c-24 0 -46.833 -4.66699 -68.5 -14
s-40.667 -22.166 -57 -38.499s-29.333 -35.333 -39 -57s-14.5 -44.834 -14.5 -69.501zM146 558c0 6.66699 3.66602 10.6709 10.999 12.0039c8.66699 1.33301 19.5 2.66602 32.5 3.99902s25.833 2 38.5 2c20.667 0 37.834 -2 51.501 -6s25.834 -9.66699 36.501 -17
c17.333 -12 26 -30.667 26 -56c0 -14.667 -3.16699 -27 -9.5 -37s-15.5 -19 -27.5 -27c12 -10.667 20.333 -25.334 25 -44.001l20 -66c0.666992 -1.33301 1 -3 1 -5c0 -7.33301 -3.66699 -11 -11 -11h-38c-1.33301 0 -3 0.666992 -5 2s-3 2.66602 -3 3.99902
c-6.66699 9.33301 -14 29.666 -22 60.999c-6.66699 25.333 -21.334 38.333 -44.001 39h-23v-93c0 -8.66699 -3.66699 -13 -11 -13h-36c-8 0 -12 4.33301 -12 13v238zM229.999 460.004c16 0 28.666 3.00098 37.999 9.00098s14 14 14 24c0 11.333 -5 19.666 -15 24.999
s-22.667 8 -38 8h-12.5c-4.33301 0 -8.16602 -0.666992 -11.499 -2v-64h25z" />
    <glyph glyph-name="macron" unicode="&#xaf;" horiz-adv-x="359" 
d="M46 487c-10.667 0 -16.0029 5.33203 -16.0029 15.999c0 3.33301 0.833008 8.33301 2.5 15s3.83398 13.334 6.50098 20.001s5.83398 12.5 9.50098 17.5s7.83398 7.5 12.501 7.5h255c7.33301 0 12.333 -1 15 -3s4 -6 4 -12c0 -3.33301 -1 -8.5 -3 -15.5
s-4.5 -13.833 -7.5 -20.5s-6.5 -12.5 -10.5 -17.5s-8.33301 -7.5 -13 -7.5h-255z" />
    <glyph glyph-name="degree" unicode="&#xb0;" horiz-adv-x="242" 
d="M75 515c0 -13.333 4.5 -24.5 13.5 -33.5s20.167 -13.5 33.5 -13.5s24.333 4.5 33 13.5s13 20.167 13 33.5s-4.33301 24.333 -13 33s-19.667 13 -33 13s-24.5 -4.33301 -33.5 -13s-13.5 -19.667 -13.5 -33zM15 515c0 14.667 2.83301 28.5 8.5 41.5
s13.334 24.333 23.001 34s21 17.334 34 23.001s26.833 8.5 41.5 8.5s28.5 -2.83301 41.5 -8.5s24.333 -13.334 34 -23.001s17.334 -21 23.001 -34s8.5 -26.833 8.5 -41.5s-2.83301 -28.5 -8.5 -41.5s-13.334 -24.333 -23.001 -34s-21 -17.334 -34 -23.001
s-26.833 -8.5 -41.5 -8.5s-28.5 2.83301 -41.5 8.5s-24.333 13.334 -34 23.001s-17.334 21 -23.001 34s-8.5 26.833 -8.5 41.5z" />
    <glyph glyph-name="plusminus" unicode="&#xb1;" horiz-adv-x="496" 
d="M35 1c-10 0 -14.999 5.33203 -14.999 15.999c0 3.33301 1.33301 9.16602 4 17.499s6.16699 16.833 10.5 25.5s9 16.334 14 23.001s9.5 10 13.5 10h365c7.33301 0 12.166 -1 14.499 -3s3.5 -5.66699 3.5 -11c0 -3.33301 -1.5 -9.16602 -4.5 -17.499
s-6.83301 -17 -11.5 -26s-9.66699 -17 -15 -24s-10 -10.5 -14 -10.5h-365zM201.001 530.999c0 7.33301 5.16895 12.668 15.502 16.001s20.166 5 29.499 5s19.5 -1.66699 30.5 -5s16.5 -8 16.5 -14v-148h146c7.33301 0 12.666 -5.16699 15.999 -15.5s5 -20.166 5 -29.499
s-1.66699 -19.5 -5 -30.5s-8 -16.5 -14 -16.5h-148v-145c0 -3.33301 -1.66699 -6.33301 -5 -9s-7.33301 -4.83398 -12 -6.50098s-9.66699 -3 -15 -4s-10.333 -1.5 -15 -1.5c-9.33301 0 -19.166 1.66699 -29.499 5s-15.5 8 -15.5 14v147h-145
c-3.33301 0 -6.33301 1.66699 -9 5s-4.83398 7.33301 -6.50098 12s-3 9.66699 -4 15s-1.5 10.333 -1.5 15c0 9.33301 1.66699 19.166 5 29.499s8 15.5 14 15.5h147v146z" />
    <glyph glyph-name="twosuperior" unicode="&#xb2;" horiz-adv-x="403" 
d="M299 706c38 0 66.8359 -8.33105 86.5029 -24.998s29.5 -40.667 29.5 -72c0 -16.667 -5.5 -35.167 -16.5 -55.5s-25.5 -41.333 -43.5 -63s-38.333 -43.167 -61 -64.5s-46 -41 -70 -59c18.667 -4 37.667 -6 57 -6c11.333 0 21 1.33301 29 4s14.667 5.66699 20 9
s9.66602 6.33301 12.999 9s6 4 8 4c6.66699 0 10 -3 10 -9c0 -2.66699 -2.5 -9 -7.5 -19s-12 -20.5 -21 -31.5s-19.5 -20.833 -31.5 -29.5s-25 -13 -39 -13c-14.667 0 -30.834 4 -48.501 12s-35.834 16.667 -54.501 26c-19.333 -12 -37.333 -21.333 -54 -28
s-30.667 -10 -42 -10c-19.333 0 -35 5.33301 -47 16s-18 23 -18 37c0 15.333 6.5 29.166 19.5 41.499s29.5 18.5 49.5 18.5c12 0 26.167 -1.83301 42.5 -5.5s33.833 -7.83398 52.5 -12.501c18.667 16.667 37.5 35.5 56.5 56.5s35.833 42.833 50.5 65.5
s26.667 45.167 36 67.5s14 42.833 14 61.5c0 12.667 -4.33301 22.667 -13 30s-19 11 -31 11c-11.333 0 -23.5 -3.66699 -36.5 -11s-25.333 -16.833 -37 -28.5s-21.334 -25 -29.001 -40s-11.5 -30.167 -11.5 -45.5c0 -16.667 3.5 -27 10.5 -31s12.167 -6 15.5 -6
c4.66699 0 7 -2 7 -6c0 -3.33301 -4.16699 -8.5 -12.5 -15.5s-20.166 -10.5 -35.499 -10.5c-8 0 -15.833 1.33301 -23.5 4s-14.834 6.33398 -21.501 11.001s-12 10.5 -16 17.5s-6 15.167 -6 24.5c0 24.667 7 47.5 21 68.5s31.833 39.167 53.5 54.5
s45.334 27.166 71.001 35.499s50.5 12.5 74.5 12.5zM66.0029 358.002c-8.66699 0 -15.166 -1.66699 -19.499 -5s-6.5 -7 -6.5 -11c0 -6 2.16699 -10.167 6.5 -12.5s9.16602 -3.5 14.499 -3.5c14 0 31.667 6.33301 53 19l-26 9c-8 2.66699 -15.333 4 -22 4z" />
    <glyph glyph-name="threesuperior" unicode="&#xb3;" horiz-adv-x="379" 
d="M264 648c7.33301 10.667 14.999 20.332 22.999 28.999c7.33301 7.33301 15.5 14 24.5 20s18.167 9 27.5 9s17 -2.5 23 -7.5s9 -11.833 9 -20.5c0 -12 -5.33301 -22.833 -16 -32.5s-27.667 -17.167 -51 -22.5l-61 -58c10.667 0 21.834 -1.5 33.501 -4.5
s22.334 -8.16699 32.001 -15.5s17.5 -17 23.5 -29s9 -26.667 9 -44c0 -26 -6.66699 -50.333 -20 -73s-30.333 -42.5 -51 -59.5s-43.667 -30.333 -69 -40s-49.666 -14.5 -72.999 -14.5c-34.667 0 -63.334 6.83301 -86.001 20.5s-34 31.5 -34 53.5
c0 10.667 4 20.334 12 29.001s17.167 16 27.5 22s20.166 10.5 29.499 13.5s15.666 4.5 18.999 4.5c8.66699 0 13 -3.33301 13 -10c0 -3.33301 -2 -7 -6 -11c-5.33301 -5.33301 -9.83301 -11.333 -13.5 -18s-5.5 -14.667 -5.5 -24c0 -11.333 4.5 -21.666 13.5 -30.999
s22.167 -14 39.5 -14c14 0 27.5 3.83301 40.5 11.5s24.5 18.667 34.5 33s17.833 31.333 23.5 51s8.5 41.5 8.5 65.5c0 16.667 -3.83301 29.834 -11.5 39.501s-18.5 14.5 -32.5 14.5c-3.33301 -4 -7.83301 -9 -13.5 -15s-12 -11.667 -19 -17s-14.333 -10 -22 -14
s-15.5 -6 -23.5 -6c-10 0 -17.833 2.83301 -23.5 8.5s-8.5 13.167 -8.5 22.5s4.33301 17.333 13 24s18.334 12 29.001 16c12 4.66699 26 8 42 10l54 50c-9.33301 0 -21.333 0.333008 -36 1s-29 2.33398 -43 5.00098s-26.167 6.66699 -36.5 12s-15.5 12.666 -15.5 21.999
c0 8 3.66699 15.167 11 21.5s15.666 11.666 24.999 15.999s18.833 7.83301 28.5 10.5s16.834 4 21.501 4c6.66699 0 10 -2.66699 10 -8c0 -2.66699 -2.16699 -5.5 -6.5 -8.5s-6.5 -7.16699 -6.5 -12.5c0 -4 2.33301 -7.83301 7 -11.5s11 -6.83398 19 -9.50098
s17 -4.66699 27 -6s20.333 -2 31 -2z" />
    <glyph glyph-name="acute" unicode="&#xb4;" horiz-adv-x="197" 
d="M143 642c4 0 8.83301 -2.33301 14.5 -7s11.334 -10.5 17.001 -17.5s10.334 -14.333 14.001 -22s5.5 -14.167 5.5 -19.5c0 -8 -1.5 -14.833 -4.5 -20.5s-9.5 -12.834 -19.5 -21.501c-10.667 -9.33301 -22.834 -17.333 -36.501 -24s-27.334 -12.167 -41.001 -16.5
s-26.5 -7.66602 -38.5 -9.99902s-22 -3.5 -30 -3.5c-5.33301 0 -9.66602 1.5 -12.999 4.5s-5 6.5 -5 10.5s1 7.33301 3 10s6.33301 5.66699 13 9c15.333 9.33301 31.5 23.5 48.5 42.5s33.167 40.833 48.5 65.5c4 6.66699 7.66699 11.667 11 15s7.66602 5 12.999 5z" />
    <glyph glyph-name="paragraph" unicode="&#xb6;" horiz-adv-x="464" 
d="M5 500c0 28.667 6.66699 53.166 20 73.499s30.5 37 51.5 50s44.5 22.5 70.5 28.5s52 9 78 9h207c8.66699 0 14.834 -2.5 18.501 -7.5s5.5 -14.5 5.5 -28.5c0 -22.667 -7.66699 -34 -23 -34h-46v-575c0 -7.33301 -4.33301 -13 -13 -17s-16.667 -6 -24 -6c-8 0 -16 2 -24 6
s-12 9.66699 -12 17v575h-56v-575c0 -7.33301 -4.5 -13 -13.5 -17s-16.833 -6 -23.5 -6c-8.66699 0 -17.334 2 -26.001 6s-13 9.66699 -13 17v319c-24 0.666992 -46.667 4.83398 -68 12.501s-40 18.5 -56 32.5s-28.833 31 -38.5 51s-14.5 43 -14.5 69z" />
    <glyph glyph-name="periodcentered" unicode="&#xb7;" horiz-adv-x="146" 
d="M20 302c0 8 1.66699 16.333 5 25s8 16.5 14 23.5s13 12.833 21 17.5s16.667 7 26 7c12 0 21.667 -4.33301 29 -13s11 -19.667 11 -33c0 -8 -1.66699 -16.5 -5 -25.5s-8 -17 -14 -24s-13.167 -12.833 -21.5 -17.5s-17.5 -7 -27.5 -7c-11.333 0 -20.5 4.5 -27.5 13.5
s-10.5 20.167 -10.5 33.5z" />
    <glyph glyph-name="cedilla" unicode="&#xb8;" horiz-adv-x="262" 
d="M152 0c0 -3.33301 0.167969 -7.50098 0.500977 -12.501s1.16602 -10 2.49902 -15s3.16602 -9.33301 5.49902 -13s5.83301 -5.5 10.5 -5.5c8.66699 0 17.834 0.666992 27.501 2s18.167 2 25.5 2c10 0 17.5 -3.33301 22.5 -10s7.5 -15.334 7.5 -26.001
c0 -13.333 -3.5 -28.166 -10.5 -44.499s-17.667 -31.666 -32 -45.999s-32.333 -26.333 -54 -36s-46.834 -14.5 -75.501 -14.5c-21.333 0 -39.333 4.33301 -54 13s-22 20.334 -22 35.001c0 11.333 4 21.5 12 30.5s17 13.5 27 13.5c7.33301 0 13 -1.66699 17 -5s8 -7 12 -11
s8.83301 -7.66699 14.5 -11s13.834 -5 24.501 -5s21.334 2.16699 32.001 6.5s20.167 9.33301 28.5 15s15 11.334 20 17.001s7.5 10.167 7.5 13.5s-1.66699 5 -5 5c-15.333 0 -31 -2.5 -47 -7.5s-29.667 -7.5 -41 -7.5c-8.66699 0 -15.334 3 -20.001 9s-7 11.667 -7 17
c0 7.33301 0.666992 16.166 2 26.499s3 20.166 5 29.499l8 35h56z" />
    <glyph glyph-name="onesuperior" unicode="&#xb9;" horiz-adv-x="250" 
d="M110 579c-6.66699 -4.66699 -13.665 -8.33594 -20.998 -11.0029c-6 -3.33301 -13 -6 -21 -8s-16 -3 -24 -3s-15.333 2.66699 -22 8s-10 12.666 -10 21.999c0 6.66699 1.5 13.334 4.5 20.001s6.5 12.834 10.5 18.501s8.16699 10.834 12.5 15.501l11.5 12
c4 4 8.33301 6 13 6c4 0 6 -2 6 -6c0 -9.33301 2 -17 6 -23s10.333 -9 19 -9c5.33301 0 10.166 0.333008 14.499 1s8.5 1.66699 12.5 3s8.33301 2.66602 13 3.99902c7.33301 14 15 26.667 23 38c7.33301 9.33301 15.666 18.166 24.999 26.499s19.333 12.5 30 12.5
c12.667 0 22.334 -3.5 29.001 -10.5s10 -16.167 10 -27.5c0 -8.66699 -4.33301 -19.167 -13 -31.5s-20.334 -24.166 -35.001 -35.499c-5.33301 -4 -11.833 -12 -19.5 -24s-15.834 -26.5 -24.501 -43.5s-17.5 -35.833 -26.5 -56.5s-17.167 -41.667 -24.5 -63
s-13.166 -42.166 -17.499 -62.499s-6.5 -38.5 -6.5 -54.5c0 -3.33301 -0.5 -6.16602 -1.5 -8.49902s-4.16699 -3.5 -9.5 -3.5c-3.33301 0 -8.5 1.66699 -15.5 5s-13.833 7.5 -20.5 12.5s-12.5 10.333 -17.5 16s-7.5 11.167 -7.5 16.5c0 17.333 5 39.5 15 66.5
s21 53.833 33 80.5c14 30.667 30.333 63 49 97z" />
    <glyph glyph-name="ordmasculine" unicode="&#xba;" horiz-adv-x="258" 
d="M10 533c0 26 4.50098 49.167 13.501 69.5s20.5 37.333 34.5 51s29.5 24 46.5 31s33.5 10.5 49.5 10.5c26 0 47.833 -8.16699 65.5 -24.5s26.5 -38.833 26.5 -67.5c0 -16.667 -3.33301 -34.167 -10 -52.5s-16.167 -35.333 -28.5 -51s-27 -28.667 -44 -39
s-35.833 -15.5 -56.5 -15.5c-13.333 0 -25.833 2.33301 -37.5 7s-21.834 11 -30.501 19s-15.667 17.333 -21 28s-8 22 -8 34zM83.001 518c0 -12.667 2.66602 -22.9971 7.99902 -30.9971s12.666 -12 21.999 -12c10 0 19 5.16699 27 15.5s15 23.166 21 38.499
s10.5 31.666 13.5 48.999s4.5 32.666 4.5 45.999c0 14 -2.16699 24 -6.5 30s-10.166 9 -17.499 9s-15.166 -3.66699 -23.499 -11s-16 -17.333 -23 -30s-13 -28 -18 -46s-7.5 -37.333 -7.5 -58z" />
    <glyph glyph-name="guillemotright" unicode="&#xbb;" horiz-adv-x="551" 
d="M313 543l103.996 -93.501c30.667 -28.333 53 -51.166 67 -68.499l20 -24.5c6 -7 11 -14.167 15 -21.5s7 -15 9 -23s3 -17.667 3 -29c0 -22.667 -5 -41.167 -15 -55.5s-19.667 -26.5 -29 -36.5c-33.333 -36 -66 -69 -98 -99l-81 -74
c-3.33301 -3.33301 -7.16602 -6 -11.499 -8s-9.16602 -3 -14.499 -3s-11 2 -17 6s-11.667 8.83301 -17 14.5s-9.66602 11.5 -12.999 17.5s-5 11.333 -5 16c0 6.66699 1.16699 11.334 3.5 14.001s6.16602 6.66699 11.499 12l82 78.5c26.667 26.333 51.334 51.833 74.001 76.5
c6 6.66699 11.167 13.5 15.5 20.5s6.5 14.167 6.5 21.5c0 9.33301 -2.5 18.166 -7.5 26.499s-11.167 16.166 -18.5 23.499c-8 8.66699 -25.333 25.834 -52 51.501l-99 92.5c-4.66699 4.66699 -8.5 8.66699 -11.5 12s-4.5 8 -4.5 14c0 5.33301 1.83301 11.166 5.5 17.499
s8.33398 12.333 14.001 18s11.5 10.334 17.5 14.001s11 5.5 15 5.5c7.33301 0 13.333 -1.83301 18 -5.5zM102.996 542.999l103.996 -93.501c30.667 -28.333 53 -51.166 67 -68.499l20 -24.5c6 -7 11 -14.167 15 -21.5s7 -15 9 -23s3 -17.667 3 -29
c0 -22.667 -5 -41.167 -15 -55.5s-19.667 -26.5 -29 -36.5c-33.333 -36 -66 -69 -98 -99l-81 -74c-3.33301 -3.33301 -7.16602 -6 -11.499 -8s-9.16602 -3 -14.499 -3s-11 2 -17 6s-11.667 8.83301 -17 14.5s-9.66602 11.5 -12.999 17.5s-5 11.333 -5 16
c0 6.66699 1.16699 11.334 3.5 14.001s6.16602 6.66699 11.499 12l82 78.5c26.667 26.333 51.334 51.833 74.001 76.5c6 6.66699 11.167 13.5 15.5 20.5s6.5 14.167 6.5 21.5c0 9.33301 -2.5 18.166 -7.5 26.499s-11.167 16.166 -18.5 23.499
c-8 8.66699 -25.333 25.834 -52 51.501l-99 92.5c-4.66699 4.66699 -8.5 8.66699 -11.5 12s-4.5 8 -4.5 14c0 5.33301 1.83301 11.166 5.5 17.499s8.33398 12.333 14.001 18s11.5 10.334 17.5 14.001s11 5.5 15 5.5c7.33301 0 13.333 -1.83301 18 -5.5z" />
    </font>
</defs>
</svg>
